<?xml version="1.0" encoding="UTF-8" standalone="no"?>
<!-- Created with Inkscape (http://www.inkscape.org/) -->

<svg
   version="1.1"
   id="svg824"
   width="1024"
   height="1024"
   viewBox="0 0 1024 1024"
   sodipodi:docname="Anker.svg"
   inkscape:version="1.1 (c68e22c387, 2021-05-23)"
   xmlns:inkscape="http://www.inkscape.org/namespaces/inkscape"
   xmlns:sodipodi="http://sodipodi.sourceforge.net/DTD/sodipodi-0.dtd"
   xmlns="http://www.w3.org/2000/svg"
   xmlns:svg="http://www.w3.org/2000/svg">
  <defs
     id="defs828" />
  <sodipodi:namedview
     id="namedview826"
     pagecolor="#505050"
     bordercolor="#eeeeee"
     borderopacity="1"
     inkscape:pageshadow="0"
     inkscape:pageopacity="0"
     inkscape:pagecheckerboard="0"
     showgrid="false"
     inkscape:zoom="0.83105469"
     inkscape:cx="396.48414"
     inkscape:cy="678.05405"
     inkscape:window-width="1920"
     inkscape:window-height="1111"
     inkscape:window-x="-9"
     inkscape:window-y="-9"
     inkscape:window-maximized="1"
     inkscape:current-layer="g830" />
  <g
     inkscape:groupmode="layer"
     inkscape:label="Image"
     id="g830">
    <path
       style="fill:#000000"
       d="m 455.52762,840.74805 c -58.95626,-6.28143 -115.80574,-29.99898 -164,-68.42064 -24.24761,-19.3308 -50.25225,-49.00645 -68.05218,-77.65893 -24.77036,-39.87278 -37.67207,-76.55151 -45.14886,-128.35532 -2.07404,-14.37026 -1.74848,-64.79256 0.52299,-81 13.18681,-94.09056 65.27454,-173.76171 147.17805,-225.11722 22.31331,-13.99099 44.3269,-24.37861 67.4841,-31.84391 32.08288,-10.34271 59.46611,-14.65132 93.0159,-14.63556 63.88346,0.03 123.51709,19.3114 176,56.90622 25.28455,18.11196 41.59057,33.11271 60.33663,55.5068 36.98356,44.18064 59.44108,93.45413 69.87397,153.30872 2.03065,11.65007 2.24333,16.10959 2.23554,46.87495 -0.008,30.43971 -0.24705,35.51836 -2.28555,48.5 -2.53711,16.15686 -5.37203,28.7968 -10.70874,47.74663 -15.94635,56.623 -55.2497,114.28156 -103.52496,151.87259 -47.85144,37.26099 -99.48381,58.26606 -161.89703,65.86293 -13.33031,1.62255 -47.65998,1.87722 -61.02986,0.45274 z m 68.18166,-3.88188 c 40.83195,-6.21115 64.65617,-13.5279 99.81834,-30.65562 50.14189,-24.42443 95.95255,-66.87081 125.92411,-116.67638 17.62585,-29.28995 25.98445,-49.94926 34.98322,-86.46539 11.93208,-48.41922 12.10587,-102.44686 0.47849,-148.75562 -14.20642,-56.5804 -39.86943,-102.73124 -80.79653,-145.29968 -14.58893,-15.174 -40.49593,-35.5958 -62.19206,-49.02435 -9.75273,-6.03633 -32.67336,-17.60844 -44.39723,-22.41517 -55.37981,-22.70545 -116.80378,-27.62846 -176.80731,-14.17077 -59.08106,13.2508 -115.51423,46.27811 -159.60795,93.40997 -31.97887,34.18227 -57.01766,78.17388 -70.08222,123.13012 -20.8658,71.80096 -14.76555,153.86545 16.35513,220.01984 17.69622,37.61752 45.02681,74.63 74.32254,100.65136 12.13842,10.78171 13.29087,11.67196 30.81981,23.80768 45.02795,31.17396 94.03111,49.22304 147.69185,54.39856 14.71688,1.41943 48.05669,0.39305 63.48981,-1.95455 z m -53.68166,-24.65814 c -21.20246,-1.62928 -42.44208,-5.28774 -60.0528,-10.34391 -42.66984,-12.25082 -89.10823,-39.66645 -120.35319,-71.05239 -37.70759,-37.87774 -64.13126,-85.13431 -76.04405,-135.99857 -5.54282,-23.66629 -6.46876,-32.83974 -6.51046,-64.5 -0.0256,-19.46837 0.41521,-33.15949 1.25576,-39 2.11891,-14.72301 8.07785,-40.0762 12.78418,-54.39215 20.95352,-63.73753 65.26133,-118.09043 126.46856,-155.14045 52.96356,-32.05995 110.33497,-44.04231 173.952,-36.33092 41.08664,4.98035 82.55784,21.21894 120.5,47.18336 14.78808,10.11971 23.73152,17.48256 37.87341,31.17995 44.7427,43.33635 73.38412,98.44691 82.59032,158.91661 4.40516,28.93473 4.83542,51.85267 1.52225,81.0836 -7.58145,66.88852 -40.70132,130.90145 -91.12638,176.12592 -42.15461,37.80699 -93.51715,61.89003 -148.8596,69.7978 -13.3943,1.91388 -43.38934,3.28652 -54,2.47115 z m 42,-3.41624 c 67.72042,-7.56179 127.09052,-36.43756 173.06739,-84.17459 14.56774,-15.12544 19.51625,-21.34441 31.67259,-39.80404 16.30633,-24.76147 27.50559,-48.66612 35.13729,-75 7.92122,-27.33289 10.5085,-44.0349 11.30843,-73.0008 1.07743,-39.0146 -4.10837,-71.35244 -17.26825,-107.68215 -6.15298,-16.98616 -11.82714,-28.95395 -21.08154,-44.46465 -22.39633,-37.537 -52.90509,-69.44038 -89.33591,-93.41965 -33.35443,-21.95434 -71.474,-36.91568 -109.5,-42.97705 -15.48271,-2.46796 -52.85445,-3.05402 -69.70501,-1.09312 -29.04907,3.38045 -51.48971,9.51014 -78.29499,21.38638 -32.94879,14.59815 -71.31721,42.52742 -95.72747,69.68225 -28.84397,32.08704 -50.49364,70.09932 -61.26518,107.56879 -8.14657,28.33837 -11.31574,47.72949 -12.17587,74.5 -1.53456,47.76187 8.03962,91.7941 29.35383,135 16.9863,34.43283 46.25642,70.91806 74.31469,92.63334 44.64138,34.54952 88.79965,53.37475 141.5,60.32325 12.14184,1.60089 45.63822,1.90238 58,0.52204 z m -31.09315,-29.22863 c -10.24228,-16.62555 -17.61898,-22.96053 -43.90685,-37.70646 -57.53421,-32.27325 -87.2709,-56.30881 -112.63868,-91.04354 -4.58017,-6.27138 -10.67212,-15.71015 -18.66091,-28.91293 -1.42511,-2.35522 -1.54865,-2.18887 -5.16573,6.95592 -5.825,14.72692 -10.31859,16.39707 -15.36812,5.71194 -3.26516,-6.9093 -6.07953,-15.77874 -9.28291,-29.25493 -2.33953,-9.84207 -2.6663,-13.57902 -3.10423,-35.5 -0.4307,-21.55926 -0.24395,-25.94325 1.5559,-36.524 2.32896,-13.69132 6.18637,-26.7375 8.73983,-29.55904 0.95415,-1.05433 2.91235,-1.91696 4.35154,-1.91696 2.25345,0 3.88222,1.90887 11.7324,13.75 18.09218,27.29009 35.54907,43.77379 65.37168,61.72736 5.20808,3.13532 10.24672,6.67305 11.19699,7.86161 2.68747,3.36139 2.21156,7.37556 -1.2895,10.87661 -3.00569,3.0057 -3.20288,3.05207 -10.77225,2.53325 -9.09832,-0.62361 -19.11592,-3.44609 -31.36979,-8.8385 -4.88726,-2.15068 -9.07368,-3.91033 -9.30315,-3.91033 -1.12139,0 7.30759,17.70224 12.79756,26.87699 7.46083,12.46841 17.38049,23.04646 30.70937,32.74758 22.19718,16.15574 40.39367,25.6497 64,33.39184 9.7543,3.19911 29.73594,7.58098 30.60533,6.71159 0.26081,-0.2608 0.62625,-173.93129 0.4713,-223.978 l -0.0766,-24.75 h -27.1463 -27.14629 l -4.88648,4.57073 c -15.66658,14.65425 -37.99179,11.39574 -47.59893,-6.94738 -3.58583,-6.84651 -3.83114,-18.64114 -0.53701,-25.81971 4.96177,-10.81265 15.37793,-17.20242 27.88349,-17.10506 8.1709,0.0636 14.2833,2.92661 20.85878,9.77008 l 5.31473,5.53134 h 26.62901 26.629 l 0.0849,-4.75 c 0.31383,-17.54874 0.0351,-21.60334 -1.54616,-22.48823 -11.13427,-6.23105 -22.35878,-19.88843 -26.32657,-32.03277 -2.66218,-8.14822 -2.98036,-21.3597 -0.72313,-30.02581 4.93877,-18.96121 20.91285,-34.7576 39.60398,-39.16341 19.71499,-4.64715 37.99387,0.55103 52.4992,14.92982 11.05281,10.95638 15.80219,22.94943 15.65449,39.5304 -0.16233,18.22443 -8.97461,33.8503 -25.11298,44.53016 l -4.13373,2.73561 v 13.36712 13.36711 h 26.84346 26.84347 l 4.15229,-4.92438 c 13.51836,-16.03197 38.17214,-13.29018 47.96579,5.33436 2.32369,4.41894 2.67779,6.2766 2.68578,14.09002 0.008,8.22617 -0.25753,9.4729 -3.09307,14.5 -5.70995,10.12313 -16.88616,15.92314 -28.13517,14.60104 -6.76914,-0.79558 -12.20752,-3.53404 -18.25829,-9.19383 l -4.71167,-4.40721 h -27.14629 -27.1463 v 124.5 c 0,68.475 0.20216,124.5 0.44924,124.5 3.71186,0 24.27833,-5.01601 33.286,-8.11821 29.39752,-10.12437 53.39956,-24.34344 73.16623,-43.34447 10.11724,-9.72537 18.39468,-21.22891 25.57108,-35.53732 6.94912,-13.85526 7.11477,-13.46017 -3.68601,-8.79133 -11.24965,4.86287 -26.14696,8.79133 -33.33804,8.79133 -6.77721,0 -11.4485,-3.41371 -11.4485,-8.36639 0,-4.41704 2.07581,-6.96387 8.75884,-10.74631 29.45446,-16.67053 50.39517,-36.41363 70.6057,-66.56767 6.38118,-9.52071 7.62757,-10.8567 10.38206,-11.1284 2.38031,-0.23479 3.48267,0.24438 4.6011,2 4.15468,6.52168 9.44293,34.87013 10.31755,55.30877 0.93869,21.93572 -2.10421,43.39723 -9.27842,65.44046 -4.20201,12.91098 -6.2654,16.05954 -10.52448,16.05954 -2.74345,0 -3.26824,-0.60334 -6.30601,-7.25 -1.82243,-3.9875 -3.89421,-8.89782 -4.60393,-10.91182 l -1.29042,-3.66183 -7.71775,12.85453 c -18.07872,30.11153 -41.63911,55.36676 -72.44424,77.65558 -14.38664,10.40934 -17.99585,12.67118 -43.5,27.2608 -11.825,6.76448 -24.70367,14.50916 -28.61927,17.21042 -8.59549,5.92977 -18.9895,16.51948 -22.91094,23.34232 -3.28929,5.72297 -4.11235,6.46351 -7.20725,6.48469 -1.56331,0.0107 -3.02632,-1.2652 -4.85569,-4.23469 z m 10.09533,-4 c 3.55217,-6.613 15.84932,-18.86833 24.99782,-24.91281 3.85,-2.54372 16.225,-9.89385 27.5,-16.33361 38.39322,-21.92845 54.9129,-34.13944 79,-58.39511 16.63461,-16.75102 29.31973,-33.28452 39.06175,-50.9122 3.41839,-6.1854 5.64779,-9.20193 6.65156,-9 0.87057,0.17513 3.18607,4.53762 5.46896,10.30373 2.17752,5.5 4.52243,10.57903 5.21089,11.28674 2.29357,2.35768 4.50496,0.10048 7.49329,-7.64853 12.88546,-33.41309 14.93954,-74.3474 5.58297,-111.25884 -4.61815,-18.21849 -5.76509,-18.88615 -12.86768,-7.49052 -5.39756,8.66003 -16.58516,23.47094 -24.50885,32.44649 -9.63637,10.91559 -28.36973,25.99019 -43.09289,34.67654 -11.17253,6.59155 -12.88489,7.89336 -13.47492,10.24421 -1.41831,5.65102 4.39436,8.81213 13.47492,7.32808 9.67722,-1.58157 18.00008,-4.09477 27.36883,-8.2644 10.61159,-4.72276 14.29262,-5.34087 13.81494,-2.31977 -1.34133,8.48326 -24.82215,46.93634 -39.68377,64.98764 -22.49418,27.32199 -62.88188,55.43525 -109.29655,76.07964 l -17.29655,7.69319 -6.70345,-2.81733 c -11.639,-4.89164 -51.58811,-25.24842 -60.37625,-30.76578 -13.62777,-8.55578 -34.66962,-24.76999 -43.85928,-33.79663 -22.58395,-22.18333 -42.48449,-49.75452 -51.92509,-71.93959 -3.22572,-7.58034 -3.87006,-11.94114 -1.76439,-11.94114 0.70314,0 5.89053,2.02978 11.52753,4.51061 18.77426,8.26254 34.60033,11.13121 39.08359,7.0844 2.82097,-2.54635 2.75229,-7.03801 -0.13956,-9.12688 -1.2375,-0.89389 -7.425,-4.81275 -13.75,-8.70859 -26.94037,-16.59372 -45.45832,-34.74575 -63.23994,-61.99029 -3.8658,-5.92309 -7.63172,-10.76925 -8.36872,-10.76925 -1.75845,0 -3.70014,3.89933 -6.22445,12.5 -4.81057,16.39029 -5.65574,23.7603 -5.61915,49 0.0321,22.14704 0.2413,24.96925 2.70963,36.55402 4.50251,21.13197 10.48703,36.44598 14.24263,36.44598 1.61911,0 2.84319,-2.1425 6.42749,-11.25 2.43512,-6.1875 4.97966,-11.25 5.65454,-11.25 0.67488,0 2.67889,2.5875 4.45337,5.75 11.6918,20.83737 23.21838,36.18523 41.02007,54.61897 19.83096,20.53506 42.79781,37.18677 82.90876,60.11153 24.64396,14.08486 33.65135,20.1906 39.72837,26.93024 4.20971,4.66873 5.89453,7.01093 10.6744,14.83926 2.5713,4.2112 4.91755,3.49018 8.13518,-2.5 z m 11.55485,-51.10275 c 21.02411,-9.40127 26.51603,-12.1998 41.78396,-21.29194 30.0247,-17.87988 54.23503,-37.91293 70.52349,-58.35531 9.00671,-11.30362 10.07979,-13.57228 3.53258,-7.4684 -15.64988,14.59016 -38.98254,29.24992 -59.39706,37.31878 -19.24467,7.60648 -24.17692,8.9401 -52.5,14.19543 -2.475,0.45923 -8.40057,0.86179 -13.16794,0.89458 l -8.66794,0.0596 -0.42811,-7.25 c -0.23546,-3.9875 -0.48367,-57.2 -0.55157,-118.25 -0.0679,-61.05 -0.13718,-114.7125 -0.15395,-119.25 l -0.0305,-8.24999 h -9.99612 -9.99613 l -0.25387,125.25 -0.25388,125.25 -4.5,-0.31958 c -28.26533,-2.00736 -75.99717,-24.16071 -102.75,-47.68843 -2.8875,-2.53941 -5.25,-4.37256 -5.25,-4.07368 0,1.19486 18.86139,22.56753 26.43162,29.95084 17.29911,16.87195 41.28998,33.35783 68.56838,47.11835 14.36984,7.24883 38.95799,19.06924 40.55703,19.49724 0.0314,0.008 7.45636,-3.29348 16.5,-7.33749 z m 2.25117,-37.27602 4.58734,-0.62876 -0.071,-125.41466 c -0.0391,-68.97806 0.24039,-125.72606 0.621,-126.10668 0.38061,-0.38061 13.41502,-0.69857 28.96535,-0.70657 l 28.27332,-0.0146 5.9894,5.54123 c 6.63045,6.1343 11.12903,7.97072 19.44242,7.93681 21.39438,-0.0873 33.13293,-25.67247 19.97697,-43.54155 -5.96566,-8.10287 -18.5765,-12.21493 -28.81705,-9.39648 -3.6672,1.00931 -6.22494,2.78229 -11.0176,7.63722 l -6.24166,6.32281 h -28.50835 -28.50834 l -0.0912,-4.25 c -0.0502,-2.3375 -0.26828,-8.75 -0.48468,-14.25 -0.21641,-5.5 -0.0629,-10.4797 0.34122,-11.066 0.40407,-0.5863 2.75968,-2.46579 5.23468,-4.17664 23.18275,-16.02518 30.28667,-41.88524 18.39212,-66.9519 -9.9042,-20.87218 -35.36866,-33.16451 -57.77884,-27.8913 -33.91249,7.97975 -51.36338,44.88424 -35.39299,74.84777 4.28399,8.03758 10.49214,14.72851 18.77482,20.23482 6.69257,4.44921 8.4842,5.03657 24.75489,8.11557 2.19041,0.41451 2.25,0.75635 2.25,12.90673 l -2e-5,12.48095 -39.75,-4.9e-4 -39.75,-4.9e-4 -4.31774,-5.01375 c -6.34288,-7.36531 -10.90653,-9.45065 -20.68226,-9.45065 -6.2705,0 -8.86475,0.46373 -12,2.14506 -24.87855,13.34151 -16.38832,51.39163 11.44634,51.29836 8.24628,-0.0276 13.91308,-2.47323 20.34458,-8.78002 l 4.79092,-4.69802 39.51388,0.13814 c 21.73264,0.076 39.70482,0.32907 39.93818,0.56243 0.23337,0.23336 0.45297,56.5471 0.48801,125.14163 0.035,68.59454 0.31759,125.37894 0.62789,126.18757 0.61535,1.60358 10.00779,2.02716 18.6584,0.84146 z m -23.8082,-330.34721 c -9.03851,-2.32367 -17.40642,-9.36631 -19.93046,-16.77396 -4.64244,-13.6248 2.24028,-28.04202 15.81112,-33.11953 13.09719,-4.90028 25.92311,-0.50425 32.62561,11.1823 2.5796,4.49781 2.97329,6.1839 2.96238,12.68717 -0.0158,9.40443 -2.03879,14.13129 -8.47121,19.79334 -6.83488,6.0163 -15.1103,8.25835 -22.99744,6.23068 z m 14.03173,-3.47283 c 15.68528,-6.55373 20.41039,-25.08089 9.61352,-37.6946 -4.61885,-5.39609 -10.06103,-7.80945 -17.64525,-7.82486 -26.78103,-0.0544 -34.3336,34.00836 -10,45.10093 4.83796,2.2054 13.28585,2.40149 18.03173,0.41853 z m -11.53173,43.94881 c 0,-5.225 0.0347,-9.8375 0.0772,-10.25 0.11919,-1.1576 -2.01017,-1.92747 -9.07722,-3.28187 -3.575,-0.68514 -7.5125,-1.46072 -8.75,-1.7235 -2.23969,-0.47559 -2.25,-0.41996 -2.25,12.13879 l 2e-5,12.61658 h 10 10 z"
       id="path1286" />
    <path
       style="opacity:0.57;fill:#0000ff;stroke-width:53.8876"
       d="m 466.6938,838.79808 c -12.59616,-0.68714 -33.61803,-3.91591 -48.70402,-7.48051 -43.07033,-10.17688 -86.24389,-31.51304 -125.21586,-61.88105 -10.10737,-7.87595 -33.79522,-31.85429 -43.54882,-44.08289 -39.46792,-49.48302 -60.5587,-99.81811 -68.09426,-162.51325 -1.84001,-15.30865 -2.09252,-50.88295 -0.47109,-66.36667 7.53514,-71.95633 37.97661,-136.28865 88.46219,-186.94828 88.40339,-88.70813 213.64029,-116.56597 325.62549,-72.43252 11.60652,4.57414 38.08136,17.93245 48.75507,24.60016 68.50631,42.79487 116.51502,106.08351 137.91734,181.81285 6.59693,23.34242 9.78011,42.62934 11.13018,67.43791 1.90898,35.07913 -2.24445,70.19781 -12.68888,107.28868 -5.32177,18.89895 -9.57364,30.17577 -17.45156,46.28501 -28.51727,58.31379 -76.14835,108.02819 -131.50082,137.2525 -28.78023,15.19503 -54.47268,24.50521 -83.80919,30.36996 -20.96938,4.19205 -30.25758,5.38681 -49.34957,6.34795 -16.36039,0.82362 -20.82626,0.86821 -31.0562,0.31015 z m 46.79701,-27.55174 c 51.334,-4.56806 104.08999,-26.14625 146.77243,-60.03269 11.55628,-9.17475 31.43187,-28.58809 40.70309,-39.75642 36.82769,-44.36353 59.09655,-98.45557 64.33585,-156.27454 0.48766,-5.38166 0.88796,-17.54914 0.88956,-27.03884 0.0123,-72.95576 -25.34739,-138.98201 -73.76588,-192.05625 -16.64927,-18.2502 -32.20644,-31.70048 -52.16409,-45.09958 -36.1006,-24.23711 -73.47122,-39.21692 -112.30643,-45.01743 -42.17827,-6.29983 -86.34428,-2.8966 -124.65022,9.60497 -53.62458,17.50098 -105.93514,55.31548 -140.89149,101.84831 -28.23097,37.58021 -44.29642,76.06408 -53.60769,128.41416 -1.63019,9.16533 -1.82072,13.4321 -1.86174,41.69188 -0.0504,34.71462 0.66023,43.14173 5.38111,63.8141 15.73957,68.92239 55.33669,128.8527 111.4249,168.64185 40.95222,29.05164 85.62683,46.2571 133.15876,51.28324 5.14767,0.54432 10.12517,1.13128 11.06111,1.30433 2.88881,0.53414 35.18606,-0.40743 45.52073,-1.32709 z"
       id="path1460" />
    <path
       style="opacity:0.57;fill:#0000ff;stroke-width:53.8876"
       d="m 487.32703,686.50166 c -0.84057,-0.33918 -1.06357,-17.68969 -1.06357,-82.75123 0,-45.27713 -0.25372,-101.88827 -0.56381,-125.80253 l -0.56381,-43.48048 -39.63908,-0.26576 -39.63907,-0.26577 -5.02385,4.45471 c -6.68933,5.93152 -11.51552,8.18334 -18.39331,8.582 -6.79348,0.39376 -11.2014,-0.72153 -16.36241,-4.14004 -16.42149,-10.87714 -14.31324,-36.76089 3.74456,-45.97329 2.87324,-1.46582 5.10146,-1.83985 10.96047,-1.83985 9.42562,0 13.24918,1.65721 19.81695,8.58905 l 4.95266,5.22721 h 40.35535 40.35535 l -0.009,-9.57212 c -0.0135,-13.85461 -0.44015,-15.74039 -3.71083,-16.40387 -13.14993,-2.66757 -17.59144,-4.09893 -22.33356,-7.19744 -7.85236,-5.13073 -12.64152,-9.74033 -17.19862,-16.55375 -5.59727,-8.36859 -7.85319,-15.11533 -8.40902,-25.14862 -0.53509,-9.65879 0.82474,-16.04914 5.43157,-25.52505 4.2243,-8.68906 14.3502,-18.88412 23.04098,-23.19835 19.6823,-9.77058 41.85572,-6.50229 58.16156,8.57282 6.84654,6.32978 10.86877,12.59412 13.91707,21.67485 7.31936,21.80399 0.58178,42.15371 -19.10528,57.7043 l -7.66229,6.05236 v 7.00903 c 0,3.85496 0.24877,10.51381 0.55283,14.79744 l 0.55285,7.7884 h 28.91981 28.91982 l 6.51176,-6.2213 c 7.46158,-7.12875 11.47149,-8.79628 19.22758,-7.99578 5.24616,0.54145 12.30321,3.49778 16.18081,6.77843 4.57085,3.86718 7.44535,10.33847 7.87289,17.72405 0.49321,8.51977 -1.22572,13.77068 -6.38727,19.51156 -5.87775,6.53747 -9.32389,8.03389 -18.54189,8.05147 -9.29726,0.0177 -12.02084,-1.13364 -19.72123,-8.33699 l -5.38783,-5.04003 -28.92463,0.6289 -28.92465,0.6289 V 560.28325 686.0016 l -2.65892,0.53178 c -3.10374,0.62075 -17.69317,0.59671 -19.25058,-0.0317 z m 8.33392,-330.35517 c 5.62548,-2.13751 11.28718,-6.84278 14.18636,-11.78986 1.99589,-3.40573 2.3683,-5.11396 2.65138,-12.16177 0.27275,-6.79067 0.0419,-8.8493 -1.3436,-11.98143 -4.96832,-11.23171 -16.05375,-17.06663 -28.61052,-15.0594 -9.29807,1.48632 -16.70355,6.86921 -20.70665,15.05125 -4.33293,8.8562 -2.80023,21.01147 3.47052,27.52338 8.81196,9.15085 20.14876,12.29495 30.35251,8.41783 z"
       id="path1499" />
    <path
       style="opacity:0.57;fill:#0000ff;stroke-width:53.8876"
       d="m 480.35768,773.16039 c -2.34546,-3.65636 -6.86644,-9.15991 -10.04663,-12.23013 -6.86948,-6.63193 -13.59297,-11.09129 -40.204,-26.66533 -37.55139,-21.97686 -55.84286,-35.07872 -74.76667,-53.55408 -18.57633,-18.13612 -30.94166,-33.56177 -42.64997,-53.20551 -5.60457,-9.40311 -7.43349,-11.91197 -8.68367,-11.91197 -0.70583,0 -3.30092,5.18144 -8.62943,17.22981 -1.20577,2.72637 -2.71241,4.89241 -3.40303,4.89241 -4.7164,0 -14.30934,-31.60021 -16.01433,-52.75299 -1.13532,-14.08526 -0.39443,-42.84819 1.35884,-52.75299 1.57102,-8.87524 6.8541,-25.80461 8.47166,-27.14707 1.38792,-1.15187 3.21009,0.95745 11.34939,13.13789 16.11974,24.12313 32.21443,39.81897 58.09199,56.65239 17.24283,11.21649 18.71881,12.35861 18.71881,14.48471 0,9.26876 -14.53612,8.31702 -40.84333,-2.67418 -5.59911,-2.33932 -10.76078,-4.25331 -11.47036,-4.25331 -3.22501,0 -0.0904,10.76683 6.93601,23.82393 7.39236,13.73713 17.08679,27.60713 30.00644,42.93076 18.74129,22.2285 45.57909,43.89992 71.95307,58.10184 15.02195,8.08905 39.1907,20.14527 48.33775,24.11255 l 7.512,3.25814 11.31952,-5.00801 c 55.46179,-24.53755 97.92644,-54.70397 121.00082,-85.95767 16.23602,-21.99131 34.32842,-52.79737 34.32842,-58.45126 0,-2.92327 -2.89831,-2.55218 -13.90116,1.77986 -12.80777,5.04267 -15.9556,6.04541 -24.27334,7.73227 -10.41935,2.11305 -16.2802,0.43198 -16.2802,-4.66966 0,-2.85541 1.47474,-4.10787 13.61367,-11.56176 27.15198,-16.67262 46.7258,-36.072 67.09721,-66.49922 2.89813,-4.32872 5.63352,-7.8704 6.07863,-7.8704 1.66655,0 3.42828,4.18001 5.92818,14.06572 4.44823,17.59018 5.53179,26.9111 5.53602,47.62124 0.004,20.60663 -1.10537,30.02128 -5.51533,46.79701 -4.26992,16.24301 -8.29252,25.42954 -10.91402,24.92468 -0.76124,-0.14661 -3.31021,-4.72165 -6.06568,-10.88707 -3.57897,-8.00798 -5.13734,-10.63419 -6.31022,-10.63419 -1.09308,0 -3.70073,3.55219 -8.74455,11.91196 -15.93293,26.40776 -37.42447,50.53568 -64.19748,72.07263 -10.24124,8.23834 -23.17614,16.93159 -39.90002,26.81588 -44.60612,26.36352 -42.40486,24.92547 -51.63164,33.73015 -4.83795,4.61662 -10.37725,10.8385 -12.30956,13.82639 -2.20446,3.40872 -4.09183,5.43252 -5.06631,5.43252 -1.00709,0 -3.05213,-2.33696 -5.8175,-6.64794 z"
       id="path1538" />
    <path
       style="opacity:0.57;fill:#0000ff;stroke-width:53.8876"
       d="m 466.43494,722.00049 c -44.99789,-21.56043 -71.11148,-38.8281 -92.90973,-61.4368 -10.10016,-10.47567 -18.78036,-20.29553 -17.94011,-20.29553 0.28689,0 2.71781,1.79179 5.40202,3.98176 19.0849,15.57078 55.15529,33.7303 78.90476,39.72434 6.4143,1.61888 20.06453,3.94176 23.16347,3.94176 0.12926,0 0.23503,-16.78353 0.23503,-37.29671 0,-20.5132 0.25464,-76.98868 0.56588,-125.50107 l 0.56588,-88.20435 h 9.11441 9.11443 l 0.5575,124.01207 c 0.30663,68.20664 0.76334,125.30677 1.01493,126.88918 l 0.45741,2.87712 10.78886,-0.60387 c 11.70676,-0.65525 34.3045,-4.88304 46.30258,-8.66272 26.09268,-8.2198 52.75893,-22.82921 72.33211,-39.628 2.69083,-2.30942 4.89242,-3.92783 4.89242,-3.59646 0,1.02613 -9.44059,12.36445 -16.14391,19.38914 -17.78364,18.63618 -50.6002,42.02648 -78.67443,56.07589 -7.46938,3.73797 -37.78497,17.70132 -38.2919,17.63723 -0.0267,-0.003 -8.77991,-4.18971 -19.45161,-9.30298 z"
       id="path1994" />
    <path
       style="opacity:0.57;fill:#0000ff;stroke-width:53.8876"
       d="m 464.14124,394.29636 v -11.98675 l 3.61613,0.60885 c 1.98887,0.33486 6.10488,1.23001 9.14669,1.98921 l 5.53055,1.38036 0.23972,9.99754 0.23971,9.99755 h -9.3864 -9.3864 z"
       id="path2033" />
  </g>
</svg>
