<?xml version="1.0" encoding="UTF-8" standalone="no"?>
<!-- Created with Inkscape (http://www.inkscape.org/) -->

<svg
   version="1.1"
   id="svg2146"
   width="1024"
   height="1024"
   viewBox="0 0 1024 1024"
   sodipodi:docname="Baum.svg"
   inkscape:version="1.1 (c68e22c387, 2021-05-23)"
   xmlns:inkscape="http://www.inkscape.org/namespaces/inkscape"
   xmlns:sodipodi="http://sodipodi.sourceforge.net/DTD/sodipodi-0.dtd"
   xmlns="http://www.w3.org/2000/svg"
   xmlns:svg="http://www.w3.org/2000/svg">
  <defs
     id="defs2150" />
  <sodipodi:namedview
     id="namedview2148"
     pagecolor="#505050"
     bordercolor="#eeeeee"
     borderopacity="1"
     inkscape:pageshadow="0"
     inkscape:pageopacity="0"
     inkscape:pagecheckerboard="0"
     showgrid="false"
     inkscape:zoom="0.41552734"
     inkscape:cx="-90.246768"
     inkscape:cy="638.94712"
     inkscape:window-width="1920"
     inkscape:window-height="1111"
     inkscape:window-x="-9"
     inkscape:window-y="-9"
     inkscape:window-maximized="1"
     inkscape:current-layer="g2152" />
  <g
     inkscape:groupmode="layer"
     inkscape:label="Image"
     id="g2152">
    <path
       style="fill:#000000"
       d="M 464.24735,822.9911 C 449.23382,821.81077 424.12501,817.08119 407.84547,812.36707 355.52245,797.21569 310.60949,770.80867 272.71818,732.91764 218.00363,678.20348 186.58726,604.87308 184.07008,526 c -0.56039,-17.55916 0.48127,-38.2068 2.64857,-52.5 0.50039,-3.3 1.41743,-9.6 2.03788,-14 4.92973,-34.96003 27.61847,-90.16577 49.31823,-120 11.47136,-15.77157 24.24816,-30.72408 36.84243,-43.11616 16.16977,-15.91019 22.5374,-21.27052 39.9202,-33.60517 77.66446,-55.10988 173.02194,-70.77519 263.40996,-43.27293 53.97258,16.42217 107.55003,51.25978 143.85053,93.53579 26.72252,31.12137 45.052,63.5262 58.80311,103.95847 16.27332,47.84825 20.22056,101.21696 11.35313,153.5 -2.73161,16.10582 -11.60233,47.55353 -17.38564,61.63414 -25.36106,61.74645 -71.06322,114.72071 -127.48764,147.77337 -39.53386,23.1584 -83.99892,37.77656 -129.52016,42.58053 -14.66799,1.54795 -37.58711,1.763 -53.61333,0.50306 z m 47.41471,-2.47992 c 16.59179,-1.59614 20.9694,-2.26516 39.87025,-6.09321 20.37269,-4.12614 61.41213,-17.81245 59.50788,-19.84537 -0.43606,-0.46553 -0.11784,-0.6243 0.70716,-0.35283 2.55318,0.84014 30.66353,-13.89647 48.5,-25.42571 36.69432,-23.71869 74.60641,-65.1596 97.25356,-106.30583 13.81671,-25.10274 25.17788,-56.44823 31.16645,-85.98823 5.10291,-25.1713 6.98075,-67.68046 4.15245,-94 -5.4166,-50.4056 -25.55034,-104.01932 -53.88906,-143.5 -41.54564,-57.88019 -99.16153,-98.83824 -166.6834,-118.4921 -30.80714,-8.96715 -54.54536,-11.94135 -89.5,-11.21358 -26.15159,0.54449 -41.37542,2.49745 -65,8.3384 -40.43562,9.99733 -83.36649,31.81293 -119,60.47063 -9.2849,7.46723 -29.05949,26.30208 -36.24182,34.51952 -10.61581,12.14573 -32.73727,42.35912 -31.03865,42.39244 0.42926,0.008 0.29152,0.34592 -0.3061,0.75 -1.60616,1.08602 -6.74445,10.23214 -5.75845,10.25 0.46476,0.008 0.29489,0.36484 -0.37749,0.79203 -1.9041,1.20976 -12.51808,23.39432 -17.55524,36.69266 -8.90902,23.52023 -14.67861,45.11521 -17.23264,64.5 -4.06766,30.87302 -4.71664,39.51233 -4.09403,54.5 2.53093,60.92546 19.03178,114.30528 49.85062,161.26541 12.57376,19.15925 22.01612,30.66462 39.17536,47.73459 31.0853,30.92359 65.98851,53.57997 107.57844,69.83135 19.22497,7.51221 49.93399,15.43438 66.15721,17.06693 2.38853,0.24036 8.16779,0.92181 12.84279,1.51433 18.41935,2.33452 30.37878,2.47793 49.91471,0.59857 z M 342.12103,746.09252 C 300.60246,719.65815 269.33226,685.20804 247.83768,642.22136 231.59357,609.73501 222.20917,576.57226 218.7696,539.5 c -2.64051,-28.45989 0.29526,-65.14308 7.48454,-93.52122 15.40545,-60.8097 52.35137,-115.19602 104.47873,-153.79814 22.15967,-16.41001 50.33192,-31.05241 78.32317,-40.70812 5.60522,-1.93355 10.86631,-3.79987 11.69131,-4.14738 0.825,-0.34751 1.95,-0.71929 2.5,-0.82617 0.55,-0.10689 1.225,-0.29389 1.5,-0.41556 0.275,-0.12166 1.625,-0.37573 3,-0.56459 1.375,-0.18886 8.575,-1.51127 16,-2.93868 19.83766,-3.81366 33.9483,-4.89942 54,-4.15508 41.85868,1.55383 75.76901,10.84078 116.37836,31.87229 31.19483,16.15575 57.69491,36.95468 81.19877,63.7299 16.24612,18.50732 28.3942,36.80295 40.48517,60.97275 2.88895,5.775 5.63458,10.65093 6.1014,10.83541 0.46682,0.18448 0.5944,0.74698 0.28351,1.25 -0.31088,0.50302 -0.10281,0.91459 0.46239,0.91459 0.5652,0 0.76861,0.675 0.45203,1.5 -0.31659,0.825 -0.0775,1.5 0.53138,1.5 0.60885,0 1.02127,0.3375 0.91649,0.75 -0.38767,1.52626 1.37964,7.25 2.23857,7.25 0.48904,0 0.60181,0.74882 0.25061,1.66404 -0.45402,1.18315 -0.26949,1.43596 0.63852,0.87478 0.95687,-0.59139 1.09798,-0.22503 0.5628,1.46118 -0.53518,1.68621 -0.39407,2.05257 0.5628,1.46118 0.90801,-0.56118 1.09254,-0.30837 0.63852,0.87478 -0.35167,0.91645 -0.15532,1.66404 0.43705,1.66404 0.59159,0 0.80762,0.69837 0.48007,1.55194 -0.37322,0.9726 -0.18651,1.29915 0.50015,0.87477 0.73146,-0.45207 0.87146,0.0293 0.42116,1.44806 -0.41727,1.3147 -0.24174,2.12523 0.46025,2.12523 0.6797,0 0.88021,0.80205 0.5,2 -0.35594,1.12148 -0.1797,2 0.40123,2 0.5698,0 0.77698,0.675 0.4604,1.5 -0.31659,0.825 -0.0825,1.5 0.52018,1.5 0.60268,0 1.02745,1.0125 0.94393,2.25 -0.18175,2.69304 2.92525,16.50613 4.28286,19.04068 0.52753,0.98487 0.71989,2.17782 0.42745,2.65099 -0.29244,0.47317 0.2298,4.61737 1.16052,9.20932 2.51026,12.38499 2.51588,66.40093 0.009,83.34901 -3.32815,22.49745 -10.87157,47.67998 -21.36347,71.31865 -3.56671,8.03595 -6.56523,15.07669 -6.66336,15.64608 -0.0981,0.5694 -0.44216,1.26027 -0.7645,1.53527 -0.82518,0.70399 -7.79495,13.33973 -7.86018,14.25 -0.0296,0.4125 -0.76265,1.5375 -1.6291,2.5 -0.86645,0.9625 -4.07982,5.575 -7.14084,10.25 -6.49217,9.9153 -18.21911,24.60696 -24.677,30.91565 -2.48604,2.42861 -4.28803,4.79111 -4.00442,5.25 0.28361,0.45889 -0.10171,0.83435 -0.85627,0.83435 -0.75456,0 -2.69362,1.41184 -4.30902,3.13742 -5.91534,6.31881 -24.92151,21.99799 -34.79455,28.70384 -18.29486,12.42602 -9.58929,11.21334 -78.36814,10.91662 L 508.24735,751.5 507.94543,710 l -0.30193,-41.5 -8.47069,-5.76059 -8.47069,-5.76058 -8.97738,6.03638 -8.97739,6.03638 V 710.52579 752 l -60.75,-0.0484 -60.75,-0.0484 -9.12632,-5.81062 z m 125.50132,3.28248 3.125,-0.625 v -38.98199 c 0,-36.73341 -0.10094,-38.94044 -1.75,-38.26175 -31.19191,12.83742 -53.04479,17.39221 -87.38576,18.21378 -31.347,0.74995 -50.42196,-1.56141 -55.35185,-6.70711 -3.44778,-3.59871 -3.82365,-9.77967 -0.83791,-13.77875 1.98968,-2.66496 2.84837,-3.00554 19.32552,-7.66511 19.04568,-5.38592 36.9324,-16.18165 49.95079,-30.14837 l 6.45079,-6.9207 -36.29652,-0.5 -36.29653,-0.5 -2.3993,-3 c -3.45603,-4.3213 -3.31108,-10.48069 0.34077,-14.48039 2.13308,-2.33627 5.10433,-3.70423 13.24474,-6.09789 12.19229,-3.5851 25.39906,-9.8869 34.84919,-16.62876 7.32036,-5.22246 20.18479,-17.50239 22.04457,-21.04296 l 1.18187,-2.25 h -26.08064 -26.08064 l -2.41388,-2.41388 c -2.92222,-2.92222 -3.92628,-6.47476 -3.08996,-10.93276 0.86205,-4.59511 3.90128,-7.0187 12.09475,-9.6448 10.5595,-3.38444 26.16772,-11.27321 33.83731,-17.10218 8.02419,-6.09848 20.87153,-18.43419 22.5585,-21.66014 l 1.17858,-2.25376 -20.32202,0.65542 c -11.17711,0.36048 -21.94341,0.35124 -23.92512,-0.0205 -7.08341,-1.32886 -11.16243,-8.53822 -8.4527,-14.93956 1.89897,-4.48605 4.09902,-6.09786 12.34359,-9.04319 15.5411,-5.55197 28.37204,-13.82985 39.51384,-25.49232 6.60449,-6.91316 16.76802,-19.96262 16.76802,-21.52932 0,-0.34266 -7.385,-0.62301 -16.41111,-0.62301 h -16.4111 l -2.5889,-3.07673 c -3.00003,-3.56533 -3.53163,-10.13231 -1.10111,-13.60236 0.81828,-1.16825 4.98078,-3.56161 9.25,-5.31856 16.21868,-6.67462 30.29627,-17.50125 40.09725,-30.83753 8.31192,-11.31011 8.45039,-10.66482 -2.28854,-10.66482 -10.23901,0 -13.25337,-1.04091 -15.87717,-5.48266 -4.14773,-7.02155 -1.26661,-12.68736 9.10758,-17.91032 19.05511,-9.59342 35.66848,-26.55624 48.68745,-49.71158 5.0226,-8.93312 6.8144,-10.94664 10.53565,-11.83937 3.97189,-0.95286 8.16872,2.401 11.94638,9.54682 12.50637,23.65706 29.60952,41.10605 50.70202,51.72727 7.84225,3.949 10.3516,7.07166 10.3516,12.88162 0,3.57632 -0.5697,5.01177 -2.92308,7.36514 C 555.94418,360.95702 555.73778,361 544.78701,361 h -11.11418 l 4.18433,6.25 c 5.40975,8.08038 20.95471,23.31569 28.14108,27.58052 3.08662,1.83179 9.35537,4.92308 13.93057,6.86953 10.42956,4.43711 12.88509,6.71076 13.54202,12.53899 0.44042,3.90747 0.13388,4.88905 -2.41918,7.74642 l -2.92352,3.27198 -16.69039,-0.14859 c -9.17971,-0.0817 -16.69039,0.12431 -16.69039,0.45785 0,1.57655 10.59877,15.64151 16.21089,21.51246 10.69936,11.1928 24.03494,19.71501 42.05253,26.87401 11.37982,4.5216 13.73981,11.77934 6.4373,19.79683 -2.0136,2.21075 -2.45722,2.25 -25.43157,2.25 h -23.38222 l 1.80653,3.08505 c 2.71672,4.63937 18.38307,19.36085 25.51987,23.98071 7.42542,4.80669 18.11169,9.96099 25.78667,12.43765 12.87888,4.15592 17,7.54895 17,13.99659 0,3.37262 -2.50087,8.1625 -4.94461,9.47036 -1.13192,0.60578 -10.49283,1.05336 -22.73965,1.08727 -11.44866,0.0317 -22.51238,0.3692 -24.58604,0.75 l -3.7703,0.69237 4.7703,5.73205 c 12.25141,14.72142 32.53891,27.29146 53.7703,33.31581 3.3,0.93637 7.22988,2.32878 8.73307,3.09424 6.47,3.29469 7.34428,13.01141 1.60525,17.84049 L 650.5939,624 h -35.49137 -35.49137 l 2.08965,2.93463 c 4.1218,5.78854 13.96731,14.95096 21.60029,20.10164 10.64026,7.17997 20.17212,11.39529 34.88682,15.42814 6.8591,1.87987 13.36789,3.8979 14.46397,4.4845 3.24127,1.73467 5.09759,5.22601 5.06366,9.5236 -0.0539,6.82807 -3.02244,9.16611 -14.15562,11.14911 -11.62997,2.07149 -57.13478,3.01368 -69.15908,1.43195 -19.30733,-2.53976 -47.89927,-10.14158 -58.77639,-15.62705 l -4.62289,-2.33139 -0.4656,37.70244 c -0.25609,20.73634 -0.28341,38.21732 -0.0607,38.84663 0.60842,1.7194 30.55864,2.57324 76.7721,2.18867 45.38751,-0.3777 39.90058,0.61678 56,-10.1498 23.80247,-15.91804 49.33248,-40.51275 65.1339,-62.74769 18.83439,-26.50278 33.21081,-57.16946 43.29476,-92.35305 3.80574,-13.27848 4.84423,-18.52901 6.63295,-33.5357 8.25956,-69.29489 -6.40657,-131.29588 -44.85759,-189.63513 -9.68782,-14.6987 -31.13554,-38.4626 -48.20646,-53.41235 C 648.26544,293.12946 629.83175,281.03106 607.24735,269.93418 565.48097,249.41219 531.50422,241 490.38255,241 c -41.86985,0 -77.00956,8.607 -117.1352,28.69069 -18.06373,9.04126 -32.89998,18.54339 -48.99757,31.38133 -58.22152,46.43206 -93.02195,108.83823 -101.99205,182.89812 -1.72873,14.27294 -1.99165,46.05772 -0.49241,59.52986 2.69115,24.18282 9.268,52.28881 16.61272,70.99406 5.80714,14.78941 18.72749,40.29085 26.09557,51.50594 20.92008,31.84281 50.78281,60.80276 81.60755,79.14046 l 8.16619,4.85809 55.125,7.2e-4 c 30.31875,4e-4 56.53125,-0.28052 58.25,-0.62427 z m -57.88528,-63.85098 c 15.39942,-2.23686 36.01699,-7.62018 49.48382,-12.92042 6.06455,-2.38687 11.70146,-4.58202 12.52646,-4.87811 0.825,-0.29609 5.08804,-3.05546 9.47343,-6.13192 4.38539,-3.07646 8.57975,-5.59357 9.3208,-5.59357 0.74106,0 4.12802,1.97137 7.52658,4.38082 19.15631,13.58113 49.99563,23.45576 83.51188,26.74019 20.37082,1.99624 62.87439,-0.59201 69.86947,-4.25469 2.85348,-1.49411 4.50904,-6.18061 3.3035,-9.35144 -1.17464,-3.08954 -4.24412,-4.96969 -10.50566,-6.43502 -9.87581,-2.31116 -24.1266,-7.32462 -30.89376,-10.8685 -12.92195,-6.76708 -27.76644,-19.06302 -34.17038,-28.30392 -4.91807,-7.09678 -5.87867,-6.90559 34.78276,-6.92275 19.95476,-0.008 36.77651,-0.34592 37.38168,-0.75 1.70258,-1.13685 3.3997,-4.85409 3.3997,-7.44644 0,-4.64498 -2.5701,-6.48662 -14.29649,-10.24433 -12.93949,-4.14645 -26.71839,-10.8189 -34.70351,-16.80522 -12.00541,-9.00027 -24,-21.9388 -24,-25.88874 0,-1.75167 1.35728,-1.84996 25.54545,-1.84996 h 25.54546 l 2.45454,-2.45455 c 2.95511,-2.9551 3.28763,-8.33549 0.70455,-11.40015 -0.9625,-1.14195 -6.21316,-3.67476 -11.66814,-5.62847 -19.68498,-7.0502 -34.66703,-16.47792 -46.77222,-29.43222 -7.19443,-7.69908 -10.32093,-12.4483 -9.29149,-14.11398 0.35893,-0.58075 9.59492,-0.97063 22.99381,-0.97063 23.78056,0 26.4558,-0.43906 28.37777,-4.65732 2.84149,-6.2364 0.30734,-9.7859 -9.94417,-13.92847 -17.51186,-7.07644 -30.26062,-15.62554 -42.02773,-28.18306 -8.30035,-8.8579 -16.3491,-20.66489 -15.53441,-22.78795 0.45143,-1.1764 3.58495,-1.4432 16.95034,-1.4432 15.07372,0 16.60909,-0.16721 19.03138,-2.07258 2.01029,-1.5813 2.63486,-2.96222 2.63486,-5.82569 0,-4.75023 -2.40843,-7.07626 -10.85471,-10.48334 -15.57386,-6.28221 -28.1462,-15.69922 -39.07838,-29.27072 -6.532,-8.10899 -10.81204,-14.93587 -9.92193,-15.82599 0.2565,-0.2565 5.76795,-0.59131 12.24766,-0.74402 11.51816,-0.27146 11.83519,-0.34033 14.19433,-3.08342 4.75649,-5.53064 1.89138,-11.1459 -8.25217,-16.17322 -7.90729,-3.91899 -21.30168,-13.59039 -27.51655,-19.86829 -7.24131,-7.31474 -14.83906,-17.65269 -21.05526,-28.649 -7.99549,-14.14385 -11.24569,-15.18822 -17.26299,-5.54704 -19.50544,31.25248 -32.82545,45.21384 -52.5,55.02782 -7.79652,3.88903 -9,5.18824 -9,9.71593 0,2.79729 0.6897,4.58017 2.45455,6.34501 2.29396,2.29397 3.14056,2.45455 12.94098,2.45455 6.25469,0 10.74869,0.42433 11.1363,1.0515 1.69741,2.74647 -13.80339,22.9 -23.79024,30.93114 -3.43288,2.76062 -12.218,7.99945 -19.5225,11.64184 -7.30451,3.64239 -13.71701,7.43737 -14.25,8.43328 -1.63763,3.05993 -1.08472,6.52542 1.48316,9.29622 L 394.65185,423 h 17.04775 c 19.58796,0 19.27477,-0.19408 13.566,8.40654 -14.25136,21.47059 -34.84837,37.38832 -58.28742,45.04556 -3.85029,1.25784 -5.66793,2.49248 -6.75,4.58497 -2.15077,4.15914 -1.82145,7.71322 0.97372,10.50838 L 363.65644,494 h 23.98644 c 15.19868,0 24.21699,0.37305 24.61574,1.01824 1.08963,1.76305 -3.17548,7.37292 -12.27401,16.14393 -14.07955,13.57273 -28.07966,22.08207 -45.73726,27.79937 -3.85,1.24658 -8.1025,3.32792 -9.45,4.62521 -3.27885,3.15667 -3.31249,8.44049 -0.0757,11.88591 L 347.09597,558 h 26.82568 c 21.8533,0 26.8257,0.25023 26.8257,1.34996 0,2.00787 -5.62098,9.39389 -11.40425,14.98529 -13.41732,12.97217 -28.95168,21.92293 -48.74274,28.08513 -6.40584,1.99455 -12.16511,4.25076 -12.79839,5.0138 -2.32876,2.80599 -2.36741,7.89845 -0.082,10.80388 l 2.15326,2.73743 36.6736,0.26225 c 32.23619,0.23053 36.70979,0.45031 36.97267,1.8164 0.5038,2.61811 -10.77578,14.95667 -20.24327,22.14383 -13.91826,10.56591 -29.42901,17.57547 -48.28612,21.82128 -8.12766,1.83 -11.64794,8.10187 -7.70615,13.72956 1.80834,2.58176 5.71912,3.7089 17.96339,5.17727 4.95,0.59362 10.125,1.2715 11.5,1.50639 5.68282,0.97083 42.22903,-0.3454 52.98972,-1.90845 z m 13.01028,-33.23346 c -5.0762,-1.86648 -7.02387,-7.33065 -4.50501,-12.63876 1.76429,-3.71796 4.43633,-5.30257 18.00501,-10.67753 9.05839,-3.5883 24.26632,-12.35108 31.88587,-18.37256 2.81277,-2.22285 8.48913,-7.31445 12.61413,-11.31467 4.125,-4.00022 8.32088,-7.27626 9.32419,-7.28009 1.0033,-0.004 6.1783,3.93902 11.5,8.76186 18.17467,16.47101 26.66951,21.93351 46.88272,30.14739 9.83214,3.9954 12.10666,5.3278 13.67892,8.01299 2.72391,4.65204 0.92306,10.479 -3.95793,12.80658 -3.29971,1.57353 -3.84038,1.54411 -11.19751,-0.60923 -16.74976,-4.90245 -36.76173,-16.32922 -49.78456,-28.42681 l -6.87576,-6.38726 -5.01427,4.93579 c -8.67465,8.5389 -17.62906,14.66085 -31.0558,21.23221 -17.0013,8.32084 -27.04412,11.44849 -31.5,9.81009 z m 11.87222,-3.32675 c 20.27857,-6.65711 38.55232,-17.452 50.58073,-29.87966 2.17412,-2.24628 4.35513,-4.08415 4.84668,-4.08415 0.49155,0 3.88773,2.74504 7.54705,6.10008 7.95796,7.29624 19.70896,15.25442 30.65332,20.75946 8.84879,4.45096 22.34873,9.14046 26.31319,9.14046 5.67251,0 9.27453,-7.66416 5.77195,-12.2812 -0.74319,-0.97967 -5.30103,-3.37388 -10.12852,-5.32049 -21.3032,-8.59014 -33.24059,-16.1956 -50.72196,-32.31558 C 494.66107,596.63723 490.45044,593 490.12504,593 c -0.3254,0 -5.09004,4.27723 -10.58808,9.50497 -14.60625,13.88812 -35.40267,26.69316 -50.50097,31.0951 -8.8714,2.58647 -13.15092,10.53765 -8.28864,15.39993 2.53565,2.53565 6.06607,2.52644 13.87222,-0.0362 z m -14.86283,-63.80058 c -2.20631,-2.2063 -3.00939,-3.94904 -3.00939,-6.53054 0,-5.34742 3.21684,-8.21091 13.5,-12.01714 20.01724,-7.40921 32.19077,-15.1108 47.13804,-29.82192 8.1553,-8.02645 11.69294,-10.87257 13.21012,-10.62785 1.13963,0.18382 6.47751,4.66743 11.86195,9.96357 16.05724,15.79394 27.50217,23.20563 46.78989,30.30093 11.34073,4.17188 14.5,6.83055 14.5,12.20241 0,4.85413 -4.49342,9.36731 -9.3263,9.36731 -5.1866,0 -23.06772,-6.48976 -32.1737,-11.6771 -10.07311,-5.73828 -17.29148,-11.07653 -25.24811,-18.67188 -5.67157,-5.41404 -6.40977,-5.82951 -8,-4.50243 -0.96354,0.80409 -4.22689,3.63466 -7.25189,6.29016 -14.94009,13.11514 -38.87421,25.36801 -54.74061,28.02401 -3.842,0.64314 -4.52349,0.42699 -7.25,-2.29953 z m 15.74523,-1.7169 c 19.89972,-6.68012 34.61774,-15.26877 48.93664,-28.55681 2.30519,-2.13924 4.9382,-3.88952 5.85113,-3.88952 0.91293,0 4.84939,2.953 8.74768,6.56222 12.87139,11.91693 27.30332,20.32115 44.59324,25.96821 9.22798,3.01396 13.44931,3.13695 16.11669,0.46957 2.71301,-2.71301 3.02044,-8.27255 0.59646,-10.78622 -0.68218,-0.70742 -5.02581,-2.6392 -9.65252,-4.29284 C 530.88597,561.84229 516.81356,552.78891 500.8419,536.8507 495.41264,531.43282 490.67678,527 490.31777,527 c -0.35901,0 -5.26715,4.682 -10.90698,10.40444 -14.55294,14.76612 -29.1037,23.74121 -51.97258,32.05733 -2.64503,0.96185 -5.68253,2.68629 -6.75,3.83209 -4.17136,4.47742 -1.17106,12.70614 4.63282,12.70614 1.41553,0 5.99695,-1.14915 10.18094,-2.55367 z m -5.45981,-60.62088 c -4.04451,-1.08446 -6.29481,-4.25208 -6.29481,-8.86087 0,-4.85214 3.25582,-7.76124 14.43908,-12.9014 17.23144,-7.92009 29.74754,-17.61942 45.56842,-35.31318 2.41168,-2.69717 5.12018,-4.75 6.26714,-4.75 1.2568,0 6.2145,4.29371 13.12264,11.36511 13.42415,13.7414 24.61525,22.08152 38.60272,28.7685 5.775,2.76085 11.5125,5.96367 12.75,7.11737 4.15051,3.86947 2.41964,11.74675 -3.16641,14.41055 -3.30543,1.57625 -3.747,1.54758 -9.77272,-0.63453 -14.55417,-5.27053 -30.32819,-15.29466 -44.00738,-27.96597 -7.16007,-6.63252 -7.771,-6.99025 -8.76523,-5.13252 -0.58779,1.0983 -4.77436,5.10817 -9.30349,8.91081 -19.29897,16.20336 -41.10141,27.22195 -49.43996,24.98613 z m 15.94375,-5.38159 c 11.40802,-4.99925 26.57267,-15.25755 36.15675,-24.45865 l 8.4408,-8.1035 6.33194,6.15594 c 13.95517,13.56727 38.52269,28.90196 49.03703,30.6082 4.90169,0.79544 8.79492,-2.56707 8.79492,-7.59599 0,-2.09273 -0.63508,-4.33204 -1.4113,-4.97624 -0.77621,-0.6442 -6.73871,-3.81022 -13.25,-7.03558 -14.90721,-7.38429 -22.8059,-13.29751 -37.60494,-28.15227 -7.62262,-7.65132 -12.27969,-11.61351 -13.22425,-11.25105 -0.80191,0.30772 -4.66494,4.33685 -8.58451,8.95362 -3.91958,4.61677 -9.21866,10.13983 -11.77575,12.27346 -7.49153,6.25092 -21.10849,14.72014 -31.23805,19.42885 -5.17616,2.40612 -10.0487,5.14903 -10.82787,6.09534 -2.39856,2.91311 -1.75912,7.63597 1.402,10.35505 3.48191,2.99502 6.59631,2.59203 17.75323,-2.29718 z M 435.2019,457.54545 c -1.75785,-1.75784 -2.45455,-3.5497 -2.45455,-6.3129 0,-4.57558 2.49355,-7.2519 11.25977,-12.08508 11.46748,-6.32249 23.07929,-16.25251 34.94865,-29.88688 C 484.88111,402.45414 488.58198,399 489.9493,399 c 2.08357,0 5.1362,2.91027 16.58762,15.81407 7.77895,8.76554 18.90314,17.80134 29.29518,23.79546 8.90674,5.1374 11.91525,8.31938 11.91525,12.60225 0,3.9736 -4.82033,8.78822 -8.79865,8.78822 -7.63678,0 -25.22301,-11.03453 -39.19694,-24.59424 l -9.79192,-9.50166 -3.85625,4.71563 c -6.06665,7.41864 -22.68153,20.75103 -31.48512,25.26482 -9.81168,5.03066 -15.55549,5.52199 -19.41657,1.6609 z m 18.30399,-3.10493 c 8.39804,-4.11681 18.7816,-12.1899 28.71464,-22.32529 3.83525,-3.91338 7.44732,-7.11523 8.02682,-7.11523 0.5795,0 4.19157,3.17835 8.02682,7.06301 C 510.9322,444.88411 530.89478,458 537.75063,458 c 5.64276,0 8.16225,-2.36989 7.79964,-7.33654 -0.33135,-4.53838 0.48379,-3.83756 -17.03613,-14.64686 -4.93625,-3.04552 -12.12762,-9.37958 -22.42317,-19.75 C 497.75497,407.86997 490.2563,401 489.42726,401 c -0.82903,0 -4.4216,3.4875 -7.98348,7.75 -11.94094,14.28972 -24.77011,25.2787 -38.43016,32.91783 -3.50433,1.95974 -7.04337,4.58853 -7.86452,5.84177 -1.94872,2.97413 -0.94214,6.92017 2.44485,9.58437 3.29858,2.59467 6.18953,2.11258 15.91194,-2.65345 z m 8.61976,-63.87744 c -7.1314,-3.10376 -8.25171,-9.56059 -2.87381,-16.56308 9.48,-12.34377 12.85546,-17.53091 19.15275,-29.43246 5.59963,-10.583 7.36118,-13.1024 9.69639,-13.86788 4.24065,-1.39008 7.15342,1.347 12.59008,11.83069 5.75818,11.10369 8.97214,16.22097 15.2037,24.20743 6.55796,8.40479 8.84439,12.30959 8.84885,15.11222 0.005,2.95708 -6.05009,9.15 -8.94592,9.15 -5.30611,0 -12.36937,-6.74414 -22.15486,-21.15391 l -4.12632,-6.07628 -2.66239,4.86509 c -6.17581,11.28534 -12.68141,19.5378 -17.30711,21.95438 -3.24843,1.69706 -3.46363,1.6963 -7.42136,-0.0262 z m 8.72873,-2.81805 c 3.8527,-3.31773 9.06392,-10.30494 13.79403,-18.49503 2.30294,-3.9875 4.5704,-7.25 5.0388,-7.25 0.46841,0 2.35455,2.34206 4.19142,5.20458 4.70956,7.33921 13.56826,17.95662 16.71244,20.03032 3.67501,2.42381 6.81136,2.20093 9.70173,-0.68945 3.96468,-3.96467 3.21169,-6.86235 -4.42259,-17.01908 -6.427,-8.55055 -11.95546,-17.51907 -18.76727,-30.44513 -3.30097,-6.26393 -5.0452,-7.62694 -8.61385,-6.73127 -2.04879,0.51422 -3.72849,2.9136 -8.31027,11.87092 -6.67472,13.04899 -10.58512,19.34679 -16.2986,26.24939 -7.86117,9.49727 -8.55399,14.61258 -2.42894,17.93361 3.90814,2.119 6.37831,1.94593 9.4031,-0.65886 z"
       id="path2452" />
    <path
       style="opacity:0.57;fill:#008000;stroke-width:107.775"
       d="m 343.4812,684.81637 c -14.27873,-2.38604 -16.16624,-3.4089 -16.16624,-8.76064 0,-4.56213 5.35042,-8.08702 15.31538,-10.08985 3.27579,-0.65839 13.16896,-4.65958 21.98482,-8.89155 12.22277,-5.8674 18.78895,-10.39507 27.65277,-19.06777 17.86845,-17.48312 18.27644,-17.19965 -24.75444,-17.19965 -39.06504,0 -41.11001,-0.44793 -39.90374,-8.74037 0.45468,-3.12562 3.56587,-4.95717 17.06422,-10.0456 9.07949,-3.42267 20.81315,-8.82803 26.0748,-12.01191 9.64896,-5.83868 31.4414,-26.83876 31.4414,-30.2982 0,-1.27717 -8.591,-1.86717 -27.18812,-1.86717 -26.92302,0 -27.21457,-0.0403 -29.90086,-4.14016 -4.17331,-6.36927 -0.98884,-10.01857 13.28548,-15.2247 6.87899,-2.50891 17.42461,-7.77465 23.43469,-11.70163 13.59314,-8.88177 30.57907,-25.65438 30.57907,-30.19505 0,-3.24655 -1.13448,-3.40342 -24.61492,-3.40342 -23.02538,0 -24.73475,-0.22392 -26.47077,-3.46769 -3.28174,-6.13199 -0.40549,-9.15787 15.76343,-16.58346 20.82061,-9.56189 42.29629,-28.17699 50.76712,-44.00489 3.2861,-6.14013 0.25791,-7.35875 -18.36298,-7.38969 -13.72748,-0.0228 -15.89963,-0.43469 -17.43642,-3.3062 -0.96551,-1.80408 -1.34821,-4.29283 -0.85044,-5.53056 0.49777,-1.23773 7.96128,-6.07926 16.58556,-10.75896 16.48618,-8.94571 28.98007,-20.04235 37.25776,-33.09107 2.63959,-4.16098 4.79926,-8.18127 4.79926,-8.93397 0,-0.7527 -4.42422,-1.36855 -9.83161,-1.36855 -11.33321,0 -17.88305,-3.44358 -17.06713,-8.97306 0.33548,-2.27361 4.627,-6.03616 12.00043,-10.52126 15.45542,-9.4012 28.17394,-22.27192 41.69375,-42.19264 6.19324,-9.12542 12.23411,-16.59167 13.42415,-16.59167 1.19005,0 7.13987,7.54683 13.22181,16.77072 12.54674,19.02844 24.98811,31.23699 41.89519,41.11126 18.87093,11.02122 17.83054,17.80099 -3.02917,19.7397 -6.77989,0.63013 -12.32708,1.62027 -12.32708,2.20031 0,0.58005 2.64019,4.97508 5.86707,9.76674 8.34767,12.39557 23.42875,25.27558 39.22823,33.50293 13.73789,7.15379 16.71697,10.83321 12.69498,15.6794 -1.49916,1.80637 -5.99877,2.47783 -16.73218,2.49688 -8.07488,0.0143 -15.76101,0.70937 -17.0803,1.54454 -4.25529,2.6938 1.2526,11.88792 15.97068,26.65931 11.28329,11.32418 16.69966,15.24744 30.54138,22.12222 19.51243,9.69127 22.50812,12.92045 16.53423,17.82286 -3.51094,2.88121 -6.76962,3.2968 -25.85065,3.2968 -13.52719,0 -22.25686,0.6854 -22.94673,1.80164 -1.72688,2.79414 7.49007,14.83555 17.88694,23.36825 5.17119,4.24399 17.44274,11.44678 27.27011,16.00619 9.82738,4.55942 19.01661,8.92007 20.42052,9.69035 3.77386,2.07059 4.10478,6.79957 0.73628,10.52172 -2.67359,2.95427 -5.45201,3.27681 -28.22738,3.27681 -29.74226,0 -30.01307,0.24593 -16.32792,14.82905 11.36129,12.10678 25.15423,21.0817 42.72237,27.79896 20.88138,7.98411 23.89826,10.53366 19.91454,16.82975 -1.23992,1.95964 -8.96168,2.64138 -38.54981,3.40342 -27.04634,0.69658 -37.18584,1.51558 -37.69271,3.04451 -1.06246,3.2048 15.57192,19.82258 27.84951,27.82176 9.66631,6.29784 36.09756,16.88366 42.15608,16.88366 3.81165,0 8.23783,6.27458 7.05503,10.00125 -1.3724,4.32405 -3.20658,4.87821 -23.03941,6.96091 -50.70226,5.3244 -99.35313,-4.43358 -132.94794,-26.66556 l -6.40167,-4.23644 -9.88011,6.0805 c -33.37757,20.54145 -94.79178,31.35905 -137.50831,24.22094 z m 110.43818,-41.5865 c 9.45451,-4.71293 21.27284,-12.069 26.26295,-16.34682 4.99011,-4.27781 9.43625,-7.77785 9.88031,-7.77785 0.44406,0 5.55047,3.84562 11.34758,8.54585 12.90255,10.46119 39.4386,23.91352 49.38281,25.03439 9.14887,1.0312 13.49251,-2.51688 12.726,-10.39518 -0.48455,-4.98029 -1.86477,-5.98451 -21.78869,-15.85277 -15.9079,-7.87915 -24.70399,-13.55405 -34.88504,-22.5065 -7.48752,-6.58395 -14.93851,-11.98934 -16.55775,-12.01198 -1.61925,-0.0226 -7.88143,4.43326 -13.91597,9.90201 -12.02904,10.90119 -28.70381,21.33066 -44.15828,27.61939 -14.74595,6.00042 -19.7693,13.76242 -13.43581,20.76084 4.5801,5.06097 15.25041,2.94421 35.14189,-6.97138 z m -15.75243,-57.949 c 15.62548,-5.37594 30.86048,-14.21877 47.79097,-27.73923 l 4.63826,-3.70404 8.12456,6.78785 c 24.78126,20.70408 54.7308,32.90176 62.27113,25.36144 1.57338,-1.57337 2.86069,-5.08565 2.86069,-7.80505 0,-5.78167 -3.05036,-8.14849 -18.6944,-14.50523 -14.63075,-5.94501 -25.75537,-13.32224 -40.44706,-26.82226 -6.78945,-6.23874 -13.30074,-11.34317 -14.46954,-11.34317 -1.1688,0 -8.11386,5.38632 -15.43346,11.96962 -16.09002,14.47142 -22.90638,18.89345 -40.9234,26.54847 -7.60462,3.23104 -14.78379,7.13626 -15.95372,8.67829 -2.93733,3.87158 -2.66058,8.95345 0.68917,12.65489 3.56569,3.94003 7.91049,3.92189 19.5468,-0.0815 z m 9.55936,-65.67115 c 10.80102,-5.02855 21.98497,-12.45971 34.12968,-22.67739 l 9.04487,-7.6097 5.41965,5.08835 c 15.87922,14.90856 41.37092,29.39461 51.73137,29.39715 6.29378,0.002 9.51316,-4.29248 8.67333,-11.56855 -0.43726,-3.78822 -2.78975,-5.80447 -13.40229,-11.4867 -17.14215,-9.17834 -22.20113,-12.87539 -37.64615,-27.51135 -7.19427,-6.81742 -14.31069,-12.3953 -15.81427,-12.3953 -1.50357,0 -6.32313,3.89657 -10.71014,8.65906 -10.09148,10.95523 -25.50721,22.57724 -38.66242,29.14786 -17.21726,8.59949 -21.52503,14.90381 -15.06295,22.04434 3.86046,4.26576 11.61253,3.88761 22.29932,-1.08777 z m 6.00836,-62.39336 c 8.81214,-4.46466 18.26949,-11.56668 28.76803,-21.60342 l 7.98988,-7.63843 10.03567,9.29125 c 18.27892,16.92307 36.2751,26.44837 42.52304,22.50727 9.21668,-5.81372 6.9022,-13.2889 -6.78733,-21.92136 -5.88492,-3.71097 -18.42713,-14.22204 -27.87157,-23.35795 -9.44444,-9.13591 -17.85062,-16.61074 -18.6804,-16.61074 -0.82978,0 -8.03501,6.80288 -16.01162,15.11751 -7.97662,8.31463 -20.10524,18.72227 -26.95251,23.12809 -14.93093,9.60719 -17.69208,14.91456 -11.75268,22.59051 2.48909,3.21684 10.72826,2.55614 18.73949,-1.50273 z m 19.78682,-68.83572 c 2.87418,-2.41846 7.65406,-8.45701 10.62195,-13.41899 l 5.39617,-9.02179 7.22265,9.81128 c 11.09181,15.06717 18.10779,18.60035 24.839,12.50869 4.75197,-4.30047 3.75202,-10.33567 -3.26942,-19.73256 -3.50978,-4.69717 -10.21945,-15.13765 -14.91036,-23.20106 -7.53897,-12.95903 -9.08883,-14.66075 -13.35245,-14.66075 -4.28909,0 -5.80532,1.7069 -13.68575,15.40686 -4.87425,8.47378 -11.69229,19.11322 -15.1512,23.64322 -8.20068,10.7401 -8.29212,16.51549 -0.33294,21.02886 5.01151,2.84185 6.84358,2.49876 12.62235,-2.36376 z"
       id="path2874" />
    <path
       style="opacity:0.57;fill:#784421;stroke-width:107.775"
       d="M 475.36367,820.43595 C 344.94407,810.59093 237.28906,726.09871 200.64858,604.82792 172.39451,511.31403 190.12687,410.21115 248.39878,332.57526 292.6065,273.67715 358.84042,231.2059 430.67457,215.69438 c 21.05127,-4.54571 75.45312,-6.43355 98.19284,-3.40746 97.16042,12.92965 187.54045,77.29695 230.73319,164.32469 26.96168,54.32427 36.78437,102.65673 32.60106,160.4131 -3.03614,41.91787 -11.14919,73.52312 -28.28825,110.19967 -15.08463,32.28024 -44.60622,71.24183 -72.98339,96.32097 -23.52165,20.78795 -38.86709,30.35377 -84.53472,52.69605 -9.77627,4.78291 -42.69889,14.63299 -61.53169,18.40959 -15.9443,3.19736 -52.96209,7.34667 -59.28968,6.64577 -1.40391,-0.15554 -5.99853,-0.54288 -10.21026,-0.86081 z m -1.67113,-109.01302 0.0306,-42.1173 8.48634,-5.54918 8.48634,-5.54915 6.96963,4.61228 c 3.8333,2.53675 7.65839,6.42383 8.50019,8.63794 0.8418,2.21411 1.53055,21.15303 1.53055,42.08651 v 38.06084 l 49.775,0.54227 c 27.37625,0.29824 55.7204,0.10329 62.98699,-0.43316 12.10768,-0.89387 14.12607,-1.60507 24.14781,-8.50854 56.91948,-39.20897 93.11923,-91.88387 112.03553,-163.02494 5.22683,-19.65721 5.261,-20.06846 5.32075,-64.02872 0.0533,-39.16962 -0.35741,-46.09871 -3.58011,-60.41068 -7.04276,-31.27679 -10.44968,-40.56416 -24.31788,-66.29108 -31.07594,-57.64896 -71.4129,-96.65208 -128.51987,-124.27 -37.8712,-18.31517 -65.76824,-25.3229 -106.41704,-26.73191 -47.61208,-1.65039 -80.3676,5.35395 -125.01543,26.73291 -67.80668,32.46822 -121.0351,93.07779 -143.44178,163.33273 -7.3302,22.98344 -10.23485,38.25112 -12.53548,65.89003 -6.18486,74.30276 18.75322,149.78038 68.14417,206.24522 11.40144,13.03438 35.36092,33.33615 52.74095,44.68939 l 12.55574,8.20185 h 61.0432 61.04319 l 0.0306,-42.11731 z"
       id="path3085" />
    <path
       style="opacity:0.57;fill:#784421;stroke-width:53.8876"
       d="m 421.28685,648.59228 c -4.03208,-3.26499 -1.35345,-10.45626 4.88977,-13.1275 1.7825,-0.76266 6.18402,-2.53269 9.78116,-3.93339 13.00484,-5.06401 28.13957,-14.73199 40.98668,-26.18205 4.11279,-3.66556 8.77136,-7.76957 10.35237,-9.12002 l 2.87457,-2.45536 2.92568,2.45536 c 1.60913,1.35045 7.06001,6.05257 12.11308,10.44915 13.76551,11.97711 22.74871,17.49761 43.23275,26.56808 5.09583,2.25647 9.97761,4.74744 10.8484,5.5355 2.11197,1.91131 2.02474,6.33432 -0.1802,9.13746 -2.39844,3.04911 -6.31063,2.9479 -15.82398,-0.40941 -16.47401,-5.81374 -32.13991,-15.21895 -47.07125,-28.25976 -3.03837,-2.65367 -5.8115,-4.82484 -6.16253,-4.82484 -0.35102,0 -3.70714,2.82593 -7.45804,6.27984 -12.5528,11.55891 -29.19779,21.33792 -45.77014,26.89017 -8.82007,2.95499 -12.80437,3.21058 -15.53832,0.99677 z"
       id="path3124" />
    <path
       style="opacity:0.57;fill:#784421;stroke-width:53.8876"
       d="m 421.55881,583.58202 c -2.03688,-2.19819 -2.52082,-4.36969 -1.68332,-7.55329 0.7523,-2.85974 2.86989,-4.20824 12.64858,-8.05472 21.16499,-8.32531 32.194,-15.55168 48.94947,-32.07238 l 8.66242,-8.54106 10.04584,9.59323 c 17.26658,16.48865 29.62979,24.53342 49.20018,32.01466 10.10955,3.86461 12.77496,6.07454 12.00001,9.94935 -0.29348,1.46739 -1.3892,3.58592 -2.43494,4.70784 -1.67291,1.79482 -2.41461,1.98046 -6.17399,1.54531 -9.18985,-1.06373 -26.58847,-8.45007 -38.17559,-16.2069 -3.79572,-2.54099 -10.50132,-7.70984 -14.90131,-11.48633 -4.4,-3.77648 -8.62102,-6.86633 -9.38006,-6.86633 -0.75904,0 -4.6253,2.71216 -8.59168,6.02703 -14.63498,12.23106 -28.9621,20.40481 -45.41771,25.91119 -10.3406,3.46019 -12.36684,3.60203 -14.7479,1.0324 z"
       id="path3163" />
    <path
       style="opacity:0.57;fill:#784421;stroke-width:53.8876"
       d="m 541.82578,519.89577 c -12.18291,-4.17417 -33.0384,-18.10892 -46.46702,-31.04728 l -4.6797,-4.50885 -8.93398,8.11129 c -16.78758,15.24171 -39.37746,28.38055 -48.79525,28.38055 -3.1593,0 -6.05689,-2.50908 -6.92075,-5.99281 -0.87663,-3.53522 2.08776,-6.14172 13.94037,-12.25735 18.6704,-9.63343 25.54009,-14.6187 38.43884,-27.89472 l 11.55316,-11.89108 12.27077,11.70761 c 15.29646,14.59444 21.29212,19.12263 35.24385,26.61774 16.57389,8.90378 16.12669,8.56285 16.41879,12.51694 0.19797,2.67973 -0.16989,3.80562 -1.7017,5.20842 -2.97629,2.72561 -4.90551,2.92091 -10.36738,1.04954 z"
       id="path3202" />
    <path
       style="opacity:0.57;fill:#784421;stroke-width:53.8876"
       d="m 437.03654,455.77977 c -2.76904,-2.76903 -2.77473,-6.71619 -0.0134,-9.27532 1.1413,-1.05773 5.32696,-3.9103 9.30147,-6.33905 10.97554,-6.70696 18.55896,-13.13258 31.13726,-26.38337 6.30169,-6.63861 11.74523,-12.07021 12.09675,-12.07021 0.35152,0 7.63348,6.74368 16.18214,14.98595 12.03371,11.60241 17.75518,16.43024 25.34086,21.38285 12.75654,8.32863 13.62975,9.15711 13.61365,12.91638 -0.0162,3.77662 -0.65964,4.8204 -3.67947,5.96854 -3.1013,1.17912 -5.57894,0.53558 -13.32459,-3.46091 -8.21478,-4.23854 -18.80118,-12.14706 -28.70394,-21.44314 -4.3219,-4.05712 -8.26233,-7.37659 -8.75651,-7.37659 -0.49417,0 -4.85344,3.76129 -9.68726,8.35842 -11.34816,10.79252 -18.70125,16.30713 -28.02671,21.01927 -8.77945,4.43625 -12.36363,4.83383 -15.48028,1.71718 z"
       id="path3241" />
    <path
       style="opacity:0.57;fill:#784421;stroke-width:53.8876"
       d="m 462.38953,388.09925 c -6.16474,-2.76003 -5.85722,-6.82675 1.22595,-16.21242 6.58271,-8.72252 9.81582,-13.88283 16.1894,-25.83962 6.21963,-11.66797 7.41751,-13.25462 10.00688,-13.25462 2.57062,0 4.67465,2.56204 9.78253,11.91197 2.4287,4.44572 8.40398,14.03166 13.27839,21.30209 9.63736,14.3746 10.48594,16.86637 6.89331,20.24147 -5.06538,4.75869 -10.57044,1.03346 -22.28009,-15.07676 -3.74376,-5.15069 -7.24582,-9.38397 -7.78234,-9.4073 -0.53653,-0.0233 -2.81162,2.92495 -5.05576,6.55172 -7.31923,11.82865 -13.81837,19.59802 -17.44808,20.85826 -0.74642,0.25916 -2.911,-0.22449 -4.81019,-1.07479 z"
       id="path3280" />
  </g>
</svg>
