<?xml version="1.0" encoding="UTF-8" standalone="no"?>
<!-- Created with Inkscape (http://www.inkscape.org/) -->

<svg
   version="1.1"
   id="svg4025"
   width="1024"
   height="1024"
   viewBox="0 0 1024 1024"
   sodipodi:docname="Bruecke-2.svg"
   inkscape:version="1.1 (c68e22c387, 2021-05-23)"
   xmlns:inkscape="http://www.inkscape.org/namespaces/inkscape"
   xmlns:sodipodi="http://sodipodi.sourceforge.net/DTD/sodipodi-0.dtd"
   xmlns="http://www.w3.org/2000/svg"
   xmlns:svg="http://www.w3.org/2000/svg">
  <defs
     id="defs4029" />
  <sodipodi:namedview
     id="namedview4027"
     pagecolor="#505050"
     bordercolor="#eeeeee"
     borderopacity="1"
     inkscape:pageshadow="0"
     inkscape:pageopacity="0"
     inkscape:pagecheckerboard="0"
     showgrid="false"
     inkscape:zoom="0.25998604"
     inkscape:cx="-28.847703"
     inkscape:cy="255.78297"
     inkscape:window-width="1920"
     inkscape:window-height="1111"
     inkscape:window-x="-9"
     inkscape:window-y="-9"
     inkscape:window-maximized="1"
     inkscape:current-layer="g4031" />
  <g
     inkscape:groupmode="layer"
     inkscape:label="Image"
     id="g4031">
    <path
       style="fill:#000000"
       d="m 500.29948,890.91549 c -2.2,-0.21478 -8.95,-0.88177 -15,-1.4822 -22.32197,-2.21533 -56.78402,-9.94203 -79.75364,-17.88149 -54.71693,-18.91293 -104.98135,-50.1622 -144.77712,-90.00761 -21.3421,-21.36871 -31.70471,-34.2099 -48.11347,-59.62147 -25.73425,-39.85356 -41.92751,-80.65959 -51.30696,-129.2904 -4.67252,-24.22622 -5.81334,-36.97074 -5.78563,-64.63327 0.0521,-52.02363 10.10152,-101.02586 29.81179,-145.36615 16.7941,-37.78006 38.87053,-70.82131 69.49912,-104.01765 14.73456,-15.96982 28.71444,-28.52894 47.54611,-42.71403 19.87008,-14.96728 31.78501,-22.34896 55.3798,-34.30958 46.70693,-23.67657 86.86175,-35.01437 138.39522,-39.0762 24.4502,-1.92714 58.09888,-0.51409 82.2406,3.45364 69.43388,11.41156 136.96726,44.4798 190.6445,93.35054 53.78128,48.96548 90.87498,111.16675 107.74798,180.67943 20.47,84.33132 12.0458,168.17391 -24.5359,244.19609 -12.658,26.30526 -26.0896,47.15816 -46.6704,72.45688 -43.38652,53.3325 -113.22313,99.37376 -179.71513,118.48101 -37.30726,10.72067 -66.03566,15.30716 -99.10687,15.82241 -12.375,0.19281 -24.3,0.17483 -26.5,-0.04 z m 54,-31.49562 c 42.31577,-4.21145 92.3377,-20.52245 130.75,-42.63456 4.2625,-2.45372 7.75,-4.64692 7.75,-4.87378 0,-0.22686 -77.2875,-0.40232 -171.75,-0.38989 l -171.75,0.0226 5.5,3.46623 c 14.98273,9.44246 41.4114,21.33519 64.35931,28.96127 16.69233,5.54722 45.7922,12.5405 60.64069,14.57318 20.52503,2.80976 51.41445,3.17254 74.5,0.87497 z m 196.5,-91.36995 c 51.075,-46.43481 86.4606,-108.86834 99.4445,-175.45764 1.4055,-7.20846 2.5555,-13.77836 2.5555,-14.59977 0,-1.32161 -38.1469,-1.49346 -331.51905,-1.49346 H 189.76138 l 0.48554,2.25 c 0.26705,1.2375 1.66936,8.29415 3.11624,15.68144 6.97417,35.60764 23.85063,78.42629 41.01739,104.06856 20.12265,30.05754 32.4958,45.31789 49.98235,61.64541 12.32212,11.5054 23.77563,21.35459 24.833,21.35459 0.33197,0 0.60358,-39.15 0.60358,-87 v -87 h 15 15 l 0.14304,14.25 c 0.0787,7.8375 0.24819,44.85 0.37672,82.25 0.12852,37.4 0.28915,70.1502 0.35696,72.77822 l 0.12328,4.77822 13.75,-0.27822 13.75,-0.27822 0.62423,-31 c 0.46593,-23.13886 1.01892,-32.52151 2.18067,-37 6.55862,-25.28308 19.39382,-47.16178 39.66586,-67.61387 11.95971,-12.06593 22.74637,-20.0358 36.95041,-27.30135 63.25117,-32.35377 135.57127,-21.30058 185.18592,28.30327 17.66539,17.66154 27.13801,32.62949 34.54723,54.58906 5.40587,16.02201 6.38642,23.48096 6.79216,51.6674 0.20074,13.94552 0.40741,26.14299 0.45925,27.10549 0.0848,1.57449 1.432,1.75 13.43253,1.75 h 13.33827 l 0.66173,-33.16324 c 0.36396,-18.23979 0.66174,-57.38979 0.66174,-87 v -53.83676 h 14.84296 14.84296 l 0.65704,16.65971 c 0.36137,9.16284 0.65704,48.57566 0.65704,87.58403 v 70.92432 l 3.75,-2.99014 c 2.0625,-1.64457 8.025,-6.87675 13.25,-11.62705 z M 642.54084,754.24905 c -0.48151,-25.21066 -0.71589,-27.99838 -3.13184,-37.25 -6.11922,-23.43283 -19.9458,-43.58192 -41.10952,-59.90772 -9.86681,-7.61132 -14.30696,-10.45117 -21.97773,-14.05664 -28.00415,-13.16271 -60.96066,-16.10005 -89.19219,-7.9495 -11.99061,3.46174 -24.67921,9.21658 -34.85381,15.80774 -10.59049,6.86057 -26.75167,22.79248 -33.60364,33.12692 -9.38634,14.15686 -15.91555,30.24546 -17.84804,43.9792 -1.10106,7.82501 -1.39892,51.79234 -0.35792,52.83333 0.36666,0.36667 55.10057,0.66667 121.6309,0.66667 H 643.0613 Z M 225.79948,459.87661 c 0,-73.49319 -0.20895,-86.44904 -1.37857,-85.47834 -2.73802,2.27236 -12.73547,23.95336 -18.54065,40.20823 -7.09477,19.86583 -13.13892,43.33576 -16.01267,62.17849 -2.65787,17.42727 -4.48632,48.30822 -3.57781,60.42606 l 0.69635,9.288 h 19.40667 19.40668 z m 160,9.12244 c 0,-42.625 -0.1125,-77.52974 -0.25,-77.56609 -1.92795,-0.50969 -113.67024,-0.8 -120,-0.31177 l -8.75,0.67492 v 77.35147 77.35147 h 64.5 64.5 z m -112,31 v -14.5 h 15 15 v 14.5 14.5 h -15 -15 z m 57,0 v -14.5 h 14.5 14.5 v 14.5 14.5 h -14.5 -14.5 z m -57,-62 v -14.5 h 15 15 v 14.5 14.5 h -15 -15 z m 57,0 v -14.5 h 14.5 14.5 v 14.5 14.5 h -14.5 -14.5 z m 295,17.58179 c 0,-50.00502 0.27314,-91.63002 0.60699,-92.5 0.54743,-1.42659 9.67215,-1.58179 93,-1.58179 50.81611,0 92.39301,-0.37722 92.39301,-0.83827 0,-1.43076 -17.8063,-28.05288 -24.4623,-36.57349 C 738.7475,261.88585 666.7846,216.3935 589.60467,199.08793 c -42.9454,-9.62938 -92.91446,-9.81986 -134.80519,-0.51387 -42.29836,9.39653 -84.21644,27.59991 -120.46469,52.31309 -27.18961,18.53721 -57.28646,47.10977 -77.38888,73.46941 -9.0134,11.81898 -21.29358,29.50196 -23.53708,33.89249 l -1.66071,3.25 h 91.32568 c 69.69775,0 91.60987,0.28419 92.52568,1.2 0.91581,0.91581 1.2,22.82222 1.2,92.5 v 91.3 h 104.5 104.5 z m 159.7561,13.28944 -0.2561,-77.62877 -34.87159,-0.49112 c -19.17937,-0.27012 -48.09187,-0.16063 -64.25,0.2433 l -29.37841,0.73441 v 77.38548 77.38547 h 64.50613 64.50617 z m -102.7561,31.12877 v -14.5 h 14.5 14.5 v 14.5 14.5 h -14.5 -14.5 z m 56,0 v -14.5 h 14.5 14.5 v 14.5 14.5 h -14.5 -14.5 z m -56.19862,-62.00156 -0.30138,-14.50155 14.75,0.002 14.75,0.002 v 14.5 14.5 h -14.44862 -14.44862 l -0.30138,-14.50156 z m 56.19862,0.002 v -14.5 h 14.5 14.5 v 14.5 14.5 h -14.5 -14.5 z m 117.7018,81.25 c -0.4154,-20.21482 -1.0893,-30.64962 -2.6103,-40.41803 -6.0215,-38.67342 -16.8826,-71.84852 -33.5023,-102.33197 l -3.5438,-6.5 -0.023,88.25 -0.023,88.25 h 20.1309 20.1309 z"
       id="path4092" />
    <path
       style="opacity:0.57;fill:#e9c6af;stroke-width:243.604"
       d="m 342.9106,737.90284 c -1.37924,-22.54182 -2.5077,-61.48622 -2.5077,-86.54311 v -45.55797 h -15.38544 -15.38545 v 43.63479 c 0,23.99914 -1.13528,62.1896 -2.52285,84.8677 l -2.52286,41.2329 -22.60697,-22.36434 C 240.41021,712.04984 203.79352,644.76267 195.80791,594.82344 l -2.5499,-15.9462 h 329.01428 329.01429 l -5.4687,23.44243 c -12.8456,55.0639 -44.9841,111.93476 -87.02775,154.0005 l -20.28893,20.29959 -2.11277,-84.44741 c -1.16202,-46.44607 -2.46017,-84.88013 -2.88477,-85.409 -0.4246,-0.52888 -7.69545,-0.96159 -16.15744,-0.96159 h -15.38545 l -0.0423,72.11926 c -0.0231,39.66559 -1.11517,78.60999 -2.42643,86.5431 -2.08215,12.59713 -3.72509,14.42386 -12.97258,14.42386 H 675.931 l -1.56154,-37.50202 c -1.40327,-33.69892 -2.88293,-39.96756 -14.59098,-61.81459 -34.52974,-64.43191 -112.34598,-96.02649 -183.37371,-74.45248 -45.09072,13.69589 -76.39595,39.76754 -97.80786,81.45644 -6.97069,13.5719 -9.24335,25.40485 -10.52705,54.81063 l -1.63715,37.50202 h -10.5072 -10.50721 z"
       id="path4186" />
  </g>
</svg>
