<?xml version="1.0" encoding="UTF-8" standalone="no"?>
<!-- Created with Inkscape (http://www.inkscape.org/) -->

<svg
   version="1.1"
   id="svg4455"
   width="1024"
   height="1024"
   viewBox="0 0 1024 1024"
   sodipodi:docname="Burg.svg"
   inkscape:version="1.1 (c68e22c387, 2021-05-23)"
   xmlns:inkscape="http://www.inkscape.org/namespaces/inkscape"
   xmlns:sodipodi="http://sodipodi.sourceforge.net/DTD/sodipodi-0.dtd"
   xmlns="http://www.w3.org/2000/svg"
   xmlns:svg="http://www.w3.org/2000/svg">
  <defs
     id="defs4459" />
  <sodipodi:namedview
     id="namedview4457"
     pagecolor="#505050"
     bordercolor="#eeeeee"
     borderopacity="1"
     inkscape:pageshadow="0"
     inkscape:pageopacity="0"
     inkscape:pagecheckerboard="0"
     showgrid="false"
     inkscape:zoom="0.41552734"
     inkscape:cx="200.94947"
     inkscape:cy="487.33255"
     inkscape:window-width="1920"
     inkscape:window-height="1111"
     inkscape:window-x="-9"
     inkscape:window-y="-9"
     inkscape:window-maximized="1"
     inkscape:current-layer="g4461" />
  <g
     inkscape:groupmode="layer"
     inkscape:label="Image"
     id="g4461">
    <path
       style="fill:#000000"
       d="m 489.5,810.41364 c -1.65,-0.22702 -7.275,-0.8953 -12.5,-1.48505 -31.66297,-3.57387 -72.84833,-17.14664 -104.67788,-34.49694 -11.87646,-6.47386 -33.31767,-20.90568 -45.11687,-30.3676 -11.96143,-9.59202 -33.53907,-31.35211 -43.68175,-44.0511 -34.42163,-43.09708 -55.48634,-90.27941 -63.81856,-142.94562 -1.82617,-11.54278 -2.14738,-17.82018 -2.15258,-42.06733 -0.006,-27.6906 0.0865,-29.03162 3.25373,-47.21893 3.81209,-21.89009 5.72729,-29.7963 11.33225,-46.78107 10.13602,-30.71531 25.76571,-60.03828 45.6328,-85.61205 8.54451,-10.99886 26.31313,-29.66546 39.08412,-41.05935 C 359.88433,255.9394 417.38922,229.39137 475,221.31861 c 19.26862,-2.70003 62.8417,-2.47069 81,0.42633 31.90184,5.08969 58.7237,13.59313 86.13877,27.30892 79.88558,39.96683 136.5916,108.51075 157.43866,190.3054 7.59364,29.79412 9.86802,50.87635 9.13115,84.64074 -0.59091,27.07612 -1.87037,37.57707 -7.27436,59.70306 -20.48564,83.87596 -78.39334,156.47602 -155.37818,194.8008 -31.25931,15.56158 -55.10186,23.19303 -92.55604,29.62505 -9.33524,1.60314 -17.44055,2.13146 -36.5,2.37913 -13.475,0.1751 -25.85,0.13262 -27.5,-0.0944 z M 512,808 c 0,-0.55 0.9,-1 2,-1 1.1,0 2,0.45 2,1 0,0.56814 2.4832,0.93514 5.75,0.84981 l 5.75,-0.1502 -4.5,-0.76286 c -3.26509,-0.55351 -1.68715,-0.70841 5.75,-0.56446 5.6375,0.10912 10.25,-0.20227 10.25,-0.69198 0,-0.48971 1.8,-0.71872 4,-0.50892 2.2,0.2098 4,-0.0242 4,-0.51996 0,-0.49579 1.37237,-0.62696 3.04971,-0.29149 2.10415,0.42083 2.83696,0.2657 2.36352,-0.50034 -0.4699,-0.7603 0.43796,-0.97904 2.88014,-0.69393 2.03482,0.23755 3.32074,0.019 2.99444,-0.50901 -0.32408,-0.52436 0.76679,-0.72888 2.51733,-0.47195 1.81197,0.26594 2.84561,0.0592 2.5,-0.5 -0.3461,-0.56 0.6972,-0.7646 2.5284,-0.49583 1.71471,0.25166 3.26353,0.0199 3.44184,-0.51503 0.17831,-0.53493 2.3962,-1.01788 4.92865,-1.07322 2.53244,-0.0553 4.35566,-0.50337 4.05158,-0.99562 -0.30407,-0.49224 0.6254,-0.66975 2.0655,-0.39446 1.6022,0.30628 2.37838,0.11224 2,-0.5 -0.37916,-0.61349 0.40621,-0.80467 2.03027,-0.49421 1.45674,0.27847 2.64862,0.0662 2.64862,-0.47164 0,-0.53788 0.90062,-0.74245 2.00138,-0.45459 1.24729,0.32617 1.75647,0.1271 1.35138,-0.52836 -0.41709,-0.67485 0.28826,-0.87237 1.96835,-0.5512 1.622,0.31007 2.38011,0.11503 1.99226,-0.51253 -0.38369,-0.62082 0.2088,-0.79473 1.53026,-0.44916 1.186,0.31014 2.15637,0.10788 2.15637,-0.44947 0,-0.55735 0.675,-0.75435 1.5,-0.43776 0.825,0.31658 1.5,0.0916 1.5,-0.5 0,-0.59159 0.675,-0.81659 1.5,-0.5 0.825,0.31658 1.5,0.0916 1.5,-0.5 0,-0.59159 0.675,-0.81659 1.5,-0.5 0.825,0.31658 1.5,0.0916 1.5,-0.5 0,-0.59159 0.675,-0.81659 1.5,-0.5 0.825,0.31658 1.5,0.15385 1.5,-0.36163 0,-0.51548 0.675,-0.67821 1.5,-0.36163 0.825,0.31659 1.5,0.0509 1.5,-0.5904 0,-0.6413 0.41891,-0.90711 0.9309,-0.59068 0.512,0.31644 1.21809,0.11065 1.5691,-0.45729 0.35101,-0.56794 1.02601,-0.79294 1.5,-0.5 0.47399,0.29294 1.14899,0.0679 1.5,-0.5 0.35101,-0.56794 1.0571,-0.77373 1.5691,-0.45729 0.51199,0.31643 0.9309,0.0988 0.9309,-0.48369 0,-0.58246 1.09286,-1.05902 2.42857,-1.05902 1.33572,0 3.08214,-0.65357 3.88095,-1.45238 0.79881,-0.79881 1.73096,-1.17381 2.07143,-0.83333 0.34048,0.34047 0.61905,0.15667 0.61905,-0.40846 0,-1.05762 15.51534,-8.59543 17.75,-8.62348 0.6875,-0.009 1.25,-0.41724 1.25,-0.90803 0,-0.4908 0.45,-0.61424 1,-0.27432 0.55,0.33992 1,0.15062 1,-0.42066 0,-1.39427 7.5434,-5.18209 8.5365,-4.28649 0.43128,0.38893 0.41318,0.0682 -0.0402,-0.71279 -0.61943,-1.06694 -0.39777,-1.25624 0.89161,-0.76145 0.94379,0.36216 1.4702,0.26079 1.16979,-0.22528 -0.52729,-0.85318 1.86998,-2.39938 3.96081,-2.55467 0.56018,-0.0416 2.03909,-1.09624 3.28648,-2.34363 1.24739,-1.24739 2.65441,-2.02915 3.12672,-1.73725 0.47231,0.2919 1.11837,-0.14586 1.4357,-0.9728 0.31733,-0.82694 1.00772,-1.38686 1.5342,-1.24426 0.52649,0.14261 1.69738,-0.64072 2.60199,-1.74072 0.9046,-1.1 1.34731,-1.325 0.9838,-0.5 -0.36351,0.825 0.31717,0.375 1.51262,-1 1.19545,-1.375 1.85018,-1.825 1.45494,-1 -0.39524,0.825 0.74052,-0.075 2.52391,-2 1.78339,-1.925 2.85522,-2.80375 2.38184,-1.95278 -0.47338,0.85097 0.2012,0.40097 1.49906,-1 1.29786,-1.40097 2.03963,-1.87222 1.64839,-1.04722 -0.39125,0.825 0.49198,0.0375 1.96273,-1.75 1.47075,-1.7875 3.15436,-3.25 3.74137,-3.25 0.587,0 1.71275,-0.7875 2.50167,-1.75 0.89124,-1.08733 1.16707,-1.182 0.72841,-0.25 -0.3883,0.825 0.73415,-0.075 2.49433,-2 1.76018,-1.925 2.90741,-2.825 2.5494,-2 -0.35801,0.825 1.22326,-0.525 3.51395,-3 2.29069,-2.475 3.8397,-3.825 3.44225,-3 -0.39745,0.825 1.58067,-0.75 4.39581,-3.5 2.81514,-2.75 5.12822,-5.53594 5.14019,-6.19098 0.012,-0.65504 0.54128,-1.51207 1.17626,-1.90451 0.78368,-0.48434 0.88262,-0.2624 0.30804,0.69098 -0.71918,1.19331 -0.5937,1.19951 0.83448,0.0412 0.92452,-0.74982 1.38876,-1.87482 1.03163,-2.5 -0.35712,-0.62518 -0.27618,-0.79821 0.17986,-0.38451 1.02979,0.93417 4.49148,-2.07718 4.49148,-3.90717 0,-0.73975 0.5625,-1.23251 1.25,-1.09501 0.6875,0.1375 1.1375,-0.3125 1,-1 -0.1375,-0.6875 0.17182,-1.25 0.68738,-1.25 0.78469,0 3.77277,-3.35656 13.22652,-14.85756 8.32413,-10.12676 27.70769,-40.44751 27.0861,-42.36945 -0.1375,-0.42514 0.275,-0.77299 0.91667,-0.77299 0.64166,0 0.88809,-0.27857 0.54762,-0.61905 -0.34048,-0.34047 0.0387,-1.27675 0.84252,-2.08062 0.80386,-0.80386 1.20588,-1.87529 0.89336,-2.38095 C 774.13766,646.41372 774.29018,646 774.78911,646 c 0.99749,0 4.8616,-7.99489 4.46089,-9.22965 -0.1375,-0.42369 0.12777,-0.77035 0.58948,-0.77035 1.17673,0 3.30791,-4.95249 2.61421,-6.07494 C 782.13924,629.41628 782.38508,629 783,629 c 0.61492,0 0.83992,-0.45 0.5,-1 -0.33992,-0.55 -0.25398,-1.00169 0.19098,-1.00375 0.77823,-0.004 4.2462,-7.55114 4.68978,-10.20663 0.11848,-0.70929 0.69548,-2.18962 1.28221,-3.28962 0.58672,-1.1 0.86508,-2.5625 0.61857,-3.25 -0.24651,-0.6875 0.0874,-1.25 0.74212,-1.25 0.65467,0 0.9313,-0.675 0.61471,-1.5 -0.31658,-0.825 -0.15385,-1.5 0.36163,-1.5 0.51548,0 0.67821,-0.675 0.36163,-1.5 -0.31659,-0.825 -0.0916,-1.5 0.5,-1.5 0.59158,0 0.81658,-0.675 0.5,-1.5 -0.31659,-0.825 -0.18996,-1.50103 0.28138,-1.50228 0.47135,-10e-4 0.90959,-1.44379 0.97387,-3.20563 0.0643,-1.76184 0.57902,-3.35739 1.14385,-3.54567 0.56482,-0.18827 0.79724,-1.22074 0.51648,-2.29437 -0.28076,-1.07363 -0.0501,-1.95205 0.51254,-1.95205 0.56266,0 0.78766,-0.9 0.5,-2 -0.28766,-1.1 -0.0627,-2 0.5,-2 0.56266,0 0.78766,-0.9 0.5,-2 -0.28766,-1.1 -0.0627,-2 0.5,-2 0.56266,0 0.78766,-0.9 0.5,-2 -0.28766,-1.1 -0.0829,-2 0.45495,-2 0.53787,0 0.7629,-1.125 0.50005,-2.5 -0.26285,-1.375 -0.0378,-2.5 0.5,-2.5 0.53785,0 0.75006,-1.19188 0.47159,-2.64862 -0.33475,-1.75111 -0.1384,-2.42124 0.57944,-1.9776 0.74338,0.45944 0.89755,-0.48872 0.48891,-3.00685 -0.39058,-2.40686 -0.24047,-3.45764 0.43435,-3.04057 0.67817,0.41913 0.85247,-0.94833 0.50913,-3.99436 -0.33226,-2.94783 -0.15963,-4.40767 0.47486,-4.01554 0.63577,0.39293 0.81894,-1.23597 0.50565,-4.49651 -0.27592,-2.87149 -0.10056,-4.87078 0.40003,-4.5609 0.50156,0.31048 0.81559,-3.45159 0.71816,-8.60366 -0.12948,-6.84732 0.0423,-8.27304 0.68121,-5.65539 0.68683,2.81373 0.77541,2.32354 0.45178,-2.5 -0.2214,-3.3 -0.66692,-11.625 -0.99003,-18.5 -0.32311,-6.875 -1.25852,-19.20428 -2.07869,-27.39839 -0.82018,-8.19412 -1.24886,-15.52999 -0.95264,-16.30194 0.3317,-0.8644 0.10725,-1.13696 -0.5843,-0.70956 -0.76984,0.47578 -0.98034,-0.27733 -0.66949,-2.39525 0.26594,-1.81197 0.0592,-2.84561 -0.5,-2.5 -0.55921,0.34561 -0.76594,-0.68803 -0.5,-2.5 0.24937,-1.69908 0.13417,-2.89194 -0.256,-2.6508 -1.00795,0.62295 -2.09098,-5.90144 -1.35451,-8.15982 0.51861,-1.5903 0.4327,-1.65024 -0.55072,-0.38424 -0.94202,1.21271 -1.09051,0.88764 -0.77528,-1.69719 0.23353,-1.91489 -0.002,-2.95512 -0.58667,-2.59363 -0.5774,0.35686 -0.74593,-0.27842 -0.41231,-1.55419 0.35786,-1.36848 0.17956,-1.91999 -0.48747,-1.50775 -0.67617,0.41791 -0.87093,-0.29576 -0.54541,-1.99862 0.27847,-1.45674 0.0662,-2.64862 -0.47164,-2.64862 -0.53788,0 -0.74245,-0.90062 -0.45459,-2.00138 0.32962,-1.26045 0.12937,-1.75788 -0.54089,-1.34363 -0.68188,0.42142 -0.86166,-0.11703 -0.50036,-1.49862 0.31014,-1.186 0.23153,-2.15637 -0.1747,-2.15637 -0.9819,0 -3.13122,-7.09866 -2.47218,-8.165 0.28383,-0.45925 -0.009,-0.835 -0.64995,-0.835 -0.6413,0 -0.90699,-0.675 -0.5904,-1.5 0.31658,-0.825 0.0916,-1.5 -0.5,-1.5 -0.59159,0 -0.80762,-0.69837 -0.48007,-1.55194 0.38909,-1.01395 0.19394,-1.30374 -0.56295,-0.83595 -0.77368,0.47816 -0.94638,0.16325 -0.51993,-0.94807 C 787.65035,410.74759 787.454,410 786.86163,410 c -0.59159,0 -0.80762,-0.69837 -0.48007,-1.55194 0.38909,-1.01395 0.19394,-1.30374 -0.56295,-0.83595 -0.77368,0.47816 -0.94638,0.16325 -0.51993,-0.94807 C 785.64988,405.74882 785.51548,405 785,405 c -0.51548,0 -0.64988,-0.74882 -0.29868,-1.66404 0.46664,-1.21605 0.27783,-1.44111 -0.70132,-0.83596 -0.97915,0.60515 -1.16796,0.38009 -0.70132,-0.83596 C 783.64988,400.74882 783.4748,400 782.9096,400 c -0.5652,0 -0.74952,-0.45 -0.4096,-1 0.33992,-0.55 0.0933,-1 -0.54797,-1 -0.64295,0 -0.89886,-0.69618 -0.57047,-1.55194 0.38909,-1.01395 0.19394,-1.30374 -0.56295,-0.83595 -0.77368,0.47816 -0.94638,0.16325 -0.51993,-0.94807 0.3512,-0.91522 0.2796,-1.66404 -0.15913,-1.66404 -0.93498,0 -5.75702,-10.01869 -5.38955,-11.19781 0.1375,-0.4412 -0.275,-0.80219 -0.91667,-0.80219 -0.64166,0 -0.88809,-0.27857 -0.54762,-0.61905 0.34048,-0.34047 -0.0387,-1.27675 -0.84252,-2.08062 -0.80386,-0.80386 -1.20588,-1.87529 -0.89336,-2.38095 C 771.86234,375.41372 771.61492,375 771,375 c -0.61492,0 -0.83992,-0.45 -0.5,-1 0.33992,-0.55 0.11492,-1 -0.5,-1 -0.61492,0 -0.83992,-0.45 -0.5,-1 0.33992,-0.55 0.14148,-1 -0.44098,-1 C 768.47656,371 768,370.08588 768,368.96862 c 0,-1.11727 -0.67242,-2.28942 -1.49426,-2.60479 -0.82184,-0.31537 -1.24528,-0.97625 -0.94098,-1.46861 0.3043,-0.49237 0.0767,-0.89522 -0.50574,-0.89522 -0.58246,0 -0.94652,-0.41351 -0.80902,-0.91892 0.38539,-1.41658 -15.20134,-23.49604 -24.18324,-34.25687 C 729.32356,315.95324 715.77461,302.37997 703,291.69093 685.74123,277.24981 647.66938,252.78858 645.50564,254.7507 c -0.45446,0.41212 -0.54325,0.2526 -0.19732,-0.35447 0.71295,-1.25116 -3.96392,-3.72711 -5.38326,-2.84992 C 639.41628,251.86076 639,251.61492 639,251 c 0,-0.61492 -0.45,-0.83992 -1,-0.5 -0.55,0.33992 -1,0.11492 -1,-0.5 0,-0.61492 -0.45,-0.83992 -1,-0.5 -0.55,0.33992 -1,0.11492 -1,-0.5 0,-0.61492 -0.45,-0.83992 -1,-0.5 -0.55,0.33992 -1,0.11492 -1,-0.5 0,-0.61492 -0.45,-0.83992 -1,-0.5 -0.55,0.33992 -1,0.11492 -1,-0.5 0,-0.61492 -0.45,-0.83992 -1,-0.5 -0.55,0.33992 -1,0.11492 -1,-0.5 0,-0.61492 -0.41891,-0.85914 -0.9309,-0.54271 -0.512,0.31644 -1.21809,0.11065 -1.5691,-0.45729 -0.35101,-0.56794 -1.0571,-0.77373 -1.5691,-0.45729 C 624.41891,244.85914 624,244.61492 624,244 c 0,-0.61492 -0.45,-0.83992 -1,-0.5 -0.55,0.33992 -1,0.1556 -1,-0.4096 0,-0.5652 -0.675,-0.76861 -1.5,-0.45203 -0.825,0.31659 -1.5,0.0509 -1.5,-0.5904 0,-0.6413 -0.45,-0.88789 -1,-0.54797 -0.55,0.33992 -1,0.1556 -1,-0.4096 0,-0.5652 -0.675,-0.76861 -1.5,-0.45203 -0.825,0.31659 -1.5,0.0916 -1.5,-0.5 0,-0.59158 -0.675,-0.81658 -1.5,-0.5 -0.825,0.31659 -1.5,0.0916 -1.5,-0.5 0,-0.59237 -0.74759,-0.78872 -1.66404,-0.43705 -1.21605,0.46664 -1.44111,0.27783 -0.83596,-0.70132 0.59478,-0.96237 0.3868,-1.17054 -0.73819,-0.73884 -0.86145,0.33057 -1.84687,0.32045 -2.18981,-0.0225 -0.34295,-0.34294 -1.62444,-0.77495 -2.84777,-0.96002 -1.22333,-0.18506 -2.35831,-0.72569 -2.52218,-1.2014 -0.16387,-0.47571 -1.17637,-0.63521 -2.25,-0.35445 -1.07363,0.28076 -1.95205,0.0501 -1.95205,-0.51254 0,-0.56266 -0.97037,-0.76925 -2.15637,-0.45911 -1.38159,0.3613 -1.92004,0.18152 -1.49862,-0.50036 0.41425,-0.67026 -0.0832,-0.87051 -1.34363,-0.54089 -1.10076,0.28786 -2.00138,0.063 -2.00138,-0.49964 0,-0.56266 -0.97037,-0.76925 -2.15637,-0.45911 -1.32146,0.34557 -1.91395,0.17166 -1.53026,-0.44916 0.38785,-0.62756 -0.37026,-0.8226 -1.99226,-0.51253 -1.6022,0.30628 -2.37838,0.11223 -2,-0.5 0.37428,-0.6056 -0.35651,-0.81418 -1.85137,-0.52842 C 578.11138,230.0207 577,229.7931 577,229.25525 c 0,-0.53785 -1.19188,-0.75006 -2.64862,-0.47159 -1.99646,0.38165 -2.45087,0.18634 -1.8455,-0.79318 0.53384,-0.86377 0.41018,-1.05664 -0.36879,-0.57521 -0.64456,0.39836 -3.75158,0.40139 -6.90451,0.007 -4.33145,-0.54217 -5.24375,-0.91506 -3.73258,-1.52563 1.18457,-0.47861 0.20477,-0.56012 -2.40314,-0.19993 -2.52682,0.34899 -4.16549,0.22364 -3.84545,-0.29415 0.31047,-0.50232 -1.50565,-0.76736 -4.09686,-0.5979 -3.16,0.20666 -4.20988,4e-4 -3.26969,-0.64236 0.91733,-0.62714 -0.23043,-0.7647 -3.39983,-0.40746 -3.20253,0.36097 -4.57055,0.19282 -4.1371,-0.50852 0.68069,-1.10138 -2.38464,-1.21795 -27.34793,-1.03995 -21.28296,0.15176 -23,0.23997 -23,1.18157 0,0.48868 -2.58453,0.59811 -5.75,0.24345 -4.23684,-0.4747 -5.35526,-0.3604 -4.25,0.43434 1.12423,0.80837 0.19324,0.97285 -3.71629,0.65658 -2.86896,-0.23209 -5.00772,-0.0845 -4.75279,0.32798 0.25493,0.41248 -1.11024,0.82872 -3.03371,0.92497 -7.38634,0.36961 -8.49721,0.55154 -8.49721,1.39158 0,0.47661 -1.125,0.65152 -2.5,0.38867 -1.375,-0.26285 -2.5,-0.0545 -2.5,0.46288 0,0.53344 -1.35311,0.64359 -3.12511,0.25439 -2.36954,-0.52044 -2.93803,-0.38371 -2.35137,0.56554 0.56938,0.92127 0.0742,1.11819 -1.8749,0.7456 C 446.19188,229.50519 445,229.71743 445,230.2553 c 0,0.53788 -0.90062,0.74245 -2.00138,0.45459 -1.10076,-0.28785 -1.78739,-0.17713 -1.52585,0.24605 0.41599,0.67308 -10.37735,3.94141 -14.47277,4.3825 -0.825,0.0889 -1.77872,0.543 -2.11937,1.00921 -0.34065,0.46621 -1.75997,0.91621 -3.15404,1 -1.39407,0.0838 -2.2965,0.53806 -2.0054,1.00948 0.2911,0.47143 -0.48344,0.53572 -1.72119,0.14287 -1.68621,-0.53518 -2.05257,-0.39407 -1.46118,0.5628 0.56118,0.90801 0.30837,1.09254 -0.87478,0.63852 C 414.74759,239.34965 414,239.546 414,240.13837 c 0,0.59159 -0.675,0.81659 -1.5,0.5 -0.825,-0.31658 -1.5,-0.0916 -1.5,0.5 0,0.59159 -0.69837,0.80762 -1.55194,0.48007 -0.88992,-0.34149 -1.29132,-0.17385 -0.94098,0.39301 0.55731,0.90176 -1.03735,1.37456 -4.24632,1.25899 -0.68158,-0.0246 -0.99252,0.35456 -0.69098,0.84246 0.30154,0.48791 -0.1533,0.94335 -1.01076,1.0121 -1.52549,0.12231 -2.80423,0.38002 -4.30902,0.86842 -0.4125,0.13388 -1.0875,0.19013 -1.5,0.125 -0.4125,-0.0651 -0.75,0.25935 -0.75,0.72106 0,1.04663 -5.06809,3.42577 -5.78035,2.7135 -0.28704,-0.28704 -1.02509,0.16626 -1.6401,1.00734 -0.61501,0.84107 -2.122,1.60484 -3.34887,1.69726 -1.22688,0.0924 -2.23068,0.54882 -2.23068,1.01424 0,0.46542 -0.45,0.5681 -1,0.22818 -0.55,-0.33992 -1,-0.14148 -1,0.44098 0,0.58246 -0.64412,1.05902 -1.43138,1.05902 -1.72841,0 -18.80865,9.64332 -21.46725,12.12018 -1.03866,0.96766 -2.16137,1.48648 -2.49492,1.15294 C 355.2729,267.93957 355,268.21822 355,268.89235 c 0,0.67413 -0.41219,0.97093 -0.91598,0.65957 -0.5038,-0.31136 -2.39244,0.89959 -4.197,2.69099 -1.80456,1.7914 -2.93399,2.58209 -2.50986,1.75709 0.45649,-0.88793 0.19049,-0.79227 -0.65188,0.23446 -0.78267,0.95395 -1.63485,1.52263 -1.89375,1.26374 -0.25889,-0.25889 -2.12689,1.0463 -4.15112,2.90042 -2.02422,1.85411 -3.68265,3.08543 -3.68538,2.73625 -0.003,-0.34918 -1.16028,0.71513 -2.57233,2.36513 -1.41205,1.65 -2.26486,2.325 -1.89512,1.5 0.36974,-0.825 -0.99955,0.3 -3.04287,2.5 -2.04332,2.2 -3.13192,3.1 -2.41913,2 0.7128,-1.1 -0.69786,0.059 -3.13479,2.57551 -2.43694,2.51652 -3.98079,3.8387 -3.43079,2.93817 0.55,-0.90053 -0.90324,0.41549 -3.22943,2.9245 -2.32619,2.509 -4.23869,4.12482 -4.25,3.59071 C 312.99188,300.17439 300,313.18291 300,314.56612 c 0,0.61815 -1.0125,1.98115 -2.25,3.02889 l -2.25,1.90499 2,-2.5 2,-2.5 -2.22642,1.88365 c -1.22453,1.036 -1.98441,2.27522 -1.68863,2.75381 0.29579,0.47859 -2.95467,4.35595 -7.22324,8.61635 -4.26856,4.2604 -6.65868,6.85322 -5.31137,5.76182 2.01614,-1.63319 1.92392,-1.36773 -0.52111,1.5 -1.63393,1.9164 -4.10893,4.54626 -5.5,5.84412 -1.39108,1.29786 -1.85423,1.99898 -1.02923,1.55804 1.31419,-0.70239 1.3232,-0.56114 0.0727,1.14025 -0.78499,1.06808 -2.58499,3.00385 -4,4.30171 -1.41501,1.29786 -1.97703,2.03827 -1.24893,1.64535 1.08713,-0.58665 1.09604,-0.34964 0.0498,1.32557 -0.70068,1.12198 -1.64505,1.81062 -2.0986,1.53032 -0.45354,-0.28031 -0.76018,-0.1387 -0.68143,0.31468 0.35477,2.04224 -0.18116,3.38827 -1.11842,2.80902 -0.56362,-0.34834 -0.96033,-0.2624 -0.88158,0.19098 0.33673,1.93837 -0.15921,3.40184 -0.98074,2.89411 -0.4879,-0.30154 -0.8254,0.2344 -0.75,1.19098 0.0754,0.95658 -0.40921,1.63214 -1.07691,1.50124 -0.74852,-0.14675 -0.97094,0.39544 -0.58006,1.41404 0.4712,1.22794 0.26943,1.44042 -0.78599,0.82768 -0.78097,-0.4534 -1.10039,-0.47017 -0.70982,-0.0373 0.8937,0.9906 -1.90156,6.53354 -3.29482,6.53354 -0.56833,0 -0.75522,0.45 -0.4153,1 0.33992,0.55 0.11492,1 -0.5,1 -0.61492,0 -0.83992,0.45 -0.5,1 0.33992,0.55 0.14148,1 -0.44098,1 -0.58246,0 -1.00573,0.3375 -0.9406,0.75 0.31345,1.98515 -0.21726,3.30695 -1.10697,2.75708 -0.58718,-0.3629 -0.72119,0.0858 -0.33006,1.10503 0.44376,1.15641 0.28072,1.4825 -0.5,1 -0.78071,-0.48251 -0.94376,-0.15642 -0.5,1 0.44376,1.15641 0.28072,1.4825 -0.5,1 -0.74382,-0.45971 -0.95594,-0.18817 -0.59262,0.75863 0.31123,0.81104 -0.33143,2.37192 -1.42812,3.46861 -1.09669,1.09669 -1.73148,2.25648 -1.41065,2.57732 0.32083,0.32083 0.0318,0.58333 -0.64235,0.58333 -0.67413,0 -0.94757,0.45 -0.60765,1 0.33992,0.55 0.11492,1 -0.5,1 -0.61492,0 -0.86865,0.40351 -0.56385,0.89669 0.76633,1.23995 -1.89501,7.31112 -2.80568,6.40044 -0.4049,-0.40489 -0.41092,0.11144 -0.0134,1.1474 0.46735,1.21791 0.34923,1.65269 -0.33425,1.23028 -0.58137,-0.35931 -1.03695,-0.0956 -1.0124,0.58595 0.11557,3.20897 -0.35723,4.80363 -1.25899,4.24632 -0.56686,-0.35034 -0.7345,0.0511 -0.39301,0.94098 0.32755,0.85357 0.11152,1.55194 -0.48007,1.55194 -0.59237,0 -0.78872,0.74759 -0.43705,1.66404 0.42645,1.11132 0.25375,1.42623 -0.51993,0.94807 -0.75689,-0.46779 -0.95204,-0.178 -0.56295,0.83595 0.32755,0.85357 0.11152,1.55194 -0.48007,1.55194 -0.59158,0 -0.81658,0.675 -0.5,1.5 0.31659,0.825 0.0916,1.5 -0.5,1.5 -0.59237,0 -0.78872,0.74759 -0.43705,1.66404 0.4039,1.05254 0.2429,1.41952 -0.43812,0.99863 -0.69678,-0.43064 -0.87758,0.0959 -0.51242,1.49232 0.42037,1.60751 0.22969,1.95097 -0.74776,1.34687 -0.8234,-0.50888 -1.06994,-0.41915 -0.66199,0.24093 0.85699,1.38663 -0.35782,7.36487 -1.36953,6.7396 -0.43174,-0.26683 -0.53106,0.48584 -0.22072,1.6726 0.34584,1.3225 0.17211,1.91539 -0.4488,1.53164 -0.62756,-0.38785 -0.8226,0.37026 -0.51253,1.99226 0.32117,1.68009 0.12365,2.38544 -0.5512,1.96835 -0.66703,-0.41224 -0.84533,0.13927 -0.48747,1.50775 0.34584,1.3225 0.17211,1.91539 -0.4488,1.53164 -0.62756,-0.38785 -0.8226,0.37026 -0.51253,1.99226 0.30628,1.6022 0.11223,2.37838 -0.5,2 -0.61224,-0.37838 -0.80628,0.3978 -0.5,2 0.2947,1.54163 0.10409,2.37335 -0.46352,2.02255 -0.57243,-0.35379 -0.77986,0.65908 -0.51064,2.49342 0.26594,1.81197 0.0592,2.84561 -0.5,2.5 -0.55921,-0.34561 -0.76594,0.68803 -0.5,2.5 0.26594,1.81197 0.0592,2.84561 -0.5,2.5 -0.55921,-0.34561 -0.76594,0.68803 -0.5,2.5 0.34337,2.33953 0.14062,2.89593 -0.83545,2.29268 -0.8668,-0.53571 -1.0444,-0.40102 -0.54235,0.41131 0.41057,0.66433 0.42931,3.94074 0.0417,7.28092 -0.41365,3.564 -1.0269,5.55196 -1.48436,4.81178 -0.42873,-0.69369 -0.56879,0.93692 -0.31125,3.62359 0.31839,3.32146 0.15836,4.44164 -0.5,3.5 -0.65724,-0.94001 -0.80045,0.10395 -0.44584,3.25 0.28733,2.54917 0.12639,4.63502 -0.35764,4.63521 -0.48451,1.9e-4 -0.88005,11.86827 -0.88005,26.4055 0,14.52283 0.36822,25.88518 0.81826,25.24965 0.45004,-0.63552 0.63977,1.41082 0.42163,4.54744 -0.23857,3.43027 -0.0197,5.46996 0.54933,5.11831 0.55719,-0.34436 0.78733,1.07887 0.55997,3.46294 -0.22015,2.30853 0.01,3.80312 0.53461,3.47861 0.5365,-0.33158 0.68818,1.1639 0.36353,3.58434 -0.37504,2.79613 -0.21038,3.93904 0.50389,3.49759 0.7099,-0.43873 0.84886,0.40489 0.41994,2.54949 -0.44808,2.24038 -0.30412,2.99697 0.47825,2.51344 0.76535,-0.47301 0.97591,0.2851 0.66588,2.39748 -0.26922,1.83434 -0.0618,2.84721 0.51064,2.49342 0.56761,-0.3508 0.75822,0.48092 0.46352,2.02255 -0.30628,1.6022 -0.11224,2.37838 0.5,2 0.61349,-0.37916 0.80467,0.40621 0.49421,2.03027 -0.27847,1.45674 -0.0662,2.64862 0.47164,2.64862 0.53788,0 0.74261,0.9 0.45495,2 -0.28766,1.1 -0.0627,2 0.5,2 0.56266,0 0.78766,0.9 0.5,2 -0.28766,1.1 -0.0627,2 0.5,2 0.56266,0 0.7875,0.90062 0.49964,2.00138 -0.32962,1.26045 -0.12937,1.75788 0.54089,1.34363 0.68188,-0.42142 0.86166,0.11703 0.50036,1.49862 -0.31014,1.186 -0.10788,2.15637 0.44947,2.15637 0.55735,0 0.75435,0.675 0.43776,1.5 -0.31658,0.825 -0.0916,1.5 0.5,1.5 0.59159,0 0.81659,0.675 0.5,1.5 -0.31658,0.825 -0.0916,1.5 0.5,1.5 0.59159,0 0.82774,0.64593 0.5248,1.43539 -0.30295,0.78947 -0.0846,1.59079 0.48514,1.78071 0.56978,0.18993 1.107,1.56868 1.19382,3.06391 0.0868,1.49522 0.52193,2.7189 0.96689,2.71928 0.44496,3.9e-4 0.5309,0.45071 0.19098,1.00071 -0.33992,0.55 -0.10398,1 0.52432,1 0.62829,0 0.95619,0.55848 0.72866,1.24107 -0.22753,0.68259 0.21085,1.86561 0.97417,2.62894 0.76333,0.76333 1.15111,2.00485 0.86175,2.75893 -0.28937,0.75408 -0.0637,1.37106 0.5015,1.37106 0.5652,0 0.76874,0.41891 0.45231,0.9309 -0.31644,0.512 -0.11799,1.21356 0.44098,1.55902 0.55897,0.34546 1.01631,1.50156 1.01631,2.5691 0,1.06754 0.47656,1.94098 1.05902,1.94098 0.58246,0 0.7809,0.45 0.44098,1 -0.33992,0.55 -0.0665,1 0.60765,1 0.67413,0 0.9619,0.26378 0.63951,0.58618 -0.87745,0.87745 4.78486,12.94584 7.21345,15.37443 1.16179,1.16179 1.84437,2.54593 1.51685,3.07586 -0.32752,0.52994 -0.0439,0.96353 0.63019,0.96353 0.67413,0 0.94711,0.27857 0.60664,0.61905 -0.34048,0.34047 0.0387,1.27675 0.84252,2.08062 0.80386,0.80386 1.16291,1.94482 0.79787,2.53546 -0.39342,0.63658 -0.19356,0.78332 0.49081,0.36036 1.03093,-0.63714 1.60398,0.55787 1.27293,2.65451 -0.0651,0.4125 0.35814,0.75 0.9406,0.75 0.58246,0 0.7809,0.45 0.44098,1 -0.33992,0.55 -0.11492,1 0.5,1 0.61492,0 0.83795,0.45318 0.49563,1.00706 -0.34231,0.55389 0.0811,1.27703 0.94099,1.60699 0.85986,0.32996 1.56338,1.0713 1.56338,1.64741 0,1.50189 10.16145,16.73854 11.16307,16.73854 0.46031,0 0.83693,0.57471 0.83693,1.27714 0,0.70243 1.30094,2.70148 2.89098,4.44235 1.59004,1.74087 2.69134,3.36486 2.44734,3.60886 -0.24401,0.244 0.76574,1.39494 2.24388,2.55765 1.47813,1.1627 2.35731,2.114 1.95371,2.114 -1.20966,0 9.11731,11.78918 20.32026,23.19743 5.7777,5.88359 10.9432,10.42657 11.47888,10.0955 0.53568,-0.33107 0.70076,-0.15989 0.36684,0.38041 -0.85292,1.38005 17.55178,16.73966 18.69204,15.5994 0.33334,-0.33334 0.60607,-0.14227 0.60607,0.42459 0,1.46425 7.69025,6.61214 8.82759,5.90923 0.51977,-0.32124 1.1503,0.19837 1.40119,1.15469 0.25088,0.95631 1.76454,2.41303 3.36369,3.23716 1.59914,0.82412 3.13253,1.77154 3.40753,2.10538 0.79774,0.96841 16.1312,10.41233 20.643,12.71408 2.26014,1.15304 4.39008,1.81572 4.73318,1.47262 0.3431,-0.3431 0.62382,-0.0723 0.62382,0.60186 0,0.67413 0.45,0.94757 1,0.60765 0.55,-0.33992 1,-0.19607 1,0.31966 0,0.93715 5.18341,3.43894 7.98185,3.85246 0.81501,0.12043 1.64095,0.69628 1.83541,1.27965 0.19446,0.58338 0.76513,0.80633 1.26815,0.49544 C 393.58843,781.13633 394,781.38508 394,782 c 0,0.61492 0.45,0.83992 1,0.5 0.55,-0.33992 1,-0.1556 1,0.4096 0,0.5652 0.675,0.76861 1.5,0.45203 0.825,-0.31659 1.5,-0.0509 1.5,0.5904 0,0.6413 0.41372,0.91031 0.91938,0.5978 0.50566,-0.31252 1.59852,0.11092 2.42857,0.94098 0.83006,0.83005 2.44134,1.50919 3.58062,1.50919 1.13929,0 2.07143,0.47656 2.07143,1.05902 0,0.58246 0.41891,0.80012 0.9309,0.48369 0.512,-0.31644 1.21809,-0.11065 1.5691,0.45729 0.35101,0.56794 1.0571,0.77373 1.5691,0.45729 0.51199,-0.31643 0.9309,-0.0506 0.9309,0.59068 0,0.6413 0.675,0.90699 1.5,0.5904 0.825,-0.31658 1.5,-0.15385 1.5,0.36163 0,0.51548 0.675,0.67821 1.5,0.36163 0.82569,-0.31685 1.5,-0.0299 1.5,0.63837 0,0.66825 0.67431,0.95522 1.5,0.63837 0.825,-0.31658 1.5,-0.15385 1.5,0.36163 0,0.51548 0.675,0.67821 1.5,0.36163 0.825,-0.31659 1.5,-0.0916 1.5,0.5 0,0.59158 0.675,0.81658 1.5,0.5 0.82569,-0.31685 1.5,-0.0299 1.5,0.63837 0,0.66825 0.67431,0.95522 1.5,0.63837 0.825,-0.31658 1.50089,-0.25222 1.50199,0.14301 0.001,0.39524 1.4291,0.81912 3.17334,0.94196 1.74425,0.12284 3.63335,0.68534 4.19801,1.25 1.31232,1.31232 2.9392,1.34138 2.13374,0.0381 -0.34985,-0.56607 0.0498,-0.73497 0.93524,-0.39521 0.85041,0.32633 1.26742,1.04439 0.92671,1.59568 -0.38376,0.62093 0.18921,0.74568 1.50574,0.32783 C 445.18947,799.12248 446,799.29801 446,800 c 0,0.6797 0.80205,0.88021 2,0.5 1.12148,-0.35594 2,-0.1797 2,0.40123 0,0.5698 0.62948,0.79445 1.39885,0.49921 0.76937,-0.29523 1.66981,-0.0984 2.001,0.43751 0.33118,0.53586 1.45091,0.75233 2.48829,0.48105 1.03738,-0.27128 2.18951,-0.002 2.56029,0.59755 0.37078,0.59994 1.72247,0.82768 3.00376,0.50609 1.28129,-0.32158 2.61812,-0.11789 2.97074,0.45266 0.35262,0.57054 1.30171,0.78386 2.1091,0.47404 0.80738,-0.30983 2.25547,-0.22559 3.21797,0.18718 0.9625,0.41277 2.9875,0.652 4.5,0.53162 1.5125,-0.12038 2.75,0.18006 2.75,0.66764 0,0.48759 2.47576,0.78824 5.50169,0.66812 3.02593,-0.12012 5.3036,0.10213 5.06148,0.49389 -0.24212,0.39176 3.69462,0.60388 8.74831,0.47138 6.40136,-0.16782 8.12686,0.003 5.68852,0.56333 -3.00822,0.69122 -2.55156,0.82271 3.25,0.93586 3.92109,0.0765 6.75,-0.28746 6.75,-0.86836 z m -21.43723,-32.10157 c 0.27596,-0.44651 -1.83322,-0.5353 -4.68707,-0.1973 -3.17591,0.37614 -4.96134,0.24645 -4.60241,-0.33431 0.34049,-0.55093 -0.78605,-0.78861 -2.68628,-0.56677 -2.90932,0.33965 -3.45671,-0.006 -4.92986,-3.11012 C 472.74572,769.76923 472,766.35325 472,764.09887 V 760 h -23.5 c -15.98909,0 -23.5,-0.34115 -23.5,-1.06739 0,-0.61231 -0.85269,-0.79675 -2,-0.43261 -1.23506,0.39199 -2,0.1797 -2,-0.55506 0,-0.8953 -0.3713,-0.88168 -1.5,0.0551 -1.22644,1.01785 -1.5,0.95472 -1.5,-0.34617 0,-0.93693 -0.56368,-1.37476 -1.37106,-1.06493 -0.75408,0.28936 -2.18444,-0.28726 -3.17857,-1.28139 -0.99413,-0.99413 -1.96588,-1.6691 -2.15943,-1.49994 -0.46412,0.40565 -19.43227,-9.65127 -22.34043,-11.8449 -1.43767,-1.08444 -2.03491,-2.30034 -1.63799,-3.33471 0.5603,-1.46012 3.69516,-1.60639 30.4061,-1.41876 24.59648,0.17278 27.1699,0.31046 14.78138,0.7908 -13.13156,0.50915 -11.60567,0.60766 12.25,0.7908 L 472,739 v -8.5 -8.5 l -57.75,-5.4e-4 -57.75,-5.3e-4 -6.9343,-6.24947 C 334.15018,701.8564 333.65704,701.33612 334.30469,699.64838 334.88072,698.14726 339.45694,698 385.52763,698 c 33.47229,0 50.38128,0.33837 49.97237,1 -0.40348,0.65284 5.77763,1 17.80503,1 h 18.42305 l 0.18735,-8.5 0.18734,-8.5 h -77.09503 -77.09503 l -2.3078,-2.25 C 312.26234,677.49114 301,662.30678 301,661.05904 c 0,-0.71463 7.72384,-1.071 23.75,-1.09581 13.0625,-0.0202 43.55,-0.26456 67.75,-0.54297 24.2,-0.2784 52.18538,-0.48685 62.18973,-0.46322 l 18.18972,0.043 0.0979,-31.75 c 0.10291,-33.36635 0.53545,-49.74772 1.37964,-52.25 0.27833,-0.825 1.19429,-3.98383 2.03548,-7.01962 C 478.98076,558.63947 488.23097,547 493.06618,547 c 1.09812,0 2.25091,-0.66276 2.56176,-1.4728 0.45792,-1.19334 3.2135,-2.18652 8.37206,-3.01752 0.275,-0.0443 1.5756,-0.67671 2.89022,-1.40534 3.14367,-1.7424 10.02745,-0.81035 18.02939,2.44112 3.39892,1.38111 6.677,2.20385 7.28463,1.82831 0.63524,-0.3926 0.82396,-0.22841 0.44404,0.38631 -0.36341,0.58801 0.83523,1.99366 2.66363,3.12367 3.67161,2.26918 12.25392,11.18213 11.9075,12.36625 -0.12067,0.4125 0.30559,0.75 0.94726,0.75 0.64166,0 0.88809,0.27857 0.54762,0.61905 -0.34048,0.34047 0.0604,1.2985 0.89084,2.12894 0.83044,0.83044 1.27313,2.12687 0.98377,2.88095 -0.28937,0.75408 -0.0378,1.37106 0.55912,1.37106 0.59688,0 0.84973,0.90062 0.56187,2.00138 -0.32061,1.22602 -0.12353,1.75426 0.50871,1.36352 0.66206,-0.40918 0.88281,0.64075 0.61573,2.92847 -0.22899,1.96149 -0.0604,3.34635 0.37466,3.07747 C 553.64405,578.10196 554,596.13352 554,618.44098 V 659 h 85.03138 c 92.76099,0 88.35211,-0.28661 84.56244,5.49715 -0.89434,1.36494 -1.7079,2.82397 -1.8079,3.24228 -0.1,0.41831 -1.10525,1.58235 -2.23387,2.58676 -1.12863,1.0044 -1.37705,1.53262 -0.55205,1.17381 0.825,-0.35881 0.375,0.34141 -1,1.55604 -1.375,1.21463 -2.39198,2.58548 -2.25995,3.04633 0.13202,0.46085 -0.66808,1.32393 -1.77801,1.91795 -1.10993,0.59401 -1.71092,1.57698 -1.33554,2.18436 0.41328,0.66871 0.22431,0.82115 -0.47905,0.38645 -0.65019,-0.40184 -1.4257,-0.0296 -1.7615,0.84549 C 709.84898,682.83595 701.61227,683 631.89301,683 H 554 v 6.94098 c 0,3.81754 0.45734,7.22364 1.01631,7.5691 0.55897,0.34546 0.75742,1.04702 0.44098,1.55902 -0.34569,0.55934 4.73687,0.87426 12.73369,0.78899 8.85766,-0.0944 11.97117,-0.38281 9.30902,-0.86219 -2.2,-0.39617 22.31888,-0.66981 54.48641,-0.6081 57.1895,0.10971 58.49475,0.15554 58.86266,2.0665 0.22771,1.18267 -0.59222,2.76201 -2.07663,4 -1.3491,1.12513 -6.73872,5.5332 -11.97695,9.7957 L 667.27144,722 H 610.13572 553 v 7.5 c 0,4.125 0.3375,7.44671 0.75,7.38158 0.4125,-0.0651 19.73218,-0.0651 42.93261,0 41.27314,0.11587 42.19632,0.16161 42.81836,2.12149 0.66145,2.08403 -0.91477,4.24289 -3.52478,4.82769 -0.8119,0.18191 -1.84135,0.97888 -2.28765,1.77103 -0.4463,0.79215 -1.2338,1.17925 -1.75,0.86023 C 631.42234,746.14299 631,746.38508 631,747 c 0,0.61492 -0.41372,0.86234 -0.91938,0.54983 -0.50566,-0.31252 -1.57709,0.0895 -2.38095,0.89336 -0.80387,0.80386 -1.74015,1.183 -2.08062,0.84252 -0.34048,-0.34047 -0.61905,-0.0675 -0.61905,0.60664 0,0.67413 -0.45,0.94757 -1,0.60765 -0.55,-0.33992 -1,-0.11492 -1,0.5 0,0.61492 -0.45,0.83992 -1,0.5 -0.55,-0.33992 -1,-0.11492 -1,0.5 0,0.61492 -0.45,0.83992 -1,0.5 -0.55,-0.33992 -1,-0.11492 -1,0.5 0,0.61492 -0.45,0.83992 -1,0.5 -0.55,-0.33992 -1,-0.11492 -1,0.5 0,0.61492 -0.45,0.83992 -1,0.5 -0.55,-0.33992 -1,-0.11492 -1,0.5 0,0.61492 -0.45,0.83992 -1,0.5 -0.55,-0.33992 -1,-0.0933 -1,0.54797 0,0.6413 -0.675,0.90699 -1.5,0.5904 -0.825,-0.31658 -1.5,-0.11317 -1.5,0.45203 0,0.5652 -0.45,0.74952 -1,0.4096 -0.55,-0.33992 -1,-0.22789 -1,0.24896 0,0.47685 -3.9375,0.78994 -8.75,0.69577 l -8.75,-0.17121 7.5,0.67986 c 4.125,0.37392 7.05,0.86783 6.5,1.09757 -0.55,0.22974 -12.025,0.42476 -25.5,0.43338 l -24.5,0.0157 -0.31052,5.48813 c -0.40381,7.1371 -2.32818,9.39073 -7.43395,8.70591 C 544.68999,774.41699 543,774.54503 543,774.97858 c 0,1.2092 -4.41879,1.78057 -6.84092,0.88456 -1.1875,-0.43928 -2.15916,-0.47569 -2.15927,-0.0809 -10e-5,0.39478 -9.88637,0.76509 -21.96948,0.82292 -12.08312,0.0578 -21.74352,-0.2602 -21.46756,-0.70671 z M 533.5,773.00997 c 4.95,-0.53549 10.9125,-1.23437 13.25,-1.55307 L 551,770.87745 V 763.43873 756 h 27.03013 c 30.65728,0 29.65861,0.20482 47.96987,-9.83812 L 634.5,741.5 593,741 551.5,740.5 551.21617,729.75 550.93234,719 h 57.96832 57.96832 l 7.31551,-5.9131 c 4.02353,-3.2522 8.66551,-7.06102 10.31551,-8.46404 l 3,-2.55093 -68.28275,-0.036 L 550.9345,702 551.21725,690.75 551.5,679.5 l 79.16908,-0.5 79.16908,-0.5 3.38757,-4.5 c 1.86317,-2.475 4.56731,-6.075 6.00921,-8 l 2.62163,-3.5 -68.17828,0.11451 c -37.49806,0.063 -76.05329,-0.16202 -85.67829,-0.5 L 550.5,661.5 l -0.54683,-44 c -0.33864,-27.24807 -0.95414,-45.15302 -1.61666,-47.02847 -3.55722,-10.06974 -11.4002,-18.80593 -20.61844,-22.9666 -18.9646,-8.5597 -42.39301,1.71042 -48.90302,21.43722 -2.05234,6.21908 -2.18452,8.75238 -2.55862,49.03856 -0.22852,24.60787 -0.79263,42.96045 -1.34081,43.62096 -0.69628,0.83897 -23.26935,1.10829 -85.43101,1.01929 -46.46658,-0.0665 -84.48467,0.0181 -84.48465,0.18808 2e-5,0.16997 2.72026,3.88247 6.04498,8.25 L 317.08988,679 h 78.84807 c 70.97664,0 78.90867,0.15791 79.45506,1.58179 0.7887,2.05532 0.7887,17.7811 0,19.83642 -0.54525,1.42091 -7.51814,1.58179 -68.55902,1.58179 -46.4778,0 -67.75034,0.32633 -67.31383,1.03262 0.35101,0.56794 4.48181,4.39294 9.17956,8.5 L 357.24109,719 h 58.77247 c 52.67031,0 58.83548,0.16423 59.37945,1.58179 0.79007,2.05887 0.77567,9.90841 -0.0289,15.77864 L 474.72815,741 l -41.11407,0.0177 -41.11408,0.0177 6.70728,3.91479 c 3.689,2.15314 10.71979,5.52018 15.62398,7.48231 L 423.74797,756 H 449.267 c 28.95517,0 26.733,-0.75115 26.733,9.03647 v 5.8729 l 3.58214,0.67202 c 12.06492,2.26339 39.48523,2.9899 53.91786,1.42858 z m -69.2009,-14.75316 c -4.51049,-0.18486 -12.16049,-0.1858 -17,-0.002 -4.8395,0.1837 -1.1491,0.33495 8.2009,0.3361 9.35,10e-4 13.3096,-0.14916 8.7991,-0.33401 z m 96.4509,0.0539 c -0.9625,-0.25152 -2.5375,-0.25152 -3.5,0 -0.9625,0.25153 -0.175,0.45733 1.75,0.45733 1.925,0 2.7125,-0.2058 1.75,-0.45733 z m 5.97917,0.0852 c -0.33229,-0.33229 -1.1948,-0.36781 -1.91667,-0.0789 -0.79773,0.31922 -0.56078,0.55618 0.60417,0.60416 1.05416,0.0434 1.64479,-0.19293 1.3125,-0.52522 z M 513.25,541.33772 c -0.6875,-0.27741 -1.8125,-0.27741 -2.5,0 -0.6875,0.27741 -0.125,0.50439 1.25,0.50439 1.375,0 1.9375,-0.22698 1.25,-0.50439 z m 54,156.97295 c 0.9625,-0.25152 2.5375,-0.25152 3.5,0 0.9625,0.25153 0.175,0.45733 -1.75,0.45733 -1.925,0 -2.7125,-0.2058 -1.75,-0.45733 z M 289.79114,641.33024 c -0.93987,-0.25357 -2.72113,-2.11911 -3.95835,-4.14564 -1.23721,-2.02653 -2.89947,-4.17883 -3.69391,-4.7829 -0.79444,-0.60406 -1.14655,-1.58028 -0.78246,-2.16938 0.36408,-0.58909 0.004,-1.72879 -0.79961,-2.53265 -0.80386,-0.80387 -1.183,-1.74015 -0.84252,-2.08062 0.34047,-0.34048 0.0675,-0.61905 -0.60664,-0.61905 -0.67413,0 -0.94757,-0.45 -0.60765,-1 0.33992,-0.55 0.11492,-1 -0.5,-1 -0.61492,0 -0.83992,-0.45 -0.5,-1 0.33992,-0.55 0.11492,-1 -0.5,-1 -0.61492,0 -0.83992,-0.45 -0.5,-1 0.33992,-0.55 0.0665,-1 -0.60765,-1 -0.67413,0 -0.94711,-0.27857 -0.60664,-0.61905 0.34048,-0.34047 -0.0604,-1.2985 -0.89084,-2.12894 -0.83044,-0.83044 -1.26417,-2.15024 -0.96383,-2.93289 0.34612,-0.90198 0.12188,-1.16084 -0.61243,-0.70701 -0.77368,0.47816 -0.94638,0.16325 -0.51993,-0.94807 C 272.65035,610.74759 272.454,610 271.86163,610 c -0.59159,0 -0.80762,-0.69837 -0.48007,-1.55194 0.38909,-1.01395 0.19394,-1.30374 -0.56295,-0.83595 -0.77368,0.47816 -0.94638,0.16325 -0.51993,-0.94807 C 270.65035,605.74759 270.454,605 269.86163,605 c -0.59159,0 -0.81659,-0.675 -0.5,-1.5 0.31658,-0.825 0.0916,-1.5 -0.5,-1.5 -0.59159,0 -0.81659,-0.675 -0.5,-1.5 0.31658,-0.825 0.0916,-1.5 -0.5,-1.5 -0.59159,0 -0.81659,-0.675 -0.5,-1.5 0.31658,-0.825 0.15385,-1.5 -0.36163,-1.5 -0.51548,0 -0.64988,-0.74882 -0.29868,-1.66404 0.46424,-1.20979 0.27618,-1.44009 -0.6889,-0.84363 -0.99586,0.61547 -1.18651,0.28139 -0.7632,-1.33734 0.36157,-1.38267 0.18197,-1.92148 -0.5,-1.5 -0.68197,0.42148 -0.86158,-0.11733 -0.5,-1.5 0.36157,-1.38267 0.18197,-1.92148 -0.5,-1.5 -0.68188,0.42142 -0.86166,-0.11703 -0.50036,-1.49862 0.31014,-1.186 0.10355,-2.15637 -0.45911,-2.15637 -0.56266,0 -0.78766,-0.9 -0.5,-2 0.28766,-1.1 0.0627,-2 -0.5,-2 -0.56266,0 -0.7875,-0.90062 -0.49964,-2.00138 0.32617,-1.24729 0.1271,-1.75647 -0.52836,-1.35138 -0.67485,0.41709 -0.87237,-0.28826 -0.5512,-1.96835 0.30964,-1.61978 0.11472,-2.37992 -0.51111,-1.99314 -0.64859,0.40086 -0.78159,-0.52502 -0.3706,-2.57997 0.45472,-2.2736 0.3094,-3.00023 -0.5,-2.5 -0.80939,0.50023 -0.95472,-0.2264 -0.5,-2.5 0.45472,-2.27356 0.30939,-3.00023 -0.49997,-2.50002 -0.81227,0.50202 -0.9701,-0.34801 -0.54781,-2.95028 0.37083,-2.28521 0.19505,-3.65548 -0.46893,-3.65548 -0.65066,0 -0.82584,-1.18147 -0.45219,-3.04971 0.42721,-2.13605 0.27084,-2.84014 -0.52194,-2.35017 -0.80861,0.49975 -0.97785,-0.66699 -0.59258,-4.08515 0.29662,-2.63157 0.20658,-4.24631 -0.2001,-3.58831 -1.71223,2.77046 -2.76639,-34.64041 -1.38752,-49.24185 0.35397,-3.74836 0.97734,-6.27517 1.38526,-5.61514 0.40791,0.66002 0.49898,-0.95307 0.20236,-3.58464 -0.37297,-3.309 -0.20383,-4.57736 0.54841,-4.11245 0.74213,0.45866 0.9061,-0.44684 0.51609,-2.85017 C 255.94464,475.27145 256.13748,474 256.84416,474 c 0.69538,0 0.88313,-1.11353 0.50584,-3 -0.33046,-1.65232 -0.17242,-3 0.35181,-3 0.52349,0 0.74428,-1.41392 0.49065,-3.14205 -0.28234,-1.92372 -0.0773,-2.90483 0.52874,-2.53026 0.59265,0.36628 0.80043,-0.37931 0.51777,-1.85795 C 258.9793,459.11138 259.22718,458 259.7898,458 c 0.56263,0 0.78761,-0.9 0.49995,-2 -0.28766,-1.1 -0.0627,-2 0.5,-2 0.56266,0 0.78766,-0.9 0.5,-2 -0.28766,-1.1 -0.0346,-2 0.56223,-2 0.59689,0 0.82623,-0.675 0.50965,-1.5 -0.31659,-0.825 -0.0577,-1.5 0.57522,-1.5 0.63295,0 1.05893,-0.5625 0.94662,-1.25 -0.11232,-0.6875 0.32118,-2.52526 0.96332,-4.08392 0.64213,-1.55865 0.93649,-3.20772 0.65413,-3.66459 -0.28236,-0.45687 -0.0738,-0.9816 0.46338,-1.16608 0.53722,-0.18448 1.10253,-1.46041 1.25623,-2.83541 0.15371,-1.375 0.53825,-2.725 0.85454,-3 0.31628,-0.275 2.2748,-4.91611 4.35226,-10.31358 4.69217,-12.19079 12.35015,-27.21576 20.3156,-39.85923 3.3483,-5.31471 5.82589,-9.92503 5.50577,-10.24515 C 297.92858,370.26192 298.11538,370 298.66381,370 c 0.54843,0 2.508,-2.10382 4.3546,-4.67516 1.84659,-2.57134 2.71038,-4.32196 1.91952,-3.89026 -0.79086,0.43171 -0.0879,-0.42202 1.56207,-1.89717 1.65,-1.47514 2.325,-2.37514 1.5,-2 -0.825,0.37515 -0.15,-0.47612 1.5,-1.8917 1.65,-1.41558 2.64684,-2.58997 2.2152,-2.60975 -0.43163,-0.0198 0.82098,-1.44585 2.78359,-3.16904 1.96261,-1.7232 3.36705,-3.33441 3.12099,-3.58047 -0.24607,-0.24607 1.3101,-2.03518 3.45814,-3.97581 2.14804,-1.94062 3.61472,-3.99894 3.25929,-4.57403 -0.35542,-0.5751 -0.19556,-0.7671 0.35526,-0.42668 1.29796,0.80219 6.57669,-4.68313 5.57153,-5.78959 -0.4202,-0.46254 -0.23259,-0.5365 0.4169,-0.16435 1.17635,0.67403 2.77466,-0.95404 2.80379,-2.85599 0.008,-0.55 0.56697,-1 1.24122,-1 0.67424,0 3.14924,-2.05898 5.5,-4.57551 2.35075,-2.51652 3.82409,-3.85115 3.27409,-2.96583 -0.55,0.88533 0.8,-0.24798 3,-2.51845 2.2,-2.27047 4.87388,-4.76084 5.94196,-5.53417 1.69373,-1.22631 1.84426,-1.2143 1.17766,0.094 -0.42036,0.825 0.29767,0.2625 1.59561,-1.25 1.29794,-1.5125 2.93205,-2.75 3.63135,-2.75 0.6993,0 1.06128,-0.34007 0.8044,-0.75571 -0.25688,-0.41563 1.37181,-2.0775 3.6193,-3.69303 2.24749,-1.61553 3.74206,-2.28796 3.32126,-1.49429 -0.4208,0.79367 0.21301,0.31803 1.40846,-1.05697 1.19545,-1.375 1.87045,-1.825 1.5,-1 -0.37045,0.825 0.30455,0.375 1.5,-1 1.19545,-1.375 1.87045,-1.825 1.5,-1 -0.37045,0.825 0.30455,0.375 1.5,-1 1.19545,-1.375 1.87045,-1.825 1.5,-1 -0.37045,0.825 0.153,0.51497 1.16322,-0.68896 1.01023,-1.20393 2.51015,-2.32893 3.33316,-2.5 0.82301,-0.17107 2.09388,-0.98604 2.82416,-1.81104 1.18024,-1.33333 1.25574,-1.33333 0.67946,0 -0.4326,1.00089 -0.17482,0.92288 0.77472,-0.23446 0.78267,-0.95395 1.71604,-1.44145 2.07416,-1.08333 0.35811,0.35812 0.65112,0.13768 0.65112,-0.48986 0,-1.37471 5.48456,-4.37446 6.37322,-3.4858 0.34473,0.34473 0.62678,0.0752 0.62678,-0.5989 0,-0.67413 0.45,-0.94757 1,-0.60765 0.55,0.33992 1,0.11492 1,-0.5 0,-0.61492 0.45,-0.83992 1,-0.5 0.55,0.33992 1,0.14906 1,-0.42414 0,-1.19951 9.93496,-6.47424 10.71848,-5.69071 0.28579,0.28579 1.19907,-0.15984 2.02951,-0.99028 0.83044,-0.83044 2.15024,-1.26417 2.93289,-0.96383 0.78265,0.30033 1.17721,0.14836 0.8768,-0.33771 -0.65895,-1.06621 2.248,-2.33146 3.53256,-1.53756 0.50037,0.30925 0.90976,0.0376 0.90976,-0.60374 0,-0.6413 0.675,-0.90699 1.5,-0.5904 0.825,0.31658 1.5,0.0916 1.5,-0.5 0,-0.59159 0.69837,-0.80762 1.55194,-0.48007 1.00614,0.38609 1.30283,0.19247 0.84363,-0.55054 -0.48178,-0.77953 -0.0182,-0.9656 1.44944,-0.5818 1.39639,0.36516 1.92296,0.18436 1.49232,-0.51242 -0.42089,-0.68102 -0.0539,-0.84202 0.99863,-0.43812 0.91645,0.35167 1.66404,0.15532 1.66404,-0.43705 0,-0.59159 0.69837,-0.80762 1.55194,-0.48007 1.00614,0.38609 1.30283,0.19247 0.84363,-0.55054 -0.48172,-0.77942 -0.0185,-0.96567 1.44806,-0.58216 1.186,0.31014 2.15637,0.10788 2.15637,-0.44947 0,-0.55735 0.675,-0.75435 1.5,-0.43776 0.825,0.31658 1.5,0.0916 1.5,-0.5 0,-0.59159 0.675,-0.81659 1.5,-0.5 0.825,0.31658 1.5,0.0872 1.5,-0.50965 0,-0.59688 0.90062,-0.84973 2.00138,-0.56187 1.26045,0.32962 1.75788,0.12937 1.34363,-0.54089 -0.42142,-0.68188 0.11703,-0.86166 1.49862,-0.50036 1.186,0.31014 2.15637,0.10355 2.15637,-0.45911 0,-0.56266 0.9,-0.78766 2,-0.5 1.1,0.28766 2,0.0627 2,-0.5 0,-0.56266 0.9,-0.78766 2,-0.5 1.1,0.28766 2,0.0627 2,-0.5 0,-0.56266 0.9,-0.78766 2,-0.5 1.1,0.28766 2,0.0627 2,-0.49995 0,-0.56262 1.125,-0.8079 2.5,-0.54505 1.375,0.26285 2.5,0.0378 2.5,-0.50005 0,-0.53788 0.9,-0.74261 2,-0.45495 1.1,0.28766 2,0.0589 2,-0.50837 0,-0.61264 1.21799,-0.78778 3,-0.43138 1.88249,0.3765 3,0.1892 3,-0.50281 0,-0.72655 1.36474,-0.88458 4,-0.46318 2.72153,0.43519 4,0.27152 4,-0.5121 0,-0.79855 1.69125,-0.97716 5.51534,-0.58248 3.03344,0.31308 5.28736,0.20034 5.00871,-0.25052 -0.27865,-0.45086 5.16336,-0.84405 12.09336,-0.87375 6.92999,-0.0297 13.82758,-0.32362 15.32797,-0.65316 1.50039,-0.32954 4.77254,0.095 7.27146,0.94338 2.63481,0.89455 5.84113,1.28303 7.63247,0.92476 1.69894,-0.33979 3.89036,-0.25067 4.86983,0.19803 1.87721,0.85997 5.94113,1.39748 10.53086,1.39284 1.5125,-0.002 2.75,0.39197 2.75,0.87443 0,0.48247 1.125,0.66216 2.5,0.39931 1.4796,-0.28284 2.5,-0.0144 2.5,0.65772 0,0.712 0.9326,0.90157 2.5,0.50817 1.37935,-0.34619 2.5,-0.19276 2.5,0.34228 0,0.53335 1.125,0.75468 2.5,0.49183 1.375,-0.26285 2.5,-0.0176 2.5,0.54505 0,0.56263 0.9,0.78761 2,0.49995 1.17943,-0.30843 2,-0.0307 2,0.67695 0,0.65998 0.5507,1.0164 1.22379,0.79204 0.67308,-0.22436 2.32831,0.16511 3.6783,0.86549 1.34998,0.70038 2.87459,1.01379 3.38801,0.69648 0.51343,-0.31732 1.25429,-0.0579 1.64637,0.57649 0.39207,0.63439 2.02926,1.32502 3.63819,1.53473 4.92389,0.6418 8.42534,1.74106 8.42534,2.64509 0,0.47312 0.675,0.60119 1.5,0.28461 0.825,-0.31659 1.5,-0.13498 1.5,0.40357 0,0.53855 1.76807,1.26191 3.92904,1.60746 2.16098,0.34556 4.52348,1.19057 5.25,1.87781 0.72653,0.68724 2.17579,1.39722 3.22059,1.57773 1.04479,0.1805 2.53943,0.968 3.32142,1.75 1.29811,1.2981 2.11664,1.57735 3.91715,1.33639 0.351,-0.047 0.9135,0.29525 1.25,0.7605 0.33649,0.46525 3.0868,1.95689 6.1118,3.31475 3.025,1.35786 6.625,3.20817 8,4.1118 6.87721,4.51961 22.60842,13.76711 23.3882,13.74861 0.4885,-0.0116 1.1635,0.40866 1.5,0.93388 0.33649,0.52522 3.7618,3.33643 7.6118,6.24713 3.85,2.91069 9.76916,7.6944 13.15368,10.63046 3.38453,2.93605 6.36836,5.33828 6.63074,5.33828 0.88108,0 16.4376,16.41612 23.69092,25 3.95035,4.675 8.43396,9.9625 9.96358,11.75 1.52963,1.7875 2.50662,3.26497 2.17111,3.28327 -0.33552,0.0183 0.38333,0.86243 1.59745,1.87586 1.21411,1.01342 1.9372,2.11286 1.60687,2.44319 -0.33033,0.33033 0.13622,0.88335 1.03678,1.22893 0.90056,0.34557 1.38645,1.03434 1.07974,1.5306 -0.3067,0.49625 0.1433,1.17125 1,1.5 0.85671,0.32874 1.30671,1.00374 1,1.5 -0.3067,0.49625 0.1433,1.17125 1,1.5 0.85671,0.32874 1.30671,1.00374 1,1.5 -0.3067,0.49625 0.1433,1.17125 1,1.5 0.85671,0.32874 1.33781,0.95341 1.06913,1.38815 -0.26868,0.43474 0.24831,1.07318 1.14887,1.41875 0.90056,0.34558 1.35497,0.91074 1.0098,1.25591 -0.34517,0.34517 0.15292,1.26795 1.10687,2.05062 1.15734,0.94954 1.23535,1.20732 0.23446,0.77472 -0.88898,-0.38423 -0.75612,-0.0413 0.32614,0.84176 1.59365,1.30037 2.31209,2.95094 2.59735,5.96726 0.0421,0.44496 0.4637,0.56972 0.93692,0.27725 0.88113,-0.54457 4.84095,7.25256 4.38959,8.64338 -0.1375,0.42369 0.22656,0.77035 0.80902,0.77035 0.58246,0 0.7809,0.45 0.44098,1 -0.33992,0.55 -0.11492,1 0.5,1 0.61492,0 0.83992,0.45 0.5,1 -0.33992,0.55 -0.11492,1 0.5,1 0.61492,0 0.83992,0.45 0.5,1 -0.33992,0.55 -0.0933,1 0.54797,1 0.6413,0 0.90699,0.675 0.5904,1.5 -0.31658,0.825 -0.11317,1.5 0.45203,1.5 0.5652,0 0.77327,0.41157 0.46239,0.91459 -0.31089,0.50302 -0.15367,1.06552 0.34938,1.25 0.50304,0.18448 1.06834,1.23541 1.25623,2.33541 0.18788,1.1 0.63412,2.225 0.99165,2.5 0.35753,0.275 0.80753,1.4 1,2.5 0.19247,1.1 0.70999,2.26549 1.15004,2.58998 0.44006,0.32448 0.87332,1.56198 0.96281,2.75 0.0895,1.18801 0.56509,2.16002 1.05689,2.16002 0.4918,0 0.63517,0.675 0.31858,1.5 -0.31658,0.825 -0.0916,1.5 0.5,1.5 0.59159,0 0.81659,0.675 0.5,1.5 -0.31658,0.825 -0.0916,1.5 0.5,1.5 0.59159,0 0.81659,0.675 0.5,1.5 -0.31658,0.825 -0.0916,1.5 0.5,1.5 0.59159,0 0.81659,0.675 0.5,1.5 -0.31658,0.825 -0.0872,1.5 0.50965,1.5 0.59688,0 0.84973,0.90062 0.56187,2.00138 -0.32962,1.26045 -0.12937,1.75788 0.54089,1.34363 0.68188,-0.42142 0.86166,0.11703 0.50036,1.49862 -0.31014,1.186 -0.10788,2.15637 0.44947,2.15637 0.55735,0 0.75435,0.675 0.43776,1.5 -0.31658,0.825 -0.1094,1.5 0.4604,1.5 0.58093,0 0.75717,0.87852 0.40123,2 -0.38021,1.19795 -0.1797,2 0.5,2 0.6797,0 0.88021,0.80205 0.5,2 -0.3908,1.2313 -0.1797,2 0.54924,2 0.6915,0 0.96657,0.83154 0.66127,1.999 -0.28751,1.09946 -0.0758,2.27524 0.47049,2.61286 0.54628,0.33762 0.77116,1.46307 0.49974,2.501 -0.27143,1.03793 -0.0345,1.88714 0.52638,1.88714 0.5658,0 0.8226,1.34413 0.57679,3.01898 -0.26376,1.79707 0.10004,3.46974 0.89883,4.13268 1.01312,0.84082 1.06388,1.44872 0.20715,2.48102 -0.85716,1.03281 -0.82796,1.36732 0.11933,1.36732 0.88589,0 1.09659,1.17447 0.71761,4 -0.32642,2.43362 -0.1316,4 0.49749,4 0.67437,0 0.79411,2.12044 0.34428,6.09645 -0.47526,4.20068 -0.35994,5.89262 0.37083,5.44098 0.73242,-0.45266 1.06057,4.91387 1.06057,17.34454 0,10.9414 -0.3928,18.24276 -1.00168,18.61907 -0.60137,0.37167 -0.74692,2.78662 -0.36421,6.04293 0.41676,3.54598 0.23395,5.91008 -0.52801,6.82818 -0.74758,0.90079 -0.92095,2.93355 -0.48349,5.66923 0.46321,2.89675 0.34285,4.05531 -0.37519,3.61154 -0.70946,-0.43848 -0.87394,0.71268 -0.50009,3.49994 0.35758,2.66598 0.19619,3.93027 -0.45067,3.53049 -0.62106,-0.38384 -0.81568,0.38188 -0.50721,1.99554 0.34131,1.78545 0.14109,2.39622 -0.6294,1.92002 -0.79559,-0.4917 -0.94025,0.25008 -0.48889,2.50687 0.42956,2.14783 0.29041,2.9885 -0.4218,2.54833 -0.66859,-0.41321 -0.8687,0.0855 -0.53947,1.34451 0.28786,1.10076 0.063,2.00138 -0.49964,2.00138 -0.56266,0 -0.76925,0.97037 -0.45911,2.15637 0.4106,1.57013 0.22009,1.94388 -0.70075,1.37477 -0.93158,-0.57574 -1.08701,-0.22187 -0.59014,1.34363 0.37255,1.17378 0.23858,2.12523 -0.29924,2.12523 -0.53558,0 -0.72001,0.97037 -0.40987,2.15637 0.33825,1.29344 0.16739,1.91131 -0.42695,1.54399 -0.57439,-0.35499 -0.99086,0.71179 -0.99086,2.53807 0,1.73275 -0.49972,3.31703 -1.11049,3.52062 -0.61077,0.20359 -0.86262,1.01609 -0.55967,1.80556 0.30294,0.78946 0.0668,1.43539 -0.5248,1.43539 -0.59158,0 -0.81658,0.675 -0.5,1.5 0.31659,0.825 0.0916,1.5 -0.5,1.5 -0.59158,0 -0.81658,0.675 -0.5,1.5 0.31659,0.825 0.0916,1.5 -0.5,1.5 -0.59237,0 -0.78872,0.74759 -0.43705,1.66404 0.42645,1.11132 0.25375,1.42623 -0.51993,0.94807 -0.75689,-0.46779 -0.95204,-0.178 -0.56295,0.83595 0.32755,0.85357 0.11152,1.55194 -0.48007,1.55194 -0.59237,0 -0.78872,0.74759 -0.43705,1.66404 0.42645,1.11132 0.25375,1.42623 -0.51993,0.94807 -0.75689,-0.46779 -0.95204,-0.178 -0.56295,0.83595 0.32755,0.85357 0.11152,1.55194 -0.48007,1.55194 -0.59237,0 -0.78872,0.74759 -0.43705,1.66404 0.42645,1.11132 0.25375,1.42623 -0.51993,0.94807 -0.75689,-0.46779 -0.95204,-0.178 -0.56295,0.83595 0.32839,0.85576 0.0725,1.55194 -0.57047,1.55194 -0.6413,0 -0.88789,0.45 -0.54797,1 0.33992,0.55 0.11492,1 -0.5,1 -0.61492,0 -0.83992,0.45 -0.5,1 0.33992,0.55 0.0933,1 -0.54797,1 -0.6413,0 -0.91198,0.66198 -0.60151,1.47106 0.31048,0.80908 -0.12352,2.15908 -0.96444,3 -0.84091,0.84092 -1.26265,1.52894 -0.93718,1.52894 0.79545,0 -3.33837,8.11136 -5.09634,10 -0.76792,0.825 -2.32708,2.74769 -3.46479,4.27265 l -2.06857,2.77266 -39.1596,-0.5297 c -56.64527,-0.76621 -94.02197,-0.7706 -103.02651,-0.0121 -5.16961,0.43547 -8.23826,0.29132 -8.95,-0.42042 C 585.08739,640.48739 581.35479,640 577.38842,640 h -7.21158 l -0.40264,-34.75 c -0.39701,-34.26383 -0.4385,-34.85046 -2.96575,-41.93099 -4.88451,-13.68481 -15.41376,-26.52073 -26.8693,-32.75561 -6.1369,-3.34012 -18.7293,-6.5634 -25.64127,-6.5634 -14.96588,0 -29.75021,5.95262 -40.56115,16.33114 -7.65412,7.34798 -11.08069,12.55244 -14.53752,22.08039 -2.54514,7.0151 -2.57581,7.45332 -2.96377,42.33847 L 455.84343,640 h -7.3627 c -4.04948,0 -7.64081,0.45 -7.98073,1 -0.81669,1.32144 -15.80611,1.29389 -17.13148,-0.0315 -0.68563,-0.68563 -10.39246,-0.85033 -28.95,-0.49119 -45.55722,0.88164 -102.79156,1.34821 -104.62738,0.85291 z M 365.75427,525.25 366.00855,412 H 395.50427 425 v 113 113 h 7.04897 7.04898 l -0.15233,-88.75 -0.15234,-88.75 H 513.14664 587.5 l -0.29996,88.75 -0.29997,88.75 H 593.95004 601 V 524.98512 411.97024 l 29.75,0.26488 29.75,0.26488 0.5,113 0.5,113 37.22978,0.26215 37.22979,0.26215 2.69972,-4.26215 c 12.45509,-19.66332 26.7111,-62.93551 29.40739,-89.26215 1.92997,-18.8443 1.40504,-53.02603 -1.03257,-67.23761 C 760.34898,439.28719 746.85898,404.2886 727.22288,374.97574 685.0294,311.98914 620.26623,270.93889 544.80301,259.34859 530.72537,257.18642 496.54128,256.90399 484,258.84623 c -60.90517,9.43224 -110.05183,34.4149 -153.73405,78.14745 -14.98059,14.99785 -28.24444,32.70178 -40.46173,54.00632 -41.05339,71.58896 -44.09783,159.88709 -8.02684,232.80278 4.21056,8.51143 7.38298,13.7196 8.67938,14.24896 1.12378,0.45888 18.46824,0.74746 38.54324,0.64129 L 365.5,638.5 Z m 73.20617,-79 c -0.0218,-0.4125 -0.13427,-10.65 -0.25,-22.75 L 438.5,401.5 h 12 12 l 0.28174,11.75 0.28173,11.75 h 8.56079 8.56079 l -0.32602,-11.75 -0.32602,-11.75 12.2015,-0.28052 12.20149,-0.28052 0.282,11.78052 L 504.5,424.5 h 8.5 8.5 l 0.28174,-11.75 0.28173,-11.75 H 534.03174 546 v 12 12 h 8.46826 8.46827 L 563.21826,413.25 563.5,401.5 h 12 12 v 21 c 0,11.55 -0.32338,21.7875 -0.71862,22.75 -0.6752,1.64429 -5.16053,1.75 -74.25,1.75 -40.44226,0 -73.54918,-0.3375 -73.57094,-0.75 z m 144.81212,-22 0.27256,-18.25 -2.77256,-0.0997 L 578.5,405.80064 581,405 c 1.71631,-0.54966 -0.0862,-0.83189 -5.75,-0.90032 L 567,404 l -0.0318,10.75 c -0.042,14.18003 -0.0999,14.25 -11.79326,14.25 -11.35858,0 -11.60885,-0.31155 -11.64762,-14.5 l -0.0273,-10 h -9 -9 l -0.28275,11.25 c -0.24754,9.84901 -0.4966,11.25191 -2,11.26531 -1.47431,0.0131 -1.50504,0.15245 -0.21725,0.98469 1.02002,0.65919 -1.93987,0.97427 -9.25,0.98469 -8.89569,0.0127 -10.75,-0.24343 -10.75,-1.48469 0,-0.825 -0.45,-1.5 -1,-1.5 -0.60317,0 -1,-4.16667 -1,-10.5 0,-7.72517 -0.33034,-10.50405 -1.25,-10.51531 -0.83333,-0.0102 -0.75,-0.33844 0.25,-0.98469 1.01912,-0.65861 -1.54555,-0.92613 -8,-0.83449 -7.34038,0.10422 -8.47702,0.28529 -5,0.79651 l 4.5,0.66163 -4,0.43818 c -3.96555,0.4344 -4.00207,0.47693 -4.24035,4.93817 -0.1322,2.475 -0.50248,7.2842 -0.82286,10.6871 l -0.58251,6.1871 -10.42925,0.3129 c -5.73609,0.1721 -10.4283,-0.0512 -10.42714,-0.49612 0.001,-0.44496 -0.44789,-0.5309 -0.99789,-0.19098 -0.64555,0.39897 -1,-3.65628 -1,-11.44098 L 459,403 h -8.42392 -8.42392 l -0.11023,19.96987 -0.11023,19.96987 12.78415,0.28013 C 461.74713,443.37394 493.6,443.275 525.5,443 l 58,-0.5 z M 466.75,428.26779 c 2.3375,-0.21053 6.1625,-0.21053 8.5,0 2.3375,0.21054 0.425,0.3828 -4.25,0.3828 -4.675,0 -6.5875,-0.17226 -4.25,-0.3828 z M 351.23437,398.16601 c -0.9834,-0.62421 -1.2064,-7.25515 -1,-29.73469 L 350.5,339.5 h 17.5 17.5 l 0.27988,12.75 0.27987,12.75 h 8.88834 c 4.88858,0 9.60014,-0.27314 10.47012,-0.60699 1.32464,-0.50831 1.58179,-2.62168 1.58179,-13 V 339 h 18 18 v 20.41821 c 0,11.23002 0.27104,21.12453 0.60231,21.9878 0.41686,1.08632 -0.42984,2.11215 -2.75,3.33179 -3.00491,1.57958 -10.22813,8.25999 -13.64174,12.61658 -1.1555,1.47471 -5.10219,1.64403 -38,1.63031 -20.19081,-0.008 -37.2801,-0.37683 -37.9762,-0.81868 z m 78.57129,-8.27911 c 2.30689,-2.83588 4.20865,-4.75806 4.22614,-4.27152 0.0175,0.48654 0.6925,0.0111 1.5,-1.05651 0.80751,-1.06762 1.4682,-1.59798 1.4682,-1.17857 0,0.41941 0.675,0.0876 1.5,-0.73744 1.22808,-1.22808 1.5,-4.94458 1.5,-20.50115 v -19.00116 l -15.12015,0.17973 -15.12016,0.17972 0.17441,11.84255 c 0.10943,7.43044 -0.18654,11.61946 -0.79443,11.24377 -0.53287,-0.32933 -1.14584,-0.0678 -1.36217,0.58118 -0.59213,1.77639 -22.55137,1.20148 -24.39144,-0.63858 C 382.37303,365.51589 382,362.1891 382,354.16776 v -10.9751 l -14.37751,-0.13672 c -12.41963,-0.11811 -14.46228,0.0842 -15,1.48546 C 352.28012,345.43359 352,357.131 352,370.53563 v 24.37205 l 36.80566,0.0677 36.80567,0.0677 4.19433,-5.15615 z m 167.5884,5.5311 c -1.80857,-3.81129 -8.11476,-9.05881 -12.0834,-10.05488 L 583,384.78318 582.83333,363.89159 c -0.0917,-11.49037 -0.20416,-21.67909 -0.25,-22.64159 -0.0764,-1.60494 1.40873,-1.75 17.91667,-1.75 h 18 l 0.27988,12.75 0.27987,12.75 H 629.5 639.94025 l 0.27987,-12.75 0.27988,-12.75 17.59175,-0.27243 17.59174,-0.27243 0.60607,28.77243 c 0.39196,18.60773 0.25391,29.12571 -0.39075,29.77243 -0.61923,0.62121 -15.34854,1.10766 -38.88466,1.28421 l -37.88785,0.28421 z m 75.37282,-26.668 0.26688,-25.75 -12.76688,0.0136 c -18.48932,0.0198 -17.25534,-0.82406 -16.57842,11.33683 0.76547,13.752 0.69532,13.81387 -15.22888,13.43242 l -11.81023,-0.2829 -0.11572,-4 c -0.0636,-2.2 -0.20975,-7.68011 -0.32467,-12.17803 L 616,343.14395 601.25,343.32197 586.5,343.5 l -0.27225,18.79918 c -0.22813,15.75325 -0.0256,19.04583 1.25,20.32143 0.83724,0.83724 1.53593,1.1526 1.55266,0.70082 0.0167,-0.45179 0.49438,-0.0245 1.06146,0.9496 0.56708,0.97407 1.45339,1.51001 1.96959,1.19099 0.5162,-0.31903 0.93854,-0.0285 0.93854,0.64563 0,0.67413 0.27857,0.94711 0.61905,0.60664 0.7838,-0.78381 2.4763,1.00149 4.29993,4.53571 0.78044,1.5125 1.8195,2.75 2.30902,2.75 0.48952,0 0.68109,0.3375 0.42571,0.75 -0.25538,0.4125 15.80557,0.525 35.69098,0.25 L 672.5,394.5 Z m -6.47117,-27.49158 c -3.96237,-0.18931 -10.71237,-0.19045 -15,-0.003 -4.28764,0.1879 -1.04571,0.34279 7.20429,0.34419 8.25,0.001 11.75807,-0.15234 7.79571,-0.34164 z m -243.5414,184.85252 0.25431,-112.1431 -27.25431,0.26608 L 368.5,414.5 l -0.24546,111 c -0.13501,61.05 -0.0379,111.55918 0.21578,112.24262 0.35649,0.96039 6.5448,1.15959 27.24546,0.87702 L 422.5,638.25403 Z M 394.5,577.07341 387.5,576.5 v -15.17184 c 0,-14.68134 0.0784,-15.25519 2.42431,-17.75 1.33338,-1.41799 2.98338,-2.57816 3.66667,-2.57816 0.68329,0 1.4295,-0.56144 1.65824,-1.24765 0.54634,-1.63902 7.28807,1.89863 9.21455,4.83524 0.92348,1.4077 1.53454,6.69909 1.87623,16.24698 0.48798,13.63546 0.42732,14.21499 -1.63914,15.66241 -1.18023,0.82666 -2.38324,1.42356 -2.67337,1.32643 -0.29012,-0.0971 -3.67749,-0.43462 -7.52749,-0.75 z m 9.5,-15.43855 c 0,-12.00696 -0.21062,-13.6329 -2.07258,-16 -2.33575,-2.96942 -6.37678,-3.48803 -9.48629,-1.21742 -1.58896,1.16029 -2.03184,3.01987 -2.44113,10.25 -0.275,4.85791 -0.36504,11.42006 -0.2001,14.58256 l 0.29991,5.75 H 397.0499 404 Z m -15.31736,-73.09508 c -0.92545,-0.92545 -1.71312,-1.98799 -1.75037,-2.36121 C 386.25959,479.43917 386.35658,460 387.06288,460 387.5783,460 388,459.35766 388,458.57258 388,456.08628 393.00995,453 397.04597,453 c 5.50304,0 8.46089,3.86374 9.30169,12.15049 0.69855,6.88466 -0.0636,21.9311 -1.16629,23.02613 -0.37475,0.37214 -3.86168,0.98468 -7.74873,1.36121 -5.90202,0.57171 -7.34481,0.40715 -8.75,-0.99805 z M 403.5,472.65967 c 0,-13.33944 -0.0854,-13.90945 -2.36078,-15.75 -3.04771,-2.46533 -6.61885,-2.43004 -9.13922,0.0903 -1.8,1.8 -2,3.33333 -2,15.33333 0,7.33334 0.31903,13.65237 0.70896,14.0423 0.38993,0.38992 3.42743,0.57742 6.75,0.41666 L 403.5,486.5 Z M 454.54855,604.5 c 0.0531,-37.21664 0.2106,-38.4746 6.38596,-51.01854 3.40296,-6.91238 11.96162,-16.15507 20.15362,-21.76434 7.28555,-4.9886 17.60083,-8.47759 27.50658,-9.3037 26.57466,-2.21624 49.59502,13.07081 60.21884,39.98934 1.34307,3.40306 1.70764,10.1966 2.15175,40.09724 l 0.5347,36 h 6.5 6.5 v -88 -88 l -70.9368,-0.25676 c -56.08773,-0.20302 -71.10383,0.006 -71.73469,1 -0.98569,1.55258 -1.10351,174.14843 -0.11955,175.13239 0.38993,0.38992 3.42743,0.57742 6.75,0.41666 L 454.5,638.5 l 0.0485,-34 z M 550.25,507.28375 c 1.5125,-0.22913 3.9875,-0.22913 5.5,0 1.5125,0.22912 0.275,0.41659 -2.75,0.41659 -3.025,0 -4.2625,-0.18747 -2.75,-0.41659 z M 462.14257,505.25 c -0.51028,-0.9625 -0.93196,-7.77207 -0.93706,-15.13237 -0.009,-13.23012 0.0209,-13.40894 2.64261,-15.7184 3.92138,-3.45432 9.47036,-3.23459 13.2288,0.52385 L 480,477.84615 v 12.99514 c 0,7.14732 -0.27314,13.70694 -0.60699,14.57692 -0.93508,2.43678 -15.94696,2.2904 -17.25044,-0.16821 z m 15.6869,-14.34063 c -0.31095,-12.3548 -0.46217,-13.19797 -2.69025,-15 -3.04784,-2.46505 -6.61896,-2.42963 -9.13922,0.0906 -1.79487,1.79487 -2,3.33333 -2,15 v 13 h 7.07947 7.07947 l -0.32947,-13.09063 z M 503,491.45043 v -14.54956 l 3.25,-3.20044 c 2.43982,-2.40261 4.18482,-3.21913 7,-3.27546 2.0625,-0.0413 3.75,0.3228 3.75,0.80902 0,0.48622 0.45,0.60593 1,0.26601 0.55,-0.33992 1,-0.11492 1,0.5 0,0.61492 0.51953,0.79695 1.15451,0.40451 0.70329,-0.43466 0.88354,-0.27509 0.4612,0.40827 -0.38133,0.617 0.11165,1.62357 1.09549,2.23684 1.61174,1.00466 1.75909,2.59163 1.48869,16.03271 L 522.89978,506 H 512.94989 503 Z m 18,0.13136 c 0,-6.83002 -0.27953,-13.14666 -0.62118,-14.03699 -0.69953,-1.82295 -5.43443,-4.5448 -7.90608,-4.5448 -0.89462,0 -2.94197,1.31538 -4.54966,2.92308 C 505.0022,478.84396 505,478.8556 505,491.42308 V 504 h 8 8 z m 25.38779,12.98639 c -0.30219,-0.78749 -0.40057,-7.35328 -0.21861,-14.59063 0.31303,-12.4514 0.45858,-13.26215 2.70727,-15.08087 3.35624,-2.71449 6.67815,-3.32381 10.19012,-1.86911 4.97894,2.06235 5.93343,5.26724 5.93343,19.92277 V 506 h -9.03138 c -6.91426,0 -9.16019,-0.33564 -9.58083,-1.43182 z M 562.46775,491.25 c -0.55199,-10.26461 -1.03533,-13.1155 -2.47948,-14.625 -2.26358,-2.36601 -6.46311,-2.41024 -9.02141,-0.095 C 549.20551,478.124 549,479.65211 549,491.155 L 549,504 h 7.0767 7.07671 z m 95.08953,146.65732 c 0.80452,-1.30174 0.58231,-220.37997 -0.22566,-222.48552 -0.47241,-1.23107 -4.64257,-1.41323 -27.19479,-1.18792 L 603.5,414.5 l -0.2575,111 c -0.14162,61.05 -0.0432,111.5625 0.21862,112.25 0.63695,1.67228 53.06563,1.82475 54.09616,0.15732 z M 620.41052,575.75 C 619.90973,574.5125 619.725,567.04703 620,559.16008 c 0.49538,-14.2074 0.52593,-14.3622 3.30576,-16.75 4.32004,-3.7108 8.24024,-3.21287 12.84908,1.63203 L 640,548.08421 v 13.59765 c 0,16.33565 0.0654,16.23959 -11.08948,16.28634 -6.94893,0.0291 -7.66634,-0.1581 -8.5,-2.2182 z M 636.75081,562 c 0.27598,-13.75431 -0.48857,-16.62695 -5.00108,-18.79067 -2.25118,-1.07942 -3.16672,-1.04506 -5.59364,0.20995 -1.59603,0.82534 -3.17793,2.53115 -3.51533,3.79067 -0.8548,3.19104 -0.79792,26.29956 0.0669,27.16434 0.3892,0.38919 3.6517,0.57669 7.25,0.41667 L 636.5,574.5 Z M 621.2,488.8 c -1.62243,-1.62243 -1.6536,-28.07982 -0.0367,-31.11574 2.84476,-5.34123 9.27458,-6.28783 14.83666,-2.18426 1.86371,1.375 3.02103,2.5 2.57183,2.5 -0.44919,0 -0.29388,0.62998 0.34514,1.39995 0.77122,0.92927 1.11434,5.87639 1.02054,14.71427 -0.11762,11.08178 -0.41767,13.52458 -1.78941,14.56825 -2.14941,1.63534 -15.33882,1.72681 -16.9481,0.11753 z m 14.85236,-3.05 c 0.0288,-0.6875 0.0184,-7.1 -0.0231,-14.25 -0.0691,-11.90596 -0.25116,-13.14727 -2.16314,-14.75 -2.71961,-2.27972 -6.06277,-2.22054 -9.00533,0.1594 -2.21875,1.79454 -2.38081,2.67065 -2.69367,14.5628 -0.18309,6.95936 -0.0847,13.30013 0.21861,14.09059 0.73164,1.90663 13.58724,2.08272 13.66664,0.18721 z m -381.36925,44.0625 c -0.31922,-0.79773 -0.55618,-0.56078 -0.60416,0.60417 -0.0434,1.05416 0.19292,1.64479 0.52522,1.3125 0.33229,-0.33229 0.36781,-1.1948 0.0789,-1.91667 z m 0,-33 c -0.31922,-0.79773 -0.55618,-0.56078 -0.60416,0.60417 -0.0434,1.05416 0.19292,1.64479 0.52522,1.3125 0.33229,-0.33229 0.36781,-1.1948 0.0789,-1.91667 z M 350.12756,315.25 c 1.24387,-1.58606 1.2085,-1.62143 -0.37756,-0.37756 -1.66575,1.30637 -2.19548,2.12756 -1.37244,2.12756 0.20765,0 0.99515,-0.7875 1.75,-1.75 z M 524.5,542.46389 c -1.65,-0.75553 -2.325,-1.37803 -1.5,-1.38335 0.825,-0.005 2.625,0.63344 4,1.41946 3.1616,1.80734 1.47266,1.78294 -2.5,-0.0361 z M 307.95821,306.75 C 312.10217,302.33481 313,301.54091 313,302.29179 c 0,0.16049 -2.1375,2.29799 -4.75,4.75 L 303.5,311.5 Z m -88.21781,203 c -0.19527,-3.4375 -0.35504,-0.625 -0.35504,6.25 0,6.875 0.15977,9.6875 0.35504,6.25 0.19527,-3.4375 0.19527,-9.0625 0,-12.5 z m 586.95259,-6.48097 c -0.25354,-0.97297 -0.47766,-0.41903 -0.49804,1.23097 -0.0204,1.65 0.18706,2.44606 0.46099,1.76903 0.27392,-0.67703 0.29059,-2.02703 0.0371,-3 z M 290,325.5 c 1.29175,-1.375 2.12363,-2.5 1.84863,-2.5 -0.275,0 -1.55688,1.125 -2.84863,2.5 -1.29175,1.375 -2.12363,2.5 -1.84863,2.5 0.275,0 1.55688,-1.125 2.84863,-2.5 z"
       id="path4565" />
    <path
       style="fill:#000000"
       d="m 489.5,810.41364 c -1.65,-0.22702 -7.275,-0.8953 -12.5,-1.48505 -31.66297,-3.57387 -72.84833,-17.14664 -104.67788,-34.49694 -11.87646,-6.47386 -33.31767,-20.90568 -45.11687,-30.3676 -11.96143,-9.59202 -33.53907,-31.35211 -43.68175,-44.0511 -34.42163,-43.09708 -55.48634,-90.27941 -63.81856,-142.94562 -1.82617,-11.54278 -2.14738,-17.82018 -2.15258,-42.06733 -0.006,-27.6906 0.0865,-29.03162 3.25373,-47.21893 3.81209,-21.89009 5.72729,-29.7963 11.33225,-46.78107 10.13602,-30.71531 25.76571,-60.03828 45.6328,-85.61205 8.54451,-10.99886 26.31313,-29.66546 39.08412,-41.05935 C 359.88433,255.9394 417.38922,229.39137 475,221.31861 c 19.26862,-2.70003 62.8417,-2.47069 81,0.42633 31.90184,5.08969 58.7237,13.59313 86.13877,27.30892 79.88558,39.96683 136.5916,108.51075 157.43866,190.3054 7.59364,29.79412 9.86802,50.87635 9.13115,84.64074 -0.59091,27.07612 -1.87037,37.57707 -7.27436,59.70306 -20.48564,83.87596 -78.39334,156.47602 -155.37818,194.8008 -31.25931,15.56158 -55.10186,23.19303 -92.55604,29.62505 -9.33524,1.60314 -17.44055,2.13146 -36.5,2.37913 -13.475,0.1751 -25.85,0.13262 -27.5,-0.0944 z m 44.455,-2.44458 c 22.45477,-1.98738 53.08603,-8.55694 74.545,-15.98784 13.659,-4.72989 35.73222,-14.73296 49,-22.20565 37.65813,-21.20985 72.8473,-53.54565 97.69754,-89.77557 26.45887,-38.57518 43.6834,-82.32446 49.41061,-125.5 2.11176,-15.91979 3.11437,-55.06457 1.38296,-53.9945 -1.05305,0.65082 -1.17898,-0.63315 -0.6472,-6.59873 0.48213,-5.40863 0.36956,-7.00211 -0.41727,-5.90677 -0.79185,1.10233 -0.91712,-0.22324 -0.47252,-5 0.45385,-4.87623 0.32835,-6.12528 -0.5024,-5 -0.83721,1.13405 -0.96041,0.23728 -0.50495,-3.67578 0.33133,-2.84668 0.20171,-5.42344 -0.28806,-5.72613 -0.48977,-0.3027 -0.67338,-1.6861 -0.40802,-3.07422 0.30322,-1.58622 0.0279,-2.52387 -0.7411,-2.52387 -0.70145,0 -0.96627,-0.6705 -0.62061,-1.57129 C 802.1304,459.49661 797.06871,437.87899 792.85932,425 769.60806,353.86066 722.37325,296.81038 655.5,259.0972 c -33.6249,-18.96276 -64.55193,-29.5676 -102,-34.97567 -16.01411,-2.31268 -19.63801,-2.52245 -43,-2.48909 -32.83407,0.0469 -56.17765,4.13827 -91.38418,16.0167 C 338.4172,264.87625 270.47087,328.91506 240.093,406.37651 232.71402,425.1924 224.82047,453.62743 224.09676,464 c -0.0576,0.825 -0.33872,2.85 -0.6248,4.5 -2.76297,15.93573 -3.43644,22.54322 -3.97511,39 -0.37302,11.3964 -0.19529,22.6017 0.44412,28 0.58631,4.95 1.06186,10.17765 1.05678,11.61699 -0.0158,4.48087 3.81962,25.2766 6.94542,37.65789 13.03764,51.64217 42.60856,102.28322 82.19804,140.76653 14.11638,13.72195 22.05374,20.04223 41.80633,33.28911 54.02011,36.22806 121.63242,54.48209 182.00746,49.13854 z m -40.06456,-32.09275 c -0.76474,-0.50342 -3.2883,-0.81689 -5.60791,-0.69661 -2.31961,0.12028 -4.53211,-0.0959 -4.91667,-0.4805 -0.38455,-0.38456 -2.08669,-0.70609 -3.78253,-0.71451 -5.35381,-0.0266 -6.34897,-1.62223 -6.72683,-10.78591 l -0.2186,-5.30121 -25.06895,0.17904 -25.06895,0.17905 -7.58424,-2.95649 c -12.04589,-4.69573 -29.15218,-14.39609 -27.78972,-15.75854 0.34259,-0.3426 19.82204,-0.59556 43.28765,-0.56215 l 42.66475,0.0607 -0.28922,-8.76961 L 472.5,721.5 413.89402,721 355.28803,720.5 344.64402,711.21953 C 338.78981,706.11527 334,701.20504 334,700.30792 c 0,-1.49925 5.6231,-1.57468 69.53947,-0.93288 l 69.53946,0.69826 -0.28946,-8.78665 L 472.5,682.5 403,681.89411 c -38.225,-0.33323 -73.60767,-0.67073 -78.62816,-0.75 L 315.24369,681 308.12184,671.52502 C 304.20483,666.31378 301,661.58878 301,661.02502 301,660.33299 328.7566,660 386.44098,660 c 46.99254,0 85.65079,-0.33946 85.90721,-0.75436 0.25642,-0.4149 0.77551,-19.2024 1.15354,-41.75 0.82402,-49.14898 1.33431,-52.31304 10.20264,-63.26137 2.40635,-2.97074 5.78382,-5.38568 11.12547,-7.95488 7.30927,-3.51557 8.1642,-3.69127 18.17016,-3.73427 9.63852,-0.0414 10.99227,0.19598 16.5,2.89345 7.64792,3.74566 15.87087,11.94555 19.14004,19.08635 3.38046,7.3839 4.32215,18.55788 4.54875,53.97508 0.0985,15.4 0.35976,31.0375 0.58051,34.75 l 0.40135,6.75 h 85.41468 C 711.65357,660 725,660.21622 725,661.38375 c 0,0.76106 -3.04509,5.37356 -6.76687,10.25 l -6.76686,8.86625 -12.48314,0.56568 c -6.86572,0.31113 -42.12365,0.65484 -78.35095,0.7638 -36.2273,0.10897 -66.2648,0.44347 -66.75,0.74334 -1.1536,0.71296 -1.11635,14.50885 0.0441,16.34216 0.76469,1.20808 10.78335,1.31689 68.5138,0.74411 61.6432,-0.61161 67.67278,-0.52851 68.23643,0.94034 0.64051,1.66914 -2.15261,4.37767 -15.61797,15.145 l -6.55856,5.24442 -57.75,0.006 L 553,721 v 8.5 8.5 h 32.84444 C 624.38278,738 640,738.73385 640,740.54476 c 0,0.68246 -7.24131,4.88908 -16.0918,9.34804 L 607.81641,758 h -26.79157 -26.79158 l -0.60297,2.25 c -0.33164,1.2375 -0.60913,4.59211 -0.61664,7.45469 -0.0134,5.09883 -0.0797,5.21489 -3.26365,5.70638 -1.7875,0.27594 -4.825,0.75677 -6.75,1.06852 -1.925,0.31174 -10.025,0.78116 -18,1.04315 -7.975,0.26198 -17.9243,0.65466 -22.10956,0.87261 -4.18526,0.21795 -8.23526,-0.0156 -9,-0.51904 z M 533.5,773.00997 c 4.95,-0.53549 10.9125,-1.23437 13.25,-1.55307 L 551,770.87745 V 763.43873 756 h 27.03013 c 30.65728,0 29.65861,0.20482 47.96987,-9.83812 L 634.5,741.5 593,741 551.5,740.5 551.21617,729.75 550.93234,719 h 57.96832 57.96832 l 7.31551,-5.9131 c 4.02353,-3.2522 8.66551,-7.06102 10.31551,-8.46404 l 3,-2.55093 -68.28275,-0.036 L 550.9345,702 551.21725,690.75 551.5,679.5 l 79.16908,-0.5 79.16908,-0.5 3.38757,-4.5 c 1.86317,-2.475 4.56731,-6.075 6.00921,-8 l 2.62163,-3.5 -68.17828,0.11451 c -37.49806,0.063 -76.05329,-0.16202 -85.67829,-0.5 L 550.5,661.5 l -0.54683,-44 c -0.33864,-27.24807 -0.95414,-45.15302 -1.61666,-47.02847 -3.55722,-10.06974 -11.4002,-18.80593 -20.61844,-22.9666 -18.9646,-8.5597 -42.39301,1.71042 -48.90302,21.43722 -2.05234,6.21908 -2.18452,8.75238 -2.55862,49.03856 -0.22852,24.60787 -0.79263,42.96045 -1.34081,43.62096 -0.69628,0.83897 -23.26935,1.10829 -85.43101,1.01929 -46.46658,-0.0665 -84.48467,0.0181 -84.48465,0.18808 2e-5,0.16997 2.72026,3.88247 6.04498,8.25 L 317.08988,679 h 78.84807 c 70.97664,0 78.90867,0.15791 79.45506,1.58179 0.7887,2.05532 0.7887,17.7811 0,19.83642 -0.54525,1.42091 -7.51814,1.58179 -68.55902,1.58179 -46.4778,0 -67.75034,0.32633 -67.31383,1.03262 0.35101,0.56794 4.48181,4.39294 9.17956,8.5 L 357.24109,719 h 58.77247 c 52.67031,0 58.83548,0.16423 59.37945,1.58179 0.79007,2.05887 0.77567,9.90841 -0.0289,15.77864 L 474.72815,741 l -41.11407,0.0177 -41.11408,0.0177 6.70728,3.91479 c 3.689,2.15314 10.71979,5.52018 15.62398,7.48231 L 423.74797,756 H 449.267 c 28.95517,0 26.733,-0.75115 26.733,9.03647 v 5.8729 l 3.58214,0.67202 c 12.06492,2.26339 39.48523,2.9899 53.91786,1.42858 z M 285.60528,636.7613 C 275.4254,619.35573 264.09102,589.17575 259.9691,568.5 c -1.20613,-6.05 -2.42159,-11.675 -2.70103,-12.5 -0.70359,-2.07726 -1.20439,-6.79197 -1.19497,-11.25 0.004,-2.0625 -0.44338,-3.75 -0.99496,-3.75 -0.62991,0 -0.77715,-2.41738 -0.39591,-6.5 0.45184,-4.83864 0.28935,-6.5 -0.63574,-6.5 -0.96055,0 -1.09985,-3.12208 -0.61349,-13.75 1.05488,-23.05173 3.20157,-38.6686 8.20669,-59.70252 10.11157,-42.49369 33.92766,-85.53398 65.14964,-117.73798 40.84481,-42.1295 95.08084,-70.66749 150.71067,-79.30117 14.35892,-2.22849 43.49184,-3.02179 58.23682,-1.58582 48.85314,4.75766 98.79899,25.3953 138.63467,57.28388 33.48099,26.80163 62.94989,65.94674 78.13706,103.79361 16.22083,40.4228 21.93606,78.32126 18.41417,122.10681 -2.42737,30.17811 -12.73398,64.68608 -27.59535,92.39319 l -4.82737,9 -38.5,0.27838 c -21.175,0.15311 -39.55221,0.0221 -40.83825,-0.2912 -1.57089,-0.38266 -2.06316,-0.96628 -1.5,-1.77838 0.46104,-0.66484 0.69457,-51.4963 0.51896,-112.9588 L 657.86143,414 H 630.43071 603 v 112.5 c 0,89.29585 0.25782,112.5145 1.25,112.57029 0.6875,0.0386 0.35,0.45702 -0.75,0.92971 -2.18792,0.94018 -15.52981,1.30947 -17.66821,0.48904 -1.09796,-0.42125 -1.28602,-16.13518 -1.07113,-89.5 L 585.02133,462 H 513 440.97867 l 0.26067,88.98904 c 0.21489,73.36482 0.0268,89.07875 -1.07113,89.5 -2.14856,0.82433 -16.48588,0.44874 -18.66821,-0.48904 -1.71022,-0.7349 -1.74644,-0.86961 -0.25,-0.92971 C 422.90588,639.00379 423,632.94942 423,526.5 V 414 h -27.50835 -27.50834 l 0.0255,113.25 0.0254,113.25 -39.96833,0.2613 -39.96834,0.2613 -2.49227,-4.2613 z M 365.75427,525.25 366.00855,412 H 395.50427 425 v 113 113 h 7.04897 7.04898 l -0.15233,-88.75 -0.15234,-88.75 H 513.14664 587.5 l -0.29996,88.75 -0.29997,88.75 H 593.95004 601 V 524.98512 411.97024 l 29.75,0.26488 29.75,0.26488 0.5,113 0.5,113 37.22978,0.26215 37.22979,0.26215 2.69972,-4.26215 c 12.45509,-19.66332 26.7111,-62.93551 29.40739,-89.26215 1.92997,-18.8443 1.40504,-53.02603 -1.03257,-67.23761 C 760.34898,439.28719 746.85898,404.2886 727.22288,374.97574 685.0294,311.98914 620.26623,270.93889 544.80301,259.34859 530.72537,257.18642 496.54128,256.90399 484,258.84623 c -60.90517,9.43224 -110.05183,34.4149 -153.73405,78.14745 -14.98059,14.99785 -28.24444,32.70178 -40.46173,54.00632 -41.05339,71.58896 -44.09783,159.88709 -8.02684,232.80278 4.21056,8.51143 7.38298,13.7196 8.67938,14.24896 1.12378,0.45888 18.46824,0.74746 38.54324,0.64129 L 365.5,638.5 Z m 73.20617,-79 c -0.0218,-0.4125 -0.13427,-10.65 -0.25,-22.75 L 438.5,401.5 h 12 12 l 0.28174,11.75 0.28173,11.75 h 8.56079 8.56079 l -0.32602,-11.75 -0.32602,-11.75 12.2015,-0.28052 12.20149,-0.28052 0.282,11.78052 L 504.5,424.5 h 8.5 8.5 l 0.28174,-11.75 0.28173,-11.75 H 534.03174 546 v 12 12 h 8.46826 8.46827 L 563.21826,413.25 563.5,401.5 h 12 12 v 21 c 0,11.55 -0.32338,21.7875 -0.71862,22.75 -0.6752,1.64429 -5.16053,1.75 -74.25,1.75 -40.44226,0 -73.54918,-0.3375 -73.57094,-0.75 z m 145.81207,-21.62042 c 0.18877,-13.07202 -0.0793,-19.29432 -0.87245,-20.25 C 583.10508,403.42169 580.36107,403 574.92287,403 h -7.83224 l -0.66074,3.52203 c -0.36341,1.93711 -0.35296,6.80643 0.0232,10.82069 0.89707,9.57306 0.58723,9.8149 -12.10067,9.44473 L 544.5,426.5 l -0.28205,-11.78583 -0.28204,-11.78582 -9.71796,0.28582 L 524.5,403.5 524.21826,415.25 523.93653,427 h -10.40925 c -5.72508,0 -10.63833,-0.37066 -10.91832,-0.82369 -0.27999,-0.45304 -0.58376,-5.85304 -0.67505,-12 L 501.76792,403 H 491.88396 482 v 12 12 h -10.44098 c -5.74254,0 -10.66111,-0.35617 -10.93016,-0.7915 -0.26904,-0.43532 -0.59709,-5.83532 -0.72899,-12 L 459.66004,403 h -9.25394 -9.25394 l -0.10929,19.80012 c -0.0601,10.89007 0.20863,20.11804 0.5972,20.50661 0.38857,0.38858 32.69101,0.59102 71.78321,0.44988 L 584.5,443.5 Z M 351.23437,398.16601 c -0.9834,-0.62421 -1.2064,-7.25515 -1,-29.73469 L 350.5,339.5 h 17.5 17.5 l 0.27988,12.75 0.27987,12.75 h 8.88834 c 4.88858,0 9.60014,-0.27314 10.47012,-0.60699 1.32464,-0.50831 1.58179,-2.62168 1.58179,-13 V 339 h 18 18 v 20.41821 c 0,11.23002 0.27104,21.12453 0.60231,21.9878 0.41686,1.08632 -0.42984,2.11215 -2.75,3.33179 -3.00491,1.57958 -10.22813,8.25999 -13.64174,12.61658 -1.1555,1.47471 -5.10219,1.64403 -38,1.63031 -20.19081,-0.008 -37.2801,-0.37683 -37.9762,-0.81868 z m 76.52531,-5.67913 C 430.12654,388.83306 437.3897,383 439.57248,383 c 1.85615,0 2.04673,-37.77092 0.20329,-40.29197 -1.1488,-1.57109 -2.89,-1.73513 -15.78351,-1.48696 L 409.5,341.5 l -0.28106,12.28559 c -0.34384,15.02931 0.0565,14.67396 -15.22204,13.51243 L 383.5,366.5 382.88934,354 c -0.33586,-6.875 -0.67336,-12.6125 -0.75,-12.75 -0.0766,-0.1375 -6.6162,-0.25 -14.53235,-0.25 -12.20205,0 -14.48541,0.24079 -15,1.58179 -0.33385,0.86998 -0.60699,13.24498 -0.60699,27.5 V 396 l 36.75,-0.0124 36.75,-0.0124 2.25968,-3.48836 z m 169.63438,2.93112 c -1.80857,-3.81129 -8.11476,-9.05881 -12.0834,-10.05488 L 583,384.78318 582.83333,363.89159 c -0.0917,-11.49037 -0.20416,-21.67909 -0.25,-22.64159 -0.0764,-1.60494 1.40873,-1.75 17.91667,-1.75 h 18 l 0.27988,12.75 0.27987,12.75 H 629.5 639.94025 l 0.27987,-12.75 0.27988,-12.75 17.59175,-0.27243 17.59174,-0.27243 0.60607,28.77243 c 0.39196,18.60773 0.25391,29.12571 -0.39075,29.77243 -0.61923,0.62121 -15.34854,1.10766 -38.88466,1.28421 l -37.88785,0.28421 z M 673.76607,368.25 674.03214,341 h -15.40908 c -13.12858,0 -15.49892,0.2341 -16.01607,1.58179 -0.33385,0.86998 -0.60699,6.71998 -0.60699,13 V 367 h -11.94098 c -6.56754,0 -12.17101,-0.37219 -12.45215,-0.82709 -0.28115,-0.45489 -0.58256,-6.34517 -0.6698,-13.08949 l -0.15864,-12.26241 -14.9268,0.3395 c -11.90394,0.27074 -15.12253,0.64326 -15.8933,1.83949 -1.3846,2.14887 -1.11804,40 0.28168,40 2.45341,0 10.57933,6.24935 12.31383,9.47011 l 1.86352,3.46035 36.54132,-0.21523 L 673.5,395.5 Z M 454.99683,624.20289 455.49365,608.5 l 0.2809,14.92228 c 0.15449,8.20725 -0.0691,15.27355 -0.49683,15.70289 -0.42775,0.42933 -0.55415,-6.28569 -0.28089,-14.92228 z m 115.42482,14.45353 c -0.28357,-0.73898 -0.35886,-4.67648 -0.16731,-8.75 l 0.34827,-7.40642 0.19869,8.16667 c 0.13232,5.43817 0.61633,8.33518 1.4487,8.67105 0.97906,0.39506 0.97226,0.5215 -0.0314,0.58333 -0.70477,0.0434 -1.5134,-0.52566 -1.79697,-1.26463 z M 570.29966,589 c 0,-3.025 0.18747,-4.2625 0.41659,-2.75 0.22913,1.5125 0.22913,3.9875 0,5.5 -0.22912,1.5125 -0.41659,0.275 -0.41659,-2.75 z M 387.4067,575.61745 c -0.30833,-0.80349 -0.41347,-7.76124 -0.23365,-15.46168 0.30671,-13.13407 0.47401,-14.15715 2.70253,-16.52641 3.09863,-3.29433 7.20309,-4.15716 10.83679,-2.2781 4.82676,2.49602 5.37833,4.74271 5.06932,20.64874 l -0.28169,14.5 -8.76635,0.28917 c -6.95737,0.2295 -8.88204,-0.0123 -9.32695,-1.17172 z M 404,561.63486 c 0,-12.00696 -0.21062,-13.6329 -2.07258,-16 -2.33575,-2.96942 -6.37678,-3.48803 -9.48629,-1.21742 -1.58896,1.16029 -2.03184,3.01987 -2.44113,10.25 -0.275,4.85791 -0.36504,11.42006 -0.2001,14.58256 l 0.29991,5.75 H 397.0499 404 Z M 455.19495,574.5 c 0.0204,-1.65 0.2445,-2.20394 0.49804,-1.23097 0.25354,0.97297 0.23687,2.32297 -0.0371,3 -0.27393,0.67703 -0.48137,-0.11903 -0.46099,-1.76903 z m 165.50769,1.86931 C 620.31619,575.98286 620,568.95705 620,560.75641 v -14.91026 l 2.92308,-2.92307 c 4.11731,-4.11731 8.24653,-3.95347 12.70407,0.50407 l 3.42715,3.42715 -0.27715,14.82285 L 638.5,576.5 l -8.54736,0.28598 c -4.70104,0.15728 -8.86354,-0.0302 -9.25,-0.41667 z M 636.75081,562 c 0.27598,-13.75431 -0.48857,-16.62695 -5.00108,-18.79067 -2.25118,-1.07942 -3.16672,-1.04506 -5.59364,0.20995 -1.59603,0.82534 -3.17793,2.53115 -3.51533,3.79067 -0.8548,3.19104 -0.79792,26.29956 0.0669,27.16434 0.3892,0.38919 3.6517,0.57669 7.25,0.41667 L 636.5,574.5 Z m -180.685,7.29549 c -0.11106,-3.72028 4.57506,-15.25673 8.52969,-20.99868 4.20563,-6.10638 12.83276,-14.22757 18.98441,-17.87105 4.85258,-2.87408 14.88272,-6.4525 17.82664,-6.35995 1.1514,0.0362 -0.331,0.71783 -3.29422,1.51474 -9.11411,2.45109 -17.09437,7.39688 -25.67979,15.91512 -8.38616,8.32054 -12.14465,14.59234 -14.92656,24.90803 -0.7559,2.80296 -1.40397,4.10427 -1.44017,2.89179 z m 113.01314,0.12118 c 0.048,-1.16495 0.28494,-1.4019 0.60416,-0.60417 0.28887,0.72187 0.25335,1.58438 -0.0789,1.91667 -0.33229,0.33229 -0.56864,-0.25834 -0.52522,-1.3125 z m -1.97249,-6.45568 c -4.27898,-14.28194 -18.55744,-29.66461 -33.0823,-35.64068 -3.03829,-1.25006 -4.79712,-2.28352 -3.90852,-2.29657 3.18361,-0.0468 15.96425,7.19658 21.29565,12.06918 2.98813,2.73098 7.13923,7.53602 9.22467,10.67788 4.08144,6.14894 8.71896,16.66445 8.12937,18.43322 -0.19906,0.59718 -0.94555,-0.86219 -1.65887,-3.24303 z m -41.29396,-38.6441 c 0.72187,-0.28887 1.58438,-0.25335 1.91667,0.0789 0.33229,0.33229 -0.25834,0.56864 -1.3125,0.52522 -1.16495,-0.048 -1.4019,-0.28494 -0.60417,-0.60416 z M 505.75,523.33772 c 0.6875,-0.27741 1.8125,-0.27741 2.5,0 0.6875,0.27741 0.125,0.50439 -1.25,0.50439 -1.375,0 -1.9375,-0.22698 -1.25,-0.50439 z m 13.51903,-0.0307 c 0.97297,-0.25354 2.32297,-0.23687 3,0.0371 0.67703,0.27393 -0.11903,0.48137 -1.76903,0.46099 -1.65,-0.0204 -2.20394,-0.2445 -1.23097,-0.49804 z M 462,491.21325 c 0,-14.24484 0.0965,-14.95528 2.31445,-17.03894 3.49585,-3.28417 9.06816,-2.94555 12.79101,0.7773 l 2.95161,2.95161 -0.27854,13.79839 L 479.5,505.5 l -8.75,0.28893 -8.75,0.28894 z m 15.82947,-0.30388 c -0.31095,-12.3548 -0.46217,-13.19797 -2.69025,-15 -3.04784,-2.46505 -6.61896,-2.42963 -9.13922,0.0906 -1.79487,1.79487 -2,3.33333 -2,15 v 13 h 7.07947 7.07947 l -0.32947,-13.09063 z M 503,491.55576 c 0,-13.59935 0.13354,-14.59948 2.283,-17.09837 1.64273,-1.90979 3.54867,-2.79681 6.79603,-3.16283 3.85754,-0.4348 4.97841,-0.11711 7.71701,2.18727 L 523,476.17779 V 491.08889 506 h -10 -10 z m 18,0.026 c 0,-6.83002 -0.27953,-13.14666 -0.62118,-14.03699 -0.69953,-1.82295 -5.43443,-4.5448 -7.90608,-4.5448 -0.89462,0 -2.94197,1.31538 -4.54966,2.92308 C 505.0022,478.84396 505,478.8556 505,491.42308 V 504 h 8 8 v -12.41821 z m 25.38779,12.98639 c -0.30219,-0.78749 -0.40057,-7.35328 -0.21861,-14.59063 0.31303,-12.4514 0.45858,-13.26215 2.70727,-15.08087 3.35624,-2.71449 6.67815,-3.32381 10.19012,-1.86911 4.97894,2.06235 5.93343,5.26724 5.93343,19.92277 V 506 h -9.03138 c -6.91426,0 -9.16019,-0.33564 -9.58083,-1.43182 z M 562.46775,491.25 c -0.55199,-10.26461 -1.03533,-13.1155 -2.47948,-14.625 -2.26358,-2.36601 -6.46311,-2.41024 -9.02141,-0.095 C 549.20551,478.124 549,479.65211 549,491.155 L 549,504 h 7.0767 7.07671 z m -175.02062,-4.60464 c -0.33567,-1.33742 -0.4611,-8.36979 -0.27872,-15.6275 0.32773,-13.0424 0.36421,-13.22386 3.13735,-15.60684 4.21438,-3.62145 9.74486,-3.32801 13.13146,0.69674 2.59208,3.08051 2.61259,3.23619 2.3389,17.75 L 405.5,488.5 l -8.72128,0.28851 c -8.50837,0.28147 -8.73618,0.22915 -9.33159,-2.14315 z M 403.5,472.65967 c 0,-13.33944 -0.0854,-13.90945 -2.36078,-15.75 -3.04771,-2.46533 -6.61885,-2.43004 -9.13922,0.0903 -1.8,1.8 -2,3.33333 -2,15.33333 0,7.33334 0.31903,13.65237 0.70896,14.0423 0.38993,0.38992 3.42743,0.57742 6.75,0.41666 L 403.5,486.5 Z m 217.20264,15.70964 c -1.21394,-1.21395 -0.80721,-28.30445 0.4607,-30.68505 1.79327,-3.36698 3.98798,-4.61776 8.16358,-4.65246 2.92967,-0.0243 4.51861,0.65988 6.77702,2.9183 l 2.9501,2.95009 -0.27702,14.79991 L 638.5,488.5 l -8.54736,0.28598 c -4.70104,0.15728 -8.86354,-0.0302 -9.25,-0.41667 z M 636.05236,485.75 c 0.0288,-0.6875 0.0184,-7.1 -0.0231,-14.25 -0.0691,-11.90596 -0.25116,-13.14727 -2.16314,-14.75 -2.71961,-2.27972 -6.06277,-2.22054 -9.00533,0.1594 -2.21875,1.79454 -2.38081,2.67065 -2.69367,14.5628 -0.18309,6.95936 -0.0847,13.30013 0.21861,14.09059 0.73164,1.90663 13.58724,2.08272 13.66664,0.18721 z"
       id="path4545" />
    <path
       style="opacity:0.57;fill:#483737;stroke-width:76.2086"
       d="m 499.36545,807.20613 c -2.64724,-0.2164 -9.95722,-0.98236 -16.24442,-1.70214 -6.28719,-0.71977 -13.93813,-1.55305 -17.0021,-1.85174 -3.06396,-0.29868 -9.29099,-1.65522 -13.83784,-3.01453 -4.54684,-1.35931 -11.24513,-3.20854 -14.88509,-4.10939 -15.37496,-3.80519 -22.43026,-6.24019 -36.70035,-12.6664 -2.64724,-1.19213 -7.85735,-3.49616 -11.57803,-5.12009 -3.72068,-1.62393 -7.1369,-3.55453 -7.59158,-4.29023 -0.45469,-0.73569 -1.73529,-1.33763 -2.8458,-1.33763 -2.37842,0 -25.81731,-13.91259 -29.556,-17.54351 -1.41716,-1.37632 -3.47416,-2.82918 -4.57111,-3.22859 -8.08841,-2.94498 -41.7303,-33.87425 -55.93553,-51.42531 -25.65072,-31.69237 -46.93157,-71.25433 -55.66474,-103.48296 -1.345,-4.96357 -3.02655,-10.91986 -3.73677,-13.2362 -0.71022,-2.31633 -1.54992,-6.10669 -1.866,-8.42303 -0.31609,-2.31633 -1.40279,-8.24009 -2.41491,-13.16392 -5.01846,-24.41416 -5.27178,-66.54518 -0.54307,-90.31904 1.38218,-6.949 2.74623,-15.07121 3.03123,-18.04935 0.28499,-2.97815 1.61958,-8.61309 2.96575,-12.5221 1.34616,-3.90901 2.44757,-8.11284 2.44757,-9.34183 0,-1.22899 0.47501,-3.17477 1.05558,-4.32396 1.2342,-2.44298 3.67838,-9.9853 4.32654,-13.35098 0.24796,-1.28752 1.30434,-3.99144 2.34752,-6.00874 1.04318,-2.01728 1.89668,-4.5069 1.89668,-5.53247 0,-1.02558 0.54149,-1.86469 1.20329,-1.86469 0.66181,0 1.2033,-0.62096 1.2033,-1.3799 0,-0.75895 3.38425,-8.13218 7.52056,-16.38496 9.59717,-19.14832 10.60234,-20.98589 12.53893,-22.92247 0.87985,-0.87985 1.59973,-2.14121 1.59973,-2.80302 0,-0.66181 0.83119,-2.03449 1.8471,-3.05039 1.0159,-1.0159 4.12942,-5.07192 6.91892,-9.01337 2.7895,-3.94144 6.52266,-9.18838 8.29591,-11.65987 5.16213,-7.19476 36.69891,-38.21446 48.51739,-47.72189 5.95628,-4.79156 16.51516,-12.37655 23.46416,-16.85553 12.97777,-8.36483 42.66507,-23.43304 46.16761,-23.43304 1.08021,0 1.964,-0.47836 1.964,-1.06302 0,-0.58466 1.21833,-1.34787 2.7074,-1.69603 1.48907,-0.34816 6.76851,-2.11275 11.73208,-3.92132 4.96357,-1.80856 10.64912,-3.69578 12.63455,-4.19383 1.98543,-0.49804 8.75393,-2.32998 15.04113,-4.07097 16.7909,-4.64957 45.0278,-7.8829 69.18919,-7.92265 27.33741,-0.045 46.15208,2.65711 80.0188,11.492 4.30176,1.12221 9.17509,2.59962 10.82961,3.28312 1.65452,0.68351 3.54971,1.39164 4.21152,1.57362 4.77072,1.31185 16.1186,5.8999 22.05961,8.9189 3.91438,1.98914 7.68825,3.61663 8.38637,3.61663 0.69811,0 1.98484,0.67685 2.85937,1.50411 0.87454,0.82726 4.83895,3.04748 8.8098,4.93381 3.97086,1.88634 13.98825,7.94526 22.26087,13.46426 54.12799,36.11101 88.12867,78.54277 112.29087,140.13542 3.4908,8.89851 9.28475,27.98943 9.86012,32.48884 0.21157,1.65452 1.44721,7.34007 2.74585,12.63454 1.29864,5.29448 2.69037,13.95817 3.09275,19.25265 3.21242,42.26871 3.2933,44.78491 1.91443,59.55551 -0.77266,8.27667 -1.54469,17.54363 -1.71564,20.59323 -0.35912,6.40666 -4.54892,25.54182 -8.27084,37.7737 -1.40963,4.63267 -2.59912,8.96451 -2.64332,9.62632 -0.42105,6.30546 -13.5253,35.67882 -24.42532,54.74971 -17.86535,31.25756 -43.00107,60.81706 -68.58911,80.6605 -15.16716,11.76209 -34.31138,25.21565 -35.8916,25.22274 -0.7721,0.004 -1.58432,0.51706 -1.80493,1.14132 -0.56016,1.58512 -34.70521,18.30547 -44.92283,21.99807 -19.09807,6.90196 -45.31849,13.77658 -56.5668,14.83098 -3.15317,0.29559 -7.68925,1.04349 -10.08018,1.662 -8.24167,2.13205 -38.1929,3.8602 -50.07218,2.88911 z m 52.65668,-32.64857 c 1.03612,-0.86056 2.25246,-4.24481 2.703,-7.52057 l 0.81915,-5.95591 h 24.55454 c 15.56749,0 24.55453,-0.4404 24.55453,-1.20329 0,-0.66181 1.14505,-1.20329 2.54456,-1.20329 2.18953,0 7.78267,-2.44997 17.30973,-7.58221 1.32362,-0.71303 4.84324,-2.58974 7.82138,-4.17046 6.90913,-3.66719 8.68423,-5.41917 7.80699,-7.70527 -0.88817,-2.31453 -19.48726,-3.39271 -58.646,-3.39969 l -27.37485,-0.005 v -6.6181 -6.6181 h 56.94957 56.94956 l 11.63799,-9.63844 c 17.26465,-14.29839 17.68032,-13.93664 -17.241,-15.00421 -27.56752,-0.84275 -84.73231,0.051 -89.49499,1.39921 -1.45654,0.41232 -1.96457,0.16649 -1.43309,-0.69345 0.52008,-0.84151 -0.31084,-1.3322 -2.2559,-1.3322 -1.69358,0 -3.07924,0.54148 -3.07924,1.20329 0,1.71196 -6.37906,1.4924 -8.74041,-0.30082 -1.13438,-0.86146 -2.31755,-4.13104 -2.76916,-7.65233 l -0.78852,-6.14821 77.444,-0.63277 c 42.59418,-0.34802 78.25621,-0.98205 79.24892,-1.40895 1.82806,-0.78612 11.65004,-13.46917 14.29798,-18.46289 1.28938,-2.43164 1.11055,-2.84466 -1.69335,-3.91069 -1.95989,-0.74515 -34.20042,-1.19192 -86.01343,-1.19192 h -82.87846 l -0.48016,-42.41598 c -0.2641,-23.32879 -0.75742,-43.85674 -1.09628,-45.61767 -1.05493,-5.4821 -6.46529,-13.40853 -13.63413,-19.97463 -3.78565,-3.46737 -7.39703,-6.30429 -8.0253,-6.30429 -0.62826,0 -1.88114,-0.73884 -2.78416,-1.64186 -2.77468,-2.77468 -17.61723,-3.61101 -24.3004,-1.36924 -12.98777,4.35652 -17.99311,7.86008 -24.0712,16.84893 -5.92136,8.75711 -6.58986,14.16507 -7.23538,58.53152 l -0.60651,41.68546 -85.19875,0.4297 c -46.85931,0.23634 -85.59043,0.82142 -86.06915,1.30019 -0.93925,0.93932 5.90398,11.41754 12.45521,19.07119 l 4.04509,4.72578 h 76.91681 76.91681 v 7.98993 7.98994 l -20.15511,-0.98322 c -25.55655,-1.24671 -115.32277,-1.45311 -116.50747,-0.26788 -1.62883,1.62955 1.19682,5.24131 11.38518,14.5526 l 10.09276,9.22391 h 57.59232 57.59232 v 7.85991 7.8599 l -42.22427,-0.83422 -42.22429,-0.83421 0.40995,2.82773 c 0.32658,2.25271 3.51436,4.48372 15.67637,10.97131 14.7396,7.86255 15.6887,8.18692 27.50236,9.39923 6.72975,0.6906 18.6763,1.25564 26.54789,1.25564 14.01975,0 14.31338,0.0552 14.37991,2.7074 0.1555,6.19881 2.838,11.08623 6.55018,11.9342 1.98543,0.45352 19.09485,0.72895 38.02095,0.61207 26.21567,-0.16192 34.85975,-0.58518 36.29495,-1.77719 z M 740.38717,638.64594 c 4.45567,-5.62573 17.67685,-33.33013 18.80614,-39.4074 0.24595,-1.32362 1.58327,-5.38472 2.97182,-9.02467 1.38853,-3.63996 2.52488,-7.83643 2.52522,-9.3255 3.3e-4,-1.48908 0.57404,-2.70741 1.27491,-2.70741 0.70087,0 0.99441,-0.45287 0.65233,-1.00637 -0.34209,-0.5535 0.44351,-4.47923 1.74576,-8.72385 4.83933,-15.77357 5.87938,-76.47332 1.65794,-96.76096 -2.60361,-12.51257 -6.51953,-27.93889 -8.45807,-33.31971 -1.02752,-2.85208 -2.08347,-6.22006 -2.34656,-7.48443 -1.94307,-9.338 -17.07751,-40.33789 -26.66252,-54.61283 -27.75902,-41.34151 -64.28007,-73.73049 -107.44486,-95.2883 -4.30176,-2.14844 -9.73766,-4.89659 -12.07977,-6.10702 -8.30455,-4.29188 -42.38969,-15.36051 -49.37574,-16.03403 -2.26809,-0.21866 -8.99713,-1.40908 -14.95342,-2.64537 -8.66574,-1.79867 -15.87862,-2.23325 -36.0987,-2.17498 -34.26325,0.0987 -51.70645,3.24507 -88.69564,15.99851 -8.3226,2.86954 -35.78904,16.27379 -37.0482,18.08037 -0.3309,0.47476 -1.45655,1.17727 -2.50146,1.56112 -1.0449,0.38384 -5.03874,2.78101 -8.8752,5.32703 -3.83645,2.54602 -8.02314,5.23695 -9.30376,5.97985 -1.28061,0.74289 -3.5138,2.37641 -4.96264,3.63004 -1.44885,1.25362 -4.80018,3.8721 -7.44742,5.81883 -2.64724,1.94673 -7.88647,6.40487 -11.64275,9.90698 -3.75627,3.5021 -7.41127,6.36746 -8.12221,6.36746 -0.71094,0 -1.29262,0.81222 -1.29262,1.80494 0,0.99271 -0.74906,1.80493 -1.66459,1.80493 -0.91553,0 -1.9583,1.12315 -2.31728,2.49588 -0.35898,1.37274 -1.77583,2.78959 -3.14857,3.14857 -1.37273,0.35898 -2.51272,1.26638 -2.5333,2.01646 -0.0206,0.75007 -4.35243,6.22217 -9.62633,12.16022 -5.27389,5.93806 -9.58889,11.35839 -9.58889,12.0452 0,0.68681 -1.2221,2.59692 -2.71578,4.24468 -2.89277,3.19118 -11.62746,17.77983 -19.30792,32.248 -9.90966,18.66746 -22.23716,53.32888 -24.90273,70.01937 -5.04993,31.62023 -5.71298,43.89345 -3.62326,67.0673 0.61091,6.77466 1.96225,16.43996 3.00298,21.47845 1.04073,5.03848 2.10494,11.13739 2.36492,13.55315 0.25998,2.41576 1.59781,7.59057 2.97295,11.49958 1.37514,3.90901 2.50026,8.10549 2.50026,9.3255 0,1.22002 0.54148,2.21821 1.20329,2.21821 0.66181,0 1.20329,0.8293 1.20329,1.8429 0,5.1192 9.80188,27.33663 18.71797,42.4271 l 2.33961,3.95976 79.41716,-0.5873 c 43.67943,-0.32303 81.71844,-0.61585 84.53114,-0.65073 l 5.11398,-0.0634 0.0649,-28.57815 c 0.0357,-15.71798 0.49971,-32.71817 1.03117,-37.77821 3.30119,-31.43055 34.35504,-54.3336 65.59828,-48.38046 15.66612,2.98505 26.66201,10.50798 36.0702,24.67773 8.23438,12.40189 8.81706,15.66652 9.792,54.86285 0.4815,19.35793 0.93822,35.28606 1.01492,35.39585 0.0766,0.10986 36.68941,0.53963 81.36156,0.95518 44.67215,0.41557 82.12419,0.86722 83.22674,1.00368 1.10255,0.13645 3.613,-1.7826 5.57877,-4.26459 z"
       id="path4716" />
    <path
       style="opacity:0.57;fill:#483737;stroke-width:76.2086"
       d="m 597.43361,389.26439 c -2.09665,-2.64723 -4.37993,-4.81316 -5.07396,-4.81316 -0.69402,0 -2.27296,-1.16581 -3.50876,-2.59069 -1.97645,-2.27887 -2.24689,-4.74104 -2.24689,-20.45594 v -17.86523 h 14.43948 14.43948 v 11.93712 11.93713 l 7.89559,0.84555 c 9.73688,1.04273 18.53284,0.14722 19.91049,-2.02708 0.56982,-0.89933 1.04433,-6.04443 1.05446,-11.43355 0.0147,-7.81329 0.40404,-9.94638 1.92178,-10.52879 1.04684,-0.40171 7.27387,-0.73038 13.83783,-0.73038 h 11.93449 v 25.26909 25.2691 H 636.64165 601.2457 Z"
       id="path4755" />
    <path
       style="opacity:0.57;fill:#483737;stroke-width:76.2086"
       d="m 353.4421,369.10928 0.32523,-24.96827 13.36152,-0.33859 13.36152,-0.33859 0.84115,11.1682 c 0.46263,6.14251 1.38,11.70969 2.0386,12.3715 0.65859,0.6618 6.22738,1.38793 12.37509,1.6136 14.70975,0.53997 15.17841,0.0974 15.17841,-14.3341 v -10.74366 h 14.58579 14.58579 l -0.49622,18.4689 -0.49622,18.46891 -7.17065,6.75631 -7.17065,6.75631 -35.8223,0.0439 -35.8223,0.0439 z"
       id="path4794" />
    <path
       style="opacity:0.57;fill:#483737;stroke-width:76.2086"
       d="m 442.20917,422.95652 v -19.25264 h 7.64873 7.64874 l 0.83343,11.04019 c 0.45838,6.07211 1.08039,11.4398 1.38224,11.9282 0.99517,1.61022 10.27252,2.56425 16.89251,1.73714 l 6.50621,-0.8129 0.0132,-6.23069 c 0.0261,-12.26166 0.8983,-14.57836 6.10002,-16.20181 9.76436,-3.04744 10.06109,-2.73465 11.18552,11.79089 0.95702,12.36292 0.58543,12.01807 12.94997,12.01807 7.53221,0 10.88225,-0.44911 11.2196,-1.50411 0.26453,-0.82726 0.83762,-6.24207 1.27354,-12.0329 l 0.79259,-10.52879 h 8.31501 8.31502 v 10.58895 c 0,6.63147 0.53965,11.12861 1.44394,12.0329 1.9292,1.9292 19.24871,1.9292 21.17791,0 0.9043,-0.90429 1.44395,-5.40143 1.44395,-12.0329 v -10.58895 h 4.06111 c 2.2336,0 5.75323,0.33842 7.82138,0.75205 l 3.76028,0.75206 v 17.89894 17.89895 H 512.6016 442.20912 Z"
       id="path4833" />
    <path
       style="opacity:0.57;fill:#803300;stroke-width:76.2086"
       d="m 605.85664,637.16815 c -1.57266,-0.99371 -1.85628,-12.87596 -2.20391,-92.3341 -0.21943,-50.15649 -0.0264,-99.99269 0.42892,-110.74709 l 0.82789,-19.55347 24.23853,0.0184 c 13.33119,0.0101 25.05075,0.53169 26.04347,1.15902 1.57848,0.99749 1.84873,14.82401 2.15401,110.20202 0.26102,81.55123 -0.004,109.4866 -1.0498,110.74697 -1.11347,1.34165 -6.21752,1.68179 -25.01653,1.66712 -12.9897,-0.0101 -24.42987,-0.53163 -25.42258,-1.1589 z m 33.72191,-62.07375 c 0.64543,-1.6976 1.17351,-8.68076 1.17351,-15.51812 v -12.43157 l -4.25339,-3.73451 c -5.02078,-4.40831 -9.69085,-4.81531 -14.23534,-1.24061 -3.11926,2.45361 -3.1705,2.734 -3.1705,17.34929 0,8.17046 0.32867,15.71189 0.73039,16.75873 0.57518,1.4989 2.62703,1.90335 9.6561,1.90335 8.47399,0 8.98511,-0.15621 10.09923,-3.08656 z m -1.32342,-85.87561 c 2.00759,-1.27058 3.26823,-18.41926 1.98373,-26.98496 -0.94844,-6.32463 -4.64335,-9.43571 -11.20644,-9.43571 -7.59178,0 -9.10067,2.90088 -9.70372,18.65568 -0.68549,17.90883 -0.17781,18.89297 9.73361,18.86855 4.11303,-0.0101 8.24979,-0.50674 9.19282,-1.10356 z"
       id="path5063" />
    <path
       style="opacity:0.57;fill:#803300;stroke-width:76.2086"
       d="m 442.20917,551.23567 c 0,-78.32272 0.19199,-87.18348 1.90335,-87.84019 1.04684,-0.40171 32.99419,-0.73038 70.99412,-0.73038 h 69.09077 v 87.84019 87.84019 h -5.8124 -5.81241 l -1.14484,-37.60282 -1.14482,-37.60282 -4.68152,-8.8351 c -5.9198,-11.17199 -16.37817,-21.76286 -26.26766,-26.60044 -27.59006,-13.49607 -61.59147,-3.36477 -77.57454,23.11464 -6.72128,11.13526 -7.51715,16.86171 -7.51715,54.08722 v 33.43932 h -6.01645 -6.01645 z m 113.10928,-44.04883 c -1.29215,-0.83505 -0.0101,-1.17167 4.51234,-1.18487 l 6.31727,-0.0184 -0.0744,-6.31728 c -0.16462,-13.97885 -1.77085,-23.98845 -4.12573,-25.71038 -3.43196,-2.50951 -11.00332,-2.1038 -13.84923,0.74211 -2.13919,2.13919 -2.40658,4.01097 -2.40658,16.84607 v 14.43948 l 3.30905,0.0184 c 2.57857,0.0144 2.9106,0.27592 1.50411,1.18487 -1.35347,0.87468 -0.75151,1.16644 2.40658,1.16644 3.15809,0 3.76004,-0.29176 2.40658,-1.16644 z m -75.33438,-1.90335 c 0.40171,-1.04684 0.73038,-7.76722 0.73038,-14.93416 v -13.03082 l -3.70219,-3.11519 c -4.21556,-3.54716 -6.99608,-3.86715 -11.83947,-1.36254 -4.78172,2.47273 -6.11696,11.52448 -4.13456,28.02879 l 0.75879,6.31727 h 8.72834 c 6.84907,0 8.88558,-0.4098 9.45871,-1.90335 z m 44.04883,-13.60188 c 0,-14.51852 -1.16973,-19.45312 -4.85595,-20.48521 -6.38682,-1.78823 -9.28264,-1.40937 -12.97494,1.69749 l -3.82833,3.22133 v 14.93417 14.93416 h 10.82961 10.82961 z"
       id="path5102" />
    <path
       style="opacity:0.57;fill:#803300;stroke-width:76.2086"
       d="m 369.67596,637.60858 c -0.47713,-0.47712 -0.8675,-50.8642 -0.8675,-111.97129 v -111.1038 l 26.77321,-1.5e-4 26.77321,-1.5e-4 -0.41163,111.00367 c -0.2264,61.05202 -0.67645,111.27442 -1.00011,111.60533 -0.94903,0.97026 -50.31422,1.41936 -51.26718,0.46639 z m 36.46823,-61.27319 c 1.80536,-2.17533 0.76284,-28.10978 -1.28369,-31.93376 -0.67538,-1.26195 -2.83514,-3.12557 -4.79947,-4.14136 -3.25137,-1.68135 -3.86835,-1.66304 -6.88325,0.20417 -6.02011,3.72845 -6.31997,4.72579 -6.31997,21.02052 v 15.33287 l 3.30905,0.50128 c 8.02923,1.21632 14.48114,0.81908 15.97733,-0.98372 z m -0.16329,-87.87054 c 1.49582,-1.49582 0.76554,-28.74778 -0.84607,-31.57298 -3.68772,-6.46465 -14.21643,-5.72879 -17.82306,1.24568 -2.5797,4.98857 -1.97903,29.25433 0.77039,31.12267 1.80464,1.22632 16.53147,0.5719 17.89874,-0.79537 z"
       id="path5141" />
  </g>
</svg>
